Alegreya-BoldItalic.ufo
<glyph name="numbersign" format="2">
  <advance width="543"/>
  <unicode hex="0023"/>
  <outline>
    <contour>
      <point x="51" y="352" type="line"/>
      <point x="58" y="339" type="line"/>
      <point x="133" y="339" type="line"/>
      <point x="125" y="306" type="line"/>
      <point x="113" y="261" type="line"/>
      <point x="23" y="262" type="line"/>
      <point x="-3" y="157" type="line"/>
      <point x="4" y="144" type="line"/>
      <point x="79" y="144" type="line"/>
      <point x="50" y="40" type="line"/>
      <point x="62" y="31" type="line"/>
      <point x="170" y="45" type="line"/>
      <point x="195" y="145" type="line"/>
      <point x="235" y="145" type="line"/>
      <point x="273" y="145" type="line"/>
      <point x="243" y="40" type="line"/>
      <point x="255" y="31" type="line"/>
      <point x="363" y="45" type="line"/>
      <point x="389" y="145" type="line"/>
      <point x="487" y="146" type="line"/>
      <point x="508" y="252" type="line"/>
      <point x="503" y="267" type="line"/>
      <point x="420" y="264" type="line"/>
      <point x="437" y="324" type="line"/>
      <point x="441" y="340" type="line"/>
      <point x="541" y="341" type="line"/>
      <point x="562" y="447" type="line"/>
      <point x="557" y="462" type="line"/>
      <point x="475" y="459" type="line"/>
      <point x="510" y="575" type="line"/>
      <point x="497" y="582" type="line"/>
      <point x="388" y="573" type="line"/>
      <point x="358" y="456" type="line"/>
      <point x="320" y="456" type="line"/>
      <point x="281" y="456" type="line"/>
      <point x="317" y="575" type="line"/>
      <point x="304" y="582" type="line"/>
      <point x="194" y="573" type="line"/>
      <point x="164" y="456" type="line"/>
      <point x="77" y="457" type="line"/>
    </contour>
    <contour>
      <point x="244" y="324" type="line"/>
      <point x="244" y="324" type="line"/>
      <point x="247" y="340" type="line"/>
      <point x="282" y="340" type="line"/>
      <point x="327" y="340" type="line"/>
      <point x="318" y="306" type="line"/>
      <point x="306" y="261" type="line"/>
      <point x="261" y="261" type="line"/>
      <point x="227" y="261" type="line"/>
    </contour>
  </outline>
</glyph>
<glyph name="parenright" format="2">
  <advance width="304"/>
  <unicode hex="0029"/>
  <outline>
    <contour>
      <point x="240" y="167" type="curve" smooth="yes"/>
      <point x="262" y="340" type="line"/>
      <point x="291" y="582"/>
      <point x="140" y="649"/>
      <point x="140" y="649" type="curve"/>
      <point x="127" y="649" type="line"/>
      <point x="58" y="589" type="line"/>
      <point x="57" y="578" type="line"/>
      <point x="57" y="578"/>
      <point x="127" y="518"/>
      <point x="103" y="325" type="curve" smooth="yes"/>
      <point x="82" y="152" type="line" smooth="yes"/>
      <point x="60" y="-24"/>
      <point x="-21" y="-73"/>
      <point x="-21" y="-73" type="curve"/>
      <point x="-23" y="-82" type="line"/>
      <point x="22" y="-146" type="line"/>
      <point x="39" y="-146" type="line"/>
      <point x="39" y="-146"/>
      <point x="210" y="-78"/>
    </contour>
  </outline>
</glyph>
<glyph name="comma" format="2">
  <advance width="231"/>
  <unicode hex="002C"/>
  <outline>
    <contour>
      <point x="4" y="145" type="curve"/>
      <point x="1" y="131" type="line"/>
      <point x="18" y="112"/>
      <point x="30" y="82"/>
      <point x="30" y="55" type="curve" smooth="yes"/>
      <point x="30" y="19"/>
      <point x="5" y="-23"/>
      <point x="-34" y="-51" type="curve"/>
      <point x="-34" y="-76" type="line"/>
      <point x="24" y="-122" type="line"/>
      <point x="127" y="-63"/>
      <point x="191" y="18"/>
      <point x="191" y="88" type="curve" smooth="yes"/>
      <point x="191" y="149"/>
      <point x="157" y="189"/>
      <point x="106" y="189" type="curve" smooth="yes"/>
      <point x="78" y="189"/>
      <point x="40" y="173"/>
    </contour>
  </outline>
</glyph>
<glyph name="hyphen" format="2">
  <advance width="314"/>
  <unicode hex="002D"/>
  <outline>
    <contour>
      <point x="291" y="310" type="line"/>
      <point x="282" y="328" type="line"/>
      <point x="282" y="328"/>
      <point x="263" y="324"/>
      <point x="199" y="317" type="curve" smooth="yes"/>
      <point x="50" y="300" type="line"/>
      <point x="27" y="194" type="line"/>
      <point x="37" y="176" type="line"/>
      <point x="265" y="202" type="line"/>
    </contour>
  </outline>
</glyph>
<glyph name="four" format="2">
  <advance width="478"/>
  <unicode hex="0034"/>
  <outline>
    <contour>
      <point x="-22" y="55" type="curve"/>
      <point x="41" y="55"/>
      <point x="124" y="54"/>
      <point x="201" y="52" type="curve"/>
      <point x="191" y="-14"/>
      <point x="179" y="-83"/>
      <point x="179" y="-83" type="curve"/>
      <point x="187" y="-95" type="line"/>
      <point x="353" y="-83" type="line"/>
      <point x="365" y="-72" type="line"/>
      <point x="365" y="-72"/>
      <point x="368" y="-16"/>
      <point x="374" y="47" type="curve"/>
      <point x="413" y="46"/>
      <point x="439" y="45"/>
      <point x="439" y="45" type="curve"/>
      <point x="463" y="158" type="line"/>
      <point x="454" y="173" type="line"/>
      <point x="388" y="173" type="line"/>
      <point x="429" y="503" type="line"/>
      <point x="289" y="515" type="line"/>
      <point x="287" y="515"/>
      <point x="282" y="513"/>
      <point x="280" y="513" type="curve"/>
      <point x="-9" y="155" type="line"/>
      <point x="-13" y="122"/>
      <point x="-18" y="88"/>
    </contour>
    <contour>
      <point x="127" y="173" type="line"/>
      <point x="222" y="300" type="line"/>
      <point x="233" y="300" type="line"/>
      <point x="217" y="173" type="line"/>
    </contour>
  </outline>
</glyph>
<glyph name="H" format="2">
  <advance width="716"/>
  <unicode hex="0048"/>
  <anchor x="329" y="0" name="bottom"/>
  <anchor x="628" y="172" name="bottomright"/>
  <anchor x="369" y="324" name="center"/>
  <anchor x="408" y="647" name="top"/>
  <anchor x="70" y="647" name="topleft"/>
  <outline>
    <contour>
      <point x="-17" y="-5" type="line"/>
      <point x="52" y="-2"/>
      <point x="113" y="0"/>
      <point x="145" y="0" type="curve" smooth="yes"/>
      <point x="174" y="0"/>
      <point x="254" y="-2"/>
      <point x="306" y="-4" type="curve"/>
      <point x="325" y="80" type="line"/>
      <point x="323" y="83"/>
      <point x="320" y="87"/>
      <point x="318" y="90" type="curve" smooth="yes"/>
      <point x="313" y="88"/>
      <point x="301" y="87"/>
      <point x="292" y="87" type="curve" smooth="yes"/>
      <point x="273" y="87"/>
      <point x="267" y="95"/>
      <point x="267" y="119" type="curve" smooth="yes"/>
      <point x="267" y="129"/>
      <point x="268" y="143"/>
      <point x="270" y="156" type="curve" smooth="yes"/>
      <point x="287" y="300" type="line"/>
      <point x="322" y="510" type="line" smooth="yes"/>
      <point x="328" y="545"/>
      <point x="338" y="554"/>
      <point x="379" y="562" type="curve"/>
      <point x="397" y="652" type="line"/>
      <point x="301" y="649"/>
      <point x="230" y="647"/>
      <point x="199" y="647" type="curve" smooth="yes"/>
      <point x="168" y="647"/>
      <point x="109" y="647"/>
      <point x="73" y="647" type="curve"/>
      <point x="56" y="572" type="line"/>
      <point x="63" y="558" type="line"/>
      <point x="69" y="558"/>
      <point x="81" y="559"/>
      <point x="88" y="559" type="curve" smooth="yes"/>
      <point x="115" y="559"/>
      <point x="121" y="549"/>
      <point x="116" y="508" type="curve" smooth="yes"/>
      <point x="73" y="162" type="line"/>
      <point x="66" y="106"/>
      <point x="53" y="91"/>
      <point x="1" y="80" type="curve"/>
    </contour>
    <contour>
      <point x="261" y="254" type="line"/>
      <point x="314" y="260"/>
      <point x="376" y="265"/>
      <point x="390" y="265" type="curve"/>
      <point x="450" y="264" type="line"/>
      <point x="471" y="390" type="line"/>
      <point x="445" y="387"/>
      <point x="423" y="386"/>
      <point x="379" y="386" type="curve" smooth="yes"/>
      <point x="348" y="387"/>
      <point x="318" y="388"/>
      <point x="286" y="390" type="curve"/>
    </contour>
    <contour>
      <point x="671" y="-2" type="curve"/>
      <point x="690" y="81" type="line"/>
      <point x="688" y="85"/>
      <point x="685" y="88"/>
      <point x="683" y="92" type="curve"/>
      <point x="674" y="90"/>
      <point x="664" y="89"/>
      <point x="656" y="89" type="curve" smooth="yes"/>
      <point x="634" y="89"/>
      <point x="625" y="101"/>
      <point x="625" y="133" type="curve" smooth="yes"/>
      <point x="625" y="165"/>
      <point x="661" y="413"/>
      <point x="680" y="510" type="curve"/>
      <point x="687" y="548"/>
      <point x="697" y="556"/>
      <point x="745" y="564" type="curve"/>
      <point x="762" y="652" type="line"/>
      <point x="731" y="650"/>
      <point x="670" y="648"/>
      <point x="615" y="647" type="curve" smooth="yes"/>
      <point x="588" y="647"/>
      <point x="430" y="647"/>
      <point x="429" y="647" type="curve"/>
      <point x="412" y="572" type="line"/>
      <point x="419" y="558" type="line"/>
      <point x="425" y="558"/>
      <point x="437" y="559"/>
      <point x="445" y="559" type="curve" smooth="yes"/>
      <point x="472" y="559"/>
      <point x="478" y="548"/>
      <point x="473" y="508" type="curve"/>
      <point x="430" y="162" type="line" smooth="yes"/>
      <point x="423" y="108"/>
      <point x="403" y="87"/>
      <point x="357" y="86" type="curve"/>
      <point x="339" y="-1" type="line"/>
      <point x="390" y="-1"/>
      <point x="470" y="0"/>
      <point x="503" y="0" type="curve" smooth="yes"/>
      <point x="552" y="0" type="line" smooth="yes"/>
      <point x="621" y="-1"/>
      <point x="653" y="-2"/>
    </contour>
  </outline>
</glyph>
<glyph name="M" format="2">
  <advance width="808"/>
  <unicode hex="004D"/>
  <anchor x="402" y="0" name="bottom"/>
  <anchor x="418" y="647" name="top"/>
  <outline>
    <contour>
      <point x="293" y="-12" type="curve"/>
      <point x="421" y="-2" type="line"/>
      <point x="496" y="195"/>
      <point x="564" y="355"/>
      <point x="567" y="363" type="curve"/>
      <point x="580" y="363" type="line"/>
      <point x="571" y="283"/>
      <point x="558" y="165"/>
      <point x="554" y="132" type="curve" smooth="yes"/>
      <point x="550" y="100"/>
      <point x="535" y="87"/>
      <point x="499" y="83" type="curve"/>
      <point x="476" y="-8" type="line"/>
      <point x="488" y="-6"/>
      <point x="629" y="0"/>
      <point x="668" y="0" type="curve" smooth="yes"/>
      <point x="702" y="-1"/>
      <point x="749" y="-2"/>
      <point x="775" y="-3" type="curve"/>
      <point x="794" y="83" type="line"/>
      <point x="792" y="86"/>
      <point x="790" y="88"/>
      <point x="788" y="91" type="curve" smooth="yes"/>
      <point x="778" y="90"/>
      <point x="767" y="89"/>
      <point x="759" y="89" type="curve" smooth="yes"/>
      <point x="730" y="89"/>
      <point x="722" y="110"/>
      <point x="725" y="176" type="curve" smooth="yes"/>
      <point x="730" y="329"/>
      <point x="737" y="467"/>
      <point x="742" y="510" type="curve" smooth="yes"/>
      <point x="747" y="550"/>
      <point x="759" y="559"/>
      <point x="811" y="561" type="curve"/>
      <point x="830" y="649" type="line"/>
      <point x="828" y="650"/>
      <point x="825" y="652"/>
      <point x="823" y="653" type="curve" smooth="yes"/>
      <point x="805" y="652"/>
      <point x="767" y="649"/>
      <point x="732" y="648" type="curve" smooth="yes"/>
      <point x="670" y="644"/>
      <point x="610" y="647"/>
      <point x="547" y="647" type="curve"/>
      <point x="512" y="546"/>
      <point x="463" y="414"/>
      <point x="431" y="333" type="curve"/>
      <point x="418" y="333" type="line"/>
      <point x="405" y="434"/>
      <point x="394" y="564"/>
      <point x="390" y="651" type="curve"/>
      <point x="329" y="649"/>
      <point x="266" y="647"/>
      <point x="236" y="647" type="curve" smooth="yes"/>
      <point x="212" y="647"/>
      <point x="163" y="649"/>
      <point x="92" y="652" type="curve"/>
      <point x="72" y="566" type="line"/>
      <point x="79" y="558" type="line"/>
      <point x="123" y="554"/>
      <point x="134" y="548"/>
      <point x="134" y="529" type="curve" smooth="yes"/>
      <point x="134" y="512"/>
      <point x="82" y="255"/>
      <point x="57" y="148" type="curve" smooth="yes"/>
      <point x="47" y="104"/>
      <point x="30" y="86"/>
      <point x="-6" y="82" type="curve"/>
      <point x="-25" y="-8" type="line"/>
      <point x="-25" y="-6"/>
      <point x="63" y="0"/>
      <point x="91" y="0" type="curve" smooth="yes"/>
      <point x="117" y="0"/>
      <point x="188" y="-2"/>
      <point x="231" y="-4" type="curve"/>
      <point x="254" y="82" type="line"/>
      <point x="251" y="85"/>
      <point x="249" y="87"/>
      <point x="246" y="90" type="curve" smooth="yes"/>
      <point x="238" y="89"/>
      <point x="226" y="88"/>
      <point x="221" y="88" type="curve" smooth="yes"/>
      <point x="202" y="88"/>
      <point x="193" y="96"/>
      <point x="193" y="115" type="curve" smooth="yes"/>
      <point x="193" y="120"/>
      <point x="196" y="145"/>
      <point x="226" y="363" type="curve"/>
      <point x="239" y="363" type="line"/>
      <point x="246" y="308"/>
      <point x="264" y="200"/>
    </contour>
  </outline>
</glyph>
<glyph name="Q" format="2">
  <advance width="636"/>
  <unicode hex="0051"/>
  <anchor x="422" y="0" name="bottom"/>
  <anchor x="332" y="647" name="top"/>
  <outline>
    <contour>
      <point x="446" y="31" type="line"/>
      <point x="273" y="-12" type="line"/>
      <point x="448" y="-206"/>
      <point x="494" y="-241"/>
      <point x="573" y="-241" type="curve" smooth="yes"/>
      <point x="610" y="-241"/>
      <point x="758" y="-141"/>
      <point x="758" y="-141" type="curve"/>
      <point x="749" y="-75" type="line"/>
      <point x="739" y="-64" type="line"/>
      <point x="739" y="-64"/>
      <point x="692" y="-74"/>
      <point x="649" y="-74" type="curve" smooth="yes"/>
      <point x="586" y="-74"/>
      <point x="506" y="-39"/>
      <point x="445" y="17" type="curve"/>
    </contour>
    <contour>
      <point x="309" y="112" type="curve" smooth="yes"/>
      <point x="264" y="112"/>
      <point x="243" y="151"/>
      <point x="243" y="236" type="curve" smooth="yes"/>
      <point x="243" y="439"/>
      <point x="273" y="524"/>
      <point x="342" y="524" type="curve" smooth="yes"/>
      <point x="388" y="524"/>
      <point x="411" y="484"/>
      <point x="411" y="400" type="curve" smooth="yes"/>
      <point x="411" y="196"/>
      <point x="380" y="112"/>
    </contour>
    <contour>
      <point x="283" y="-12" type="curve" smooth="yes"/>
      <point x="511" y="-12"/>
      <point x="637" y="142"/>
      <point x="637" y="398" type="curve" smooth="yes"/>
      <point x="637" y="570"/>
      <point x="540" y="659"/>
      <point x="372" y="659" type="curve" smooth="yes"/>
      <point x="141" y="659"/>
      <point x="18" y="512"/>
      <point x="18" y="256" type="curve" smooth="yes"/>
      <point x="18" y="83"/>
      <point x="118" y="-12"/>
    </contour>
  </outline>
</glyph>
<glyph name="a" format="2">
  <advance width="528"/>
  <unicode hex="0061"/>
  <anchor x="253" y="0" name="bottom"/>
  <anchor x="410" y="41" name="ogonek"/>
  <anchor x="289" y="474" name="top"/>
  <outline>
    <contour>
      <point x="446" y="154" type="curve"/>
      <point x="442" y="157" type="line"/>
      <point x="453" y="224"/>
      <point x="475" y="332"/>
      <point x="501" y="449" type="curve"/>
      <point x="493" y="472" type="line"/>
      <point x="359" y="484" type="line"/>
      <point x="340" y="472" type="line"/>
      <point x="335" y="452" type="line"/>
      <point x="263" y="472" type="line"/>
      <point x="140" y="472"/>
      <point x="9" y="303"/>
      <point x="9" y="145" type="curve" smooth="yes"/>
      <point x="9" y="46"/>
      <point x="65" y="-12"/>
      <point x="160" y="-12" type="curve"/>
      <point x="201" y="17"/>
      <point x="238" y="64"/>
      <point x="293" y="158" type="curve"/>
      <point x="303" y="158" type="line"/>
      <point x="285" y="83"/>
      <point x="278" y="51"/>
      <point x="278" y="36" type="curve" smooth="yes"/>
      <point x="278" y="4"/>
      <point x="295" y="-12"/>
      <point x="329" y="-12" type="curve" smooth="yes"/>
      <point x="386" y="-12"/>
      <point x="431" y="21"/>
      <point x="541" y="143" type="curve"/>
      <point x="521" y="191" type="line"/>
      <point x="498" y="195" type="line"/>
      <point x="469" y="167"/>
      <point x="453" y="154"/>
    </contour>
    <contour>
      <point x="206" y="143" type="curve" smooth="yes"/>
      <point x="198" y="143"/>
      <point x="192" y="171"/>
      <point x="192" y="209" type="curve" smooth="yes"/>
      <point x="192" y="282"/>
      <point x="214" y="367"/>
      <point x="233" y="367" type="curve" smooth="yes"/>
      <point x="254" y="367"/>
      <point x="280" y="358"/>
      <point x="307" y="341" type="curve"/>
      <point x="280" y="245"/>
      <point x="228" y="143"/>
    </contour>
  </outline>
</glyph>
<glyph name="j" format="2">
  <advance width="300"/>
  <unicode hex="006A"/>
  <anchor x="243" y="0" name="bottom"/>
  <anchor x="125" y="463" name="top"/>
  <outline>
    <contour>
      <point x="208" y="14" type="curve" smooth="yes"/>
      <point x="252" y="306"/>
      <point x="289" y="453"/>
      <point x="289" y="453" type="curve"/>
      <point x="273" y="473" type="line"/>
      <point x="273" y="473"/>
      <point x="139" y="461"/>
      <point x="50" y="461" type="curve"/>
      <point x="38" y="379" type="line"/>
      <point x="66" y="379" type="line" smooth="yes"/>
      <point x="89" y="379"/>
      <point x="99" y="369"/>
      <point x="99" y="346" type="curve" smooth="yes"/>
      <point x="99" y="317"/>
      <point x="50" y="33"/>
      <point x="50" y="33" type="curve"/>
      <point x="35" y="-86"/>
      <point x="12" y="-134"/>
      <point x="-60" y="-190" type="curve"/>
      <point x="-64" y="-205" type="line"/>
      <point x="-22" y="-248" type="line"/>
      <point x="106" y="-190"/>
      <point x="195" y="-88"/>
    </contour>
    <contour>
      <point x="201" y="547" type="curve" smooth="yes"/>
      <point x="269" y="547"/>
      <point x="315" y="593"/>
      <point x="315" y="667" type="curve" smooth="yes"/>
      <point x="315" y="716"/>
      <point x="288" y="742"/>
      <point x="239" y="742" type="curve" smooth="yes"/>
      <point x="169" y="742"/>
      <point x="123" y="698"/>
      <point x="123" y="625" type="curve" smooth="yes"/>
      <point x="123" y="576"/>
      <point x="150" y="547"/>
    </contour>
  </outline>
</glyph>
<glyph name="k" format="2">
  <advance width="507"/>
  <unicode hex="006B"/>
  <anchor x="180" y="730" name="top"/>
  <outline>
    <contour>
      <point x="242" y="197" type="line"/>
      <point x="294" y="-6" type="line"/>
      <point x="307" y="-13" type="line"/>
      <point x="469" y="9" type="line"/>
      <point x="473" y="30" type="line"/>
      <point x="473" y="30"/>
      <point x="420" y="132"/>
      <point x="391" y="197" type="curve"/>
      <point x="464" y="251"/>
      <point x="503" y="312"/>
      <point x="503" y="374" type="curve" smooth="yes"/>
      <point x="503" y="443"/>
      <point x="444" y="485"/>
      <point x="345" y="485" type="curve"/>
      <point x="308" y="461"/>
      <point x="268" y="398"/>
      <point x="227" y="303" type="curve"/>
      <point x="220" y="302" type="line"/>
      <point x="250" y="484"/>
      <point x="301" y="721"/>
      <point x="301" y="721" type="curve"/>
      <point x="286" y="742" type="line"/>
      <point x="286" y="742"/>
      <point x="148" y="730"/>
      <point x="58" y="730" type="curve"/>
      <point x="46" y="648" type="line"/>
      <point x="74" y="648" type="line" smooth="yes"/>
      <point x="97" y="648"/>
      <point x="107" y="638"/>
      <point x="107" y="615" type="curve" smooth="yes"/>
      <point x="107" y="581"/>
      <point x="12" y="16"/>
      <point x="12" y="16" type="curve"/>
      <point x="32" y="-7" type="line"/>
      <point x="108" y="-7"/>
      <point x="176" y="17"/>
      <point x="180" y="45" type="curve" smooth="yes"/>
      <point x="187" y="104" type="line"/>
      <point x="234" y="229"/>
      <point x="285" y="319"/>
      <point x="310" y="319" type="curve" smooth="yes"/>
      <point x="323" y="319"/>
      <point x="329" y="313"/>
      <point x="329" y="297" type="curve" smooth="yes"/>
      <point x="329" y="244"/>
      <point x="252" y="216"/>
      <point x="252" y="216" type="curve"/>
    </contour>
  </outline>
</glyph>
<glyph name="m" format="2">
  <advance width="795"/>
  <unicode hex="006D"/>
  <anchor x="369" y="0" name="bottom"/>
  <anchor x="427" y="472" name="top"/>
  <outline>
    <contour>
      <point x="712" y="157" type="curve"/>
      <point x="709" y="160" type="line"/>
      <point x="717" y="202"/>
      <point x="768" y="337"/>
      <point x="768" y="378" type="curve" smooth="yes"/>
      <point x="768" y="445"/>
      <point x="712" y="485"/>
      <point x="619" y="485" type="curve"/>
      <point x="582" y="461"/>
      <point x="542" y="398"/>
      <point x="501" y="303" type="curve"/>
      <point x="494" y="302" type="line"/>
      <point x="494" y="302"/>
      <point x="508" y="354"/>
      <point x="508" y="379" type="curve" smooth="yes"/>
      <point x="508" y="445"/>
      <point x="453" y="485"/>
      <point x="362" y="485" type="curve"/>
      <point x="325" y="461"/>
      <point x="285" y="398"/>
      <point x="244" y="303" type="curve"/>
      <point x="237" y="302" type="line"/>
      <point x="248" y="375"/>
      <point x="270" y="452"/>
      <point x="270" y="452" type="curve"/>
      <point x="256" y="473" type="line"/>
      <point x="256" y="473"/>
      <point x="122" y="461"/>
      <point x="33" y="461" type="curve"/>
      <point x="21" y="379" type="line"/>
      <point x="49" y="379" type="line" smooth="yes"/>
      <point x="76" y="379"/>
      <point x="85" y="368"/>
      <point x="81" y="336" type="curve"/>
      <point x="72" y="278"/>
      <point x="29" y="16"/>
      <point x="29" y="16" type="curve"/>
      <point x="49" y="-7" type="line"/>
      <point x="125" y="-7"/>
      <point x="193" y="17"/>
      <point x="197" y="45" type="curve" smooth="yes"/>
      <point x="204" y="104" type="line"/>
      <point x="248" y="229"/>
      <point x="295" y="319"/>
      <point x="317" y="319" type="curve" smooth="yes"/>
      <point x="331" y="319"/>
      <point x="336" y="313"/>
      <point x="336" y="296" type="curve" smooth="yes"/>
      <point x="336" y="258"/>
      <point x="272" y="16"/>
      <point x="272" y="16" type="curve"/>
      <point x="292" y="-7" type="line"/>
      <point x="368" y="-7"/>
      <point x="437" y="17"/>
      <point x="440" y="45" type="curve" smooth="yes"/>
      <point x="445" y="93" type="line"/>
      <point x="495" y="223"/>
      <point x="550" y="319"/>
      <point x="574" y="319" type="curve" smooth="yes"/>
      <point x="586" y="319"/>
      <point x="592" y="310"/>
      <point x="592" y="291" type="curve" smooth="yes"/>
      <point x="592" y="253"/>
      <point x="531" y="92"/>
      <point x="531" y="50" type="curve" smooth="yes"/>
      <point x="531" y="9"/>
      <point x="551" y="-9"/>
      <point x="597" y="-9" type="curve" smooth="yes"/>
      <point x="652" y="-9"/>
      <point x="701" y="27"/>
      <point x="807" y="146" type="curve"/>
      <point x="788" y="194" type="line"/>
      <point x="764" y="198" type="line"/>
      <point x="724" y="163"/>
      <point x="717" y="157"/>
    </contour>
  </outline>
</glyph>
<glyph name="p" format="2">
  <advance width="574"/>
  <unicode hex="0070"/>
  <outline>
    <contour>
      <point x="-29" y="-155" type="curve"/>
      <point x="-45" y="-237" type="line"/>
      <point x="55" y="-233"/>
      <point x="183" y="-230"/>
      <point x="259" y="-230" type="curve"/>
      <point x="275" y="-151" type="line"/>
      <point x="274" y="-145" type="line"/>
      <point x="228" y="-145" type="line" smooth="yes"/>
      <point x="190" y="-145"/>
      <point x="181" y="-135"/>
      <point x="186" y="-96" type="curve" smooth="yes"/>
      <point x="202" y="20" type="line"/>
      <point x="299" y="0" type="line"/>
      <point x="421" y="0"/>
      <point x="553" y="169"/>
      <point x="553" y="326" type="curve" smooth="yes"/>
      <point x="553" y="426"/>
      <point x="493" y="484"/>
      <point x="392" y="484" type="curve"/>
      <point x="348" y="450"/>
      <point x="306" y="394"/>
      <point x="264" y="314" type="curve"/>
      <point x="255" y="314" type="line"/>
      <point x="265" y="367"/>
      <point x="276" y="412"/>
      <point x="289" y="454" type="curve"/>
      <point x="273" y="473" type="line"/>
      <point x="190" y="466"/>
      <point x="100" y="461"/>
      <point x="50" y="461" type="curve"/>
      <point x="38" y="379" type="line"/>
      <point x="66" y="379" type="line" smooth="yes"/>
      <point x="89" y="379"/>
      <point x="99" y="369"/>
      <point x="99" y="346" type="curve" smooth="yes"/>
      <point x="99" y="302"/>
      <point x="54" y="13"/>
      <point x="31" y="-89" type="curve" smooth="yes"/>
      <point x="20" y="-137"/>
      <point x="8" y="-150"/>
    </contour>
    <contour>
      <point x="359" y="347" type="curve" smooth="yes"/>
      <point x="366" y="347"/>
      <point x="372" y="318"/>
      <point x="372" y="283" type="curve" smooth="yes"/>
      <point x="372" y="208"/>
      <point x="350" y="123"/>
      <point x="331" y="123" type="curve" smooth="yes"/>
      <point x="310" y="123"/>
      <point x="279" y="134"/>
      <point x="257" y="149" type="curve"/>
      <point x="284" y="244"/>
      <point x="337" y="347"/>
    </contour>
  </outline>
</glyph>
<glyph name="q" format="2">
  <advance width="506"/>
  <unicode hex="0071"/>
  <anchor x="146" y="0" name="bottom"/>
  <anchor x="253" y="463" name="top"/>
  <outline>
    <contour>
      <point x="279" y="47" type="line"/>
      <point x="252" y="-97" type="line" smooth="yes"/>
      <point x="243" y="-148"/>
      <point x="230" y="-157"/>
      <point x="166" y="-160" type="curve"/>
      <point x="150" y="-242" type="line"/>
      <point x="150" y="-242"/>
      <point x="247" y="-230"/>
      <point x="439" y="-230" type="curve"/>
      <point x="456" y="-149" type="line"/>
      <point x="453" y="-145" type="line"/>
      <point x="427" y="-146" type="line"/>
      <point x="410" y="-146"/>
      <point x="405" y="-139"/>
      <point x="405" y="-118" type="curve" smooth="yes"/>
      <point x="405" y="-7"/>
      <point x="507" y="475"/>
      <point x="507" y="475" type="curve"/>
      <point x="500" y="498" type="line"/>
      <point x="368" y="512" type="line"/>
      <point x="348" y="500" type="line"/>
      <point x="335" y="452" type="line"/>
      <point x="263" y="472" type="line"/>
      <point x="140" y="472"/>
      <point x="9" y="303"/>
      <point x="9" y="145" type="curve" smooth="yes"/>
      <point x="9" y="46"/>
      <point x="65" y="-12"/>
      <point x="160" y="-12" type="curve"/>
      <point x="203" y="19"/>
      <point x="239" y="64"/>
      <point x="291" y="155" type="curve"/>
      <point x="301" y="155" type="line"/>
    </contour>
    <contour>
      <point x="206" y="143" type="curve" smooth="yes"/>
      <point x="198" y="143"/>
      <point x="192" y="169"/>
      <point x="192" y="208" type="curve" smooth="yes"/>
      <point x="192" y="282"/>
      <point x="214" y="367"/>
      <point x="233" y="367" type="curve" smooth="yes"/>
      <point x="269" y="367"/>
      <point x="307" y="341"/>
      <point x="307" y="341" type="curve"/>
      <point x="279" y="244"/>
      <point x="228" y="143"/>
    </contour>
  </outline>
</glyph>
<glyph name="r" format="2">
  <advance width="416"/>
  <unicode hex="0072"/>
  <anchor x="109" y="0" name="bottom"/>
  <anchor x="247" y="472" name="top"/>
  <outline>
    <contour>
      <point x="29" y="16" type="curve"/>
      <point x="49" y="-7" type="line"/>
      <point x="125" y="-7"/>
      <point x="193" y="17"/>
      <point x="197" y="45" type="curve" smooth="yes"/>
      <point x="206" y="120" type="line"/>
      <point x="243" y="221"/>
      <point x="280" y="282"/>
      <point x="304" y="282" type="curve" smooth="yes"/>
      <point x="318" y="282"/>
      <point x="324" y="265"/>
      <point x="315" y="217" type="curve"/>
      <point x="386" y="217" type="line"/>
      <point x="386" y="217"/>
      <point x="431" y="375"/>
      <point x="438" y="450" type="curve" smooth="yes"/>
      <point x="433" y="463"/>
      <point x="419" y="476"/>
      <point x="408" y="482" type="curve"/>
      <point x="348" y="482"/>
      <point x="295" y="419"/>
      <point x="249" y="323" type="curve"/>
      <point x="242" y="322" type="line"/>
      <point x="251" y="385"/>
      <point x="270" y="452"/>
      <point x="270" y="452" type="curve"/>
      <point x="256" y="473" type="line"/>
      <point x="256" y="473"/>
      <point x="122" y="461"/>
      <point x="33" y="461" type="curve"/>
      <point x="21" y="379" type="line"/>
      <point x="49" y="379" type="line" smooth="yes"/>
      <point x="72" y="379"/>
      <point x="82" y="367"/>
      <point x="82" y="349" type="curve" smooth="yes"/>
      <point x="82" y="309"/>
      <point x="29" y="16"/>
    </contour>
  </outline>
</glyph>
<glyph name="x" format="2">
  <advance width="502"/>
  <unicode hex="0078"/>
  <anchor x="174" y="0" name="bottom"/>
  <anchor x="191" y="463" name="top"/>
  <outline>
    <contour>
      <point x="436" y="484" type="curve" smooth="yes"/>
      <point x="383" y="484"/>
      <point x="344" y="447"/>
      <point x="302" y="358" type="curve"/>
      <point x="270" y="459"/>
      <point x="250" y="484"/>
      <point x="200" y="484" type="curve" smooth="yes"/>
      <point x="146" y="484"/>
      <point x="97" y="454"/>
      <point x="19" y="373" type="curve"/>
      <point x="45" y="316" type="line"/>
      <point x="56" y="316" type="line"/>
      <point x="79" y="341"/>
      <point x="94" y="352"/>
      <point x="105" y="352" type="curve" smooth="yes"/>
      <point x="125" y="352"/>
      <point x="139" y="321"/>
      <point x="174" y="199" type="curve"/>
      <point x="152" y="143"/>
      <point x="134" y="121"/>
      <point x="110" y="121" type="curve" smooth="yes"/>
      <point x="89" y="121"/>
      <point x="76" y="138"/>
      <point x="68" y="176" type="curve"/>
      <point x="42" y="176" type="line"/>
      <point x="16" y="127"/>
      <point x="-7" y="76"/>
      <point x="-25" y="27" type="curve"/>
      <point x="1" y="2"/>
      <point x="33" y="-12"/>
      <point x="66" y="-12" type="curve" smooth="yes"/>
      <point x="118" y="-12"/>
      <point x="155" y="23"/>
      <point x="198" y="114" type="curve"/>
      <point x="229" y="14"/>
      <point x="250" y="-12"/>
      <point x="300" y="-12" type="curve" smooth="yes"/>
      <point x="355" y="-12"/>
      <point x="402" y="17"/>
      <point x="482" y="99" type="curve"/>
      <point x="456" y="156" type="line"/>
      <point x="445" y="156" type="line"/>
      <point x="417" y="127"/>
      <point x="407" y="120"/>
      <point x="395" y="120" type="curve" smooth="yes"/>
      <point x="375" y="120"/>
      <point x="360" y="153"/>
      <point x="326" y="273" type="curve"/>
      <point x="349" y="329"/>
      <point x="367" y="351"/>
      <point x="391" y="351" type="curve" smooth="yes"/>
      <point x="412" y="351"/>
      <point x="424" y="335"/>
      <point x="433" y="296" type="curve"/>
      <point x="459" y="296" type="line"/>
      <point x="482" y="340"/>
      <point x="504" y="389"/>
      <point x="526" y="445" type="curve"/>
      <point x="498" y="471"/>
      <point x="468" y="484"/>
    </contour>
  </outline>
</glyph>
<glyph name="braceright" format="2">
  <advance width="326"/>
  <unicode hex="007D"/>
  <outline>
    <contour>
      <point x="283" y="235" type="curve"/>
      <point x="296" y="311" type="line"/>
      <point x="257" y="318"/>
      <point x="236" y="342"/>
      <point x="236" y="376" type="curve" smooth="yes"/>
      <point x="236" y="419"/>
      <point x="309" y="493"/>
      <point x="309" y="553" type="curve" smooth="yes"/>
      <point x="309" y="613"/>
      <point x="253" y="659"/>
      <point x="176" y="659" type="curve" smooth="yes"/>
      <point x="105" y="659"/>
      <point x="66" y="636"/>
      <point x="66" y="636" type="curve"/>
      <point x="42" y="553" type="line"/>
      <point x="53" y="540" type="line"/>
      <point x="53" y="540"/>
      <point x="68" y="545"/>
      <point x="83" y="545" type="curve" smooth="yes"/>
      <point x="112" y="545"/>
      <point x="130" y="526"/>
      <point x="130" y="496" type="curve" smooth="yes"/>
      <point x="130" y="457"/>
      <point x="85" y="385"/>
      <point x="85" y="340" type="curve" smooth="yes"/>
      <point x="85" y="303"/>
      <point x="105" y="275"/>
      <point x="146" y="261" type="curve"/>
      <point x="145" y="256" type="line"/>
      <point x="94" y="242"/>
      <point x="63" y="207"/>
      <point x="63" y="159" type="curve" smooth="yes"/>
      <point x="63" y="125"/>
      <point x="74" y="73"/>
      <point x="74" y="43" type="curve" smooth="yes"/>
      <point x="74" y="5"/>
      <point x="53" y="-17"/>
      <point x="19" y="-17" type="curve" smooth="yes"/>
      <point x="5" y="-17"/>
      <point x="-14" y="-12"/>
      <point x="-14" y="-12" type="curve"/>
      <point x="-42" y="-95" type="line"/>
      <point x="-34" y="-111" type="line"/>
      <point x="-34" y="-111"/>
      <point x="13" y="-123"/>
      <point x="54" y="-123" type="curve" smooth="yes"/>
      <point x="163" y="-123"/>
      <point x="242" y="-67"/>
      <point x="242" y="13" type="curve" smooth="yes"/>
      <point x="242" y="61"/>
      <point x="210" y="125"/>
      <point x="210" y="164" type="curve" smooth="yes"/>
      <point x="210" y="196"/>
      <point x="239" y="224"/>
    </contour>
  </outline>
</glyph>
<glyph name="sterling" format="2">
  <advance width="500"/>
  <unicode hex="00A3"/>
  <outline>
    <contour>
      <point x="464" y="216" type="curve"/>
      <point x="433" y="216" type="line"/>
      <point x="428" y="171"/>
      <point x="403" y="141"/>
      <point x="373" y="141" type="curve" smooth="yes"/>
      <point x="346" y="141"/>
      <point x="296" y="158"/>
      <point x="276" y="158" type="curve"/>
      <point x="216" y="144" type="line"/>
      <point x="233" y="160"/>
      <point x="250" y="202"/>
      <point x="254" y="236" type="curve"/>
      <point x="260" y="274" type="line"/>
      <point x="336" y="274"/>
      <point x="390" y="271"/>
      <point x="390" y="271" type="curve"/>
      <point x="411" y="356" type="line"/>
      <point x="407" y="363" type="line"/>
      <point x="407" y="363"/>
      <point x="349" y="360"/>
      <point x="273" y="360" type="curve"/>
      <point x="282" y="417" type="line" smooth="yes"/>
      <point x="288" y="465"/>
      <point x="301" y="481"/>
      <point x="334" y="481" type="curve" smooth="yes"/>
      <point x="363" y="481"/>
      <point x="390" y="470"/>
      <point x="440" y="438" type="curve"/>
      <point x="459" y="441" type="line"/>
      <point x="518" y="572" type="line"/>
      <point x="514" y="583" type="line"/>
      <point x="490" y="592"/>
      <point x="441" y="598"/>
      <point x="396" y="598" type="curve" smooth="yes"/>
      <point x="270" y="598"/>
      <point x="123" y="490"/>
      <point x="110" y="387" type="curve" smooth="yes"/>
      <point x="107" y="360" type="line"/>
      <point x="45" y="351" type="line"/>
      <point x="28" y="281" type="line"/>
      <point x="31" y="275" type="line"/>
      <point x="81" y="272"/>
      <point x="93" y="266"/>
      <point x="92" y="235" type="curve"/>
      <point x="87" y="201" type="line" smooth="yes"/>
      <point x="82" y="158"/>
      <point x="53" y="124"/>
      <point x="-2" y="96" type="curve"/>
      <point x="12" y="5" type="line"/>
      <point x="26" y="-1" type="line"/>
      <point x="80" y="29"/>
      <point x="123" y="42"/>
      <point x="167" y="42" type="curve" smooth="yes"/>
      <point x="227" y="42"/>
      <point x="288" y="-12"/>
      <point x="349" y="-12" type="curve" smooth="yes"/>
      <point x="424" y="-12"/>
      <point x="483" y="44"/>
      <point x="483" y="125" type="curve" smooth="yes"/>
      <point x="483" y="159"/>
      <point x="476" y="199"/>
    </contour>
  </outline>
</glyph>
<glyph name="brokenbar" format="2">
  <advance width="280"/>
  <unicode hex="00A6"/>
  <outline>
    <contour>
      <point x="175" y="167" type="line"/>
      <point x="62" y="150" type="line"/>
      <point x="38" y="-34"/>
      <point x="12" y="-253"/>
      <point x="12" y="-253" type="curve"/>
      <point x="24" y="-269" type="line"/>
      <point x="142" y="-258" type="line"/>
      <point x="142" y="-258"/>
      <point x="168" y="-37"/>
      <point x="191" y="150" type="curve"/>
    </contour>
    <contour>
      <point x="101" y="358" type="line"/>
      <point x="219" y="374" type="line"/>
      <point x="241" y="548"/>
      <point x="276" y="791"/>
      <point x="276" y="791" type="curve"/>
      <point x="257" y="807" type="line"/>
      <point x="143" y="796" type="line"/>
      <point x="125" y="654"/>
      <point x="107" y="511"/>
      <point x="89" y="369" type="curve"/>
    </contour>
  </outline>
</glyph>
<glyph name="ordfeminine" format="2">
  <advance width="390"/>
  <unicode hex="00AA"/>
  <anchor x="253" y="0" name="bottom"/>
  <anchor x="410" y="41" name="ogonek"/>
  <anchor x="259" y="474" name="top"/>
  <outline>
    <contour>
      <point x="321" y="439" type="curve"/>
      <point x="318" y="441" type="line"/>
      <point x="331" y="521"/>
      <point x="356" y="628"/>
      <point x="356" y="628" type="curve"/>
      <point x="350" y="645" type="line"/>
      <point x="249" y="653" type="line"/>
      <point x="234" y="644" type="line"/>
      <point x="231" y="631" type="line"/>
      <point x="184" y="644" type="line"/>
      <point x="98" y="644"/>
      <point x="7" y="532"/>
      <point x="7" y="427" type="curve" smooth="yes"/>
      <point x="7" y="359"/>
      <point x="49" y="319"/>
      <point x="118" y="319" type="curve"/>
      <point x="145" y="337"/>
      <point x="169" y="366"/>
      <point x="205" y="427" type="curve"/>
      <point x="212" y="427" type="line"/>
      <point x="197" y="366"/>
      <point x="197" y="361"/>
      <point x="197" y="354" type="curve" smooth="yes"/>
      <point x="197" y="330"/>
      <point x="209" y="319"/>
      <point x="233" y="319" type="curve" smooth="yes"/>
      <point x="276" y="319"/>
      <point x="307" y="341"/>
      <point x="385" y="427" type="curve"/>
      <point x="371" y="462" type="line"/>
      <point x="354" y="465" type="line"/>
      <point x="333" y="445"/>
      <point x="324" y="439"/>
    </contour>
    <contour>
      <point x="152" y="430" type="curve" smooth="yes"/>
      <point x="147" y="430"/>
      <point x="143" y="446"/>
      <point x="143" y="471" type="curve" smooth="yes"/>
      <point x="143" y="516"/>
      <point x="155" y="569"/>
      <point x="164" y="569" type="curve" smooth="yes"/>
      <point x="178" y="569"/>
      <point x="194" y="564"/>
      <point x="212" y="553" type="curve"/>
      <point x="198" y="495"/>
      <point x="166" y="430"/>
    </contour>
  </outline>
</glyph>
<glyph name="logicalnot" format="2">
  <advance width="491"/>
  <unicode hex="00AC"/>
  <outline>
    <contour>
      <point x="460" y="344" type="curve"/>
      <point x="455" y="359" type="line"/>
      <point x="455" y="359"/>
      <point x="334" y="353"/>
      <point x="268" y="353" type="curve" smooth="yes"/>
      <point x="182" y="353"/>
      <point x="47" y="354"/>
      <point x="47" y="354" type="curve"/>
      <point x="12" y="219" type="line"/>
      <point x="20" y="206" type="line"/>
      <point x="20" y="206"/>
      <point x="151" y="207"/>
      <point x="239" y="207" type="curve" smooth="yes"/>
      <point x="284" y="207" type="line"/>
      <point x="271" y="111"/>
      <point x="260" y="20"/>
      <point x="260" y="20" type="curve"/>
      <point x="271" y="11" type="line"/>
      <point x="409" y="29" type="line"/>
      <point x="409" y="29"/>
      <point x="416" y="94"/>
      <point x="425" y="164" type="curve" smooth="yes"/>
      <point x="438" y="266"/>
      <point x="460" y="344"/>
    </contour>
  </outline>
</glyph>
<glyph name="twosuperior" format="2">
  <advance width="369"/>
  <unicode hex="00B2"/>
  <outline>
    <contour>
      <point x="0" y="396" type="line"/>
      <point x="-2" y="323" type="line"/>
      <point x="67" y="327" type="line"/>
      <point x="139" y="327"/>
      <point x="297" y="319"/>
      <point x="297" y="319" type="curve"/>
      <point x="311" y="332" type="line"/>
      <point x="321" y="393"/>
      <point x="347" y="486"/>
      <point x="347" y="486" type="curve"/>
      <point x="260" y="480" type="line"/>
      <point x="250" y="435"/>
      <point x="235" y="419"/>
      <point x="204" y="419" type="curve" smooth="yes"/>
      <point x="178" y="419" type="line"/>
      <point x="175" y="425" type="line"/>
      <point x="283" y="522"/>
      <point x="318" y="574"/>
      <point x="318" y="636" type="curve" smooth="yes"/>
      <point x="318" y="691"/>
      <point x="270" y="728"/>
      <point x="197" y="728" type="curve" smooth="yes"/>
      <point x="146" y="728"/>
      <point x="86" y="699"/>
      <point x="39" y="652" type="curve"/>
      <point x="47" y="566" type="line"/>
      <point x="61" y="566" type="line"/>
      <point x="90" y="596"/>
      <point x="118" y="610"/>
      <point x="141" y="610" type="curve" smooth="yes"/>
      <point x="160" y="610"/>
      <point x="169" y="603"/>
      <point x="169" y="585" type="curve" smooth="yes"/>
      <point x="169" y="567"/>
      <point x="147" y="535"/>
      <point x="104" y="493" type="curve" smooth="yes"/>
    </contour>
  </outline>
</glyph>
<glyph name="paragraph" format="2">
  <advance width="557"/>
  <unicode hex="00B6"/>
  <outline>
    <contour>
      <point x="346" y="545" type="curve" smooth="yes"/>
      <point x="292" y="106" type="line" smooth="yes"/>
      <point x="284" y="38"/>
      <point x="259" y="12"/>
      <point x="206" y="12" type="curve" smooth="yes"/>
      <point x="156" y="12"/>
      <point x="125" y="59"/>
      <point x="125" y="135" type="curve"/>
      <point x="108" y="135" type="line"/>
      <point x="76" y="97"/>
      <point x="46" y="34"/>
      <point x="46" y="-1" type="curve" smooth="yes"/>
      <point x="46" y="-50"/>
      <point x="105" y="-94"/>
      <point x="177" y="-94" type="curve" smooth="yes"/>
      <point x="320" y="-94"/>
      <point x="475" y="42"/>
      <point x="493" y="190" type="curve" smooth="yes"/>
      <point x="504" y="281"/>
      <point x="535" y="473"/>
      <point x="545" y="516" type="curve" smooth="yes"/>
      <point x="552" y="547"/>
      <point x="556" y="552"/>
      <point x="592" y="562" type="curve"/>
      <point x="595" y="566" type="line"/>
      <point x="611" y="650" type="line"/>
      <point x="611" y="650"/>
      <point x="479" y="647"/>
      <point x="450" y="647" type="curve" smooth="yes"/>
      <point x="404" y="647"/>
      <point x="342" y="652"/>
      <point x="292" y="652" type="curve" smooth="yes"/>
      <point x="142" y="652"/>
      <point x="24" y="543"/>
      <point x="24" y="398" type="curve" smooth="yes"/>
      <point x="24" y="276"/>
      <point x="120" y="197"/>
      <point x="279" y="197" type="curve"/>
      <point x="283" y="232" type="line"/>
      <point x="257" y="277"/>
      <point x="245" y="322"/>
      <point x="245" y="376" type="curve" smooth="yes"/>
      <point x="245" y="479"/>
      <point x="273" y="560"/>
      <point x="321" y="560" type="curve" smooth="yes"/>
      <point x="343" y="560"/>
      <point x="348" y="557"/>
    </contour>
  </outline>
</glyph>
<glyph name="onesuperior" format="2">
  <advance width="276"/>
  <unicode hex="00B9"/>
  <outline>
    <contour>
      <point x="228" y="649" type="curve" smooth="yes"/>
      <point x="237" y="672"/>
      <point x="247" y="686"/>
      <point x="262" y="696" type="curve"/>
      <point x="253" y="728" type="line"/>
      <point x="253" y="728"/>
      <point x="190" y="719"/>
      <point x="127" y="713" type="curve" smooth="yes"/>
      <point x="100" y="710"/>
      <point x="71" y="706"/>
      <point x="36" y="703" type="curve"/>
      <point x="23" y="650" type="line"/>
      <point x="29" y="643" type="line"/>
      <point x="29" y="643"/>
      <point x="48" y="644"/>
      <point x="61" y="644" type="curve" smooth="yes"/>
      <point x="87" y="644"/>
      <point x="90" y="637"/>
      <point x="86" y="606" type="curve" smooth="yes"/>
      <point x="64" y="422" type="line" smooth="yes"/>
      <point x="61" y="396"/>
      <point x="41" y="382"/>
      <point x="-1" y="378" type="curve"/>
      <point x="-14" y="320" type="line"/>
      <point x="-14" y="320"/>
      <point x="66" y="327"/>
      <point x="119" y="327" type="curve" smooth="yes"/>
      <point x="156" y="327"/>
      <point x="225" y="323"/>
      <point x="225" y="323" type="curve"/>
      <point x="243" y="387" type="line"/>
      <point x="241" y="391" type="line"/>
      <point x="241" y="391"/>
      <point x="228" y="390"/>
      <point x="212" y="390" type="curve" smooth="yes"/>
      <point x="198" y="390"/>
      <point x="192" y="400"/>
      <point x="192" y="422" type="curve" smooth="yes"/>
      <point x="192" y="453"/>
      <point x="220" y="629"/>
    </contour>
  </outline>
</glyph>
<glyph name="questiondown" format="2">
  <advance width="371"/>
  <unicode hex="00BF"/>
  <outline>
    <contour>
      <point x="288" y="102" type="line"/>
      <point x="281" y="235" type="line"/>
      <point x="267" y="243" type="line"/>
      <point x="147" y="223" type="line"/>
      <point x="137" y="209" type="line"/>
      <point x="135" y="140" type="line"/>
      <point x="132" y="134" type="line"/>
      <point x="-11" y="46"/>
      <point x="-51" y="-2"/>
      <point x="-51" y="-71" type="curve" smooth="yes"/>
      <point x="-51" y="-165"/>
      <point x="60" y="-237"/>
      <point x="218" y="-241" type="curve"/>
      <point x="236" y="-232" type="line"/>
      <point x="291" y="-114" type="line"/>
      <point x="279" y="-96" type="line"/>
      <point x="184" y="-92"/>
      <point x="132" y="-66"/>
      <point x="132" y="-23" type="curve" smooth="yes"/>
      <point x="132" y="1"/>
      <point x="150" y="22"/>
      <point x="185" y="40" type="curve" smooth="yes"/>
      <point x="283" y="87" type="line"/>
    </contour>
    <contour>
      <point x="244" y="484" type="curve" smooth="yes"/>
      <point x="176" y="484"/>
      <point x="130" y="437"/>
      <point x="130" y="366" type="curve" smooth="yes"/>
      <point x="130" y="315"/>
      <point x="159" y="285"/>
      <point x="212" y="285" type="curve" smooth="yes"/>
      <point x="281" y="285"/>
      <point x="327" y="332"/>
      <point x="327" y="404" type="curve" smooth="yes"/>
      <point x="327" y="455"/>
      <point x="298" y="484"/>
    </contour>
  </outline>
</glyph>
<glyph name="AE" format="2">
  <advance width="916"/>
  <unicode hex="00C6"/>
  <anchor x="499" y="647" name="top"/>
  <outline>
    <contour>
      <point x="312" y="87" type="curve"/>
      <point x="296" y="3" type="line"/>
      <point x="302" y="-6" type="line"/>
      <point x="302" y="-6"/>
      <point x="387" y="-1"/>
      <point x="470" y="0" type="curve" smooth="yes"/>
      <point x="664" y="0"/>
      <point x="824" y="-7"/>
      <point x="824" y="-7" type="curve"/>
      <point x="841" y="9" type="line"/>
      <point x="864" y="118"/>
      <point x="894" y="215"/>
      <point x="894" y="215" type="curve"/>
      <point x="883" y="230" type="line"/>
      <point x="754" y="221" type="line"/>
      <point x="731" y="131"/>
      <point x="714" y="114"/>
      <point x="643" y="114" type="curve" smooth="yes"/>
      <point x="615" y="114"/>
      <point x="600" y="136"/>
      <point x="599" y="181" type="curve" smooth="yes"/>
      <point x="598" y="254" type="line"/>
      <point x="660" y="266" type="line"/>
      <point x="756" y="278" type="line"/>
      <point x="781" y="394" type="line"/>
      <point x="766" y="411" type="line"/>
      <point x="665" y="385" type="line"/>
      <point x="595" y="372" type="line"/>
      <point x="589" y="503" type="line"/>
      <point x="589" y="519"/>
      <point x="599" y="527"/>
      <point x="623" y="527" type="curve" smooth="yes"/>
      <point x="689" y="527"/>
      <point x="709" y="519"/>
      <point x="709" y="484" type="curve" smooth="yes"/>
      <point x="709" y="467"/>
      <point x="702" y="435"/>
      <point x="702" y="435" type="curve"/>
      <point x="841" y="444" type="line"/>
      <point x="858" y="538"/>
      <point x="888" y="643"/>
      <point x="888" y="643" type="curve"/>
      <point x="877" y="659" type="line"/>
      <point x="841" y="654"/>
      <point x="681" y="648"/>
      <point x="538" y="647" type="curve" smooth="yes"/>
      <point x="371" y="647"/>
      <point x="208" y="650"/>
      <point x="208" y="650" type="curve"/>
      <point x="189" y="571" type="line"/>
      <point x="200" y="557" type="line"/>
      <point x="200" y="557"/>
      <point x="214" y="559"/>
      <point x="225" y="559" type="curve" smooth="yes"/>
      <point x="240" y="559"/>
      <point x="246" y="552"/>
      <point x="247" y="531" type="curve"/>
      <point x="46" y="140" type="line" smooth="yes"/>
      <point x="30" y="109"/>
      <point x="10" y="91"/>
      <point x="-16" y="85" type="curve"/>
      <point x="-24" y="-2" type="line"/>
      <point x="-24" y="-2"/>
      <point x="12" y="-1"/>
      <point x="54" y="-1" type="curve" smooth="yes"/>
      <point x="100" y="-1"/>
      <point x="246" y="-3"/>
      <point x="248" y="-4" type="curve"/>
      <point x="265" y="79" type="line"/>
      <point x="262" y="89" type="line" smooth="yes"/>
      <point x="221" y="89"/>
      <point x="210" y="88"/>
      <point x="210" y="101" type="curve" smooth="yes"/>
      <point x="210" y="107"/>
      <point x="214" y="116"/>
      <point x="219" y="130" type="curve" smooth="yes"/>
      <point x="238" y="183" type="line"/>
      <point x="315" y="206" type="line"/>
      <point x="388" y="219" type="line"/>
      <point x="385" y="162" type="line" smooth="yes"/>
      <point x="385" y="147"/>
      <point x="383" y="140"/>
      <point x="382" y="130" type="curve" smooth="yes"/>
      <point x="379" y="101"/>
      <point x="366" y="93"/>
    </contour>
    <contour>
      <point x="344" y="328" type="line"/>
      <point x="304" y="324" type="line"/>
      <point x="375" y="478" type="line"/>
      <point x="397" y="478" type="line"/>
      <point x="393" y="337" type="line"/>
    </contour>
  </outline>
</glyph>
<glyph name="germandbls" format="2">
  <advance width="676"/>
  <unicode hex="00DF"/>
  <outline>
    <contour>
      <point x="6" y="384" type="line"/>
      <point x="9" y="379" type="line"/>
      <point x="83" y="379" type="line"/>
      <point x="94" y="369" type="line"/>
      <point x="69" y="8" type="line" smooth="yes"/>
      <point x="68" y="-3"/>
      <point x="69" y="-27"/>
      <point x="69" y="-46" type="curve" smooth="yes"/>
      <point x="69" y="-100"/>
      <point x="42" y="-127"/>
      <point x="4" y="-127" type="curve" smooth="yes"/>
      <point x="-44" y="-127"/>
      <point x="-63" y="-106"/>
      <point x="-68" y="-48" type="curve"/>
      <point x="-88" y="-48" type="line"/>
      <point x="-111" y="-76"/>
      <point x="-146" y="-141"/>
      <point x="-158" y="-180" type="curve"/>
      <point x="-145" y="-215"/>
      <point x="-88" y="-242"/>
      <point x="-24" y="-242" type="curve" smooth="yes"/>
      <point x="78" y="-242"/>
      <point x="206" y="-119"/>
      <point x="218" y="-6" type="curve" smooth="yes"/>
      <point x="278" y="541" type="line" smooth="yes"/>
      <point x="287" y="603"/>
      <point x="317" y="625"/>
      <point x="363" y="625" type="curve" smooth="yes"/>
      <point x="406" y="625"/>
      <point x="419" y="590"/>
      <point x="419" y="555" type="curve" smooth="yes"/>
      <point x="419" y="477"/>
      <point x="312" y="447"/>
      <point x="312" y="342" type="curve" smooth="yes"/>
      <point x="312" y="212"/>
      <point x="481" y="215"/>
      <point x="481" y="148" type="curve" smooth="yes"/>
      <point x="481" y="123"/>
      <point x="465" y="106"/>
      <point x="438" y="106" type="curve" smooth="yes"/>
      <point x="403" y="106"/>
      <point x="377" y="141"/>
      <point x="378" y="188" type="curve"/>
      <point x="351" y="190" type="line"/>
      <point x="325" y="159"/>
      <point x="294" y="93"/>
      <point x="286" y="53" type="curve"/>
      <point x="298" y="16"/>
      <point x="359" y="-12"/>
      <point x="428" y="-12" type="curve" smooth="yes"/>
      <point x="565" y="-12"/>
      <point x="670" y="70"/>
      <point x="670" y="183" type="curve" smooth="yes"/>
      <point x="670" y="327"/>
      <point x="493" y="325"/>
      <point x="493" y="395" type="curve" smooth="yes"/>
      <point x="493" y="459"/>
      <point x="599" y="494"/>
      <point x="599" y="598" type="curve" smooth="yes"/>
      <point x="599" y="688"/>
      <point x="516" y="742"/>
      <point x="397" y="742" type="curve" smooth="yes"/>
      <point x="264" y="742"/>
      <point x="119" y="626"/>
      <point x="107" y="511" type="curve" smooth="yes"/>
      <point x="102" y="463" type="line"/>
      <point x="14" y="450" type="line"/>
    </contour>
  </outline>
</glyph>
<glyph name="divide" format="2">
  <advance width="491"/>
  <unicode hex="00F7"/>
  <outline>
    <contour>
      <point x="485" y="314" type="line"/>
      <point x="480" y="329" type="line"/>
      <point x="480" y="329"/>
      <point x="342" y="323"/>
      <point x="264" y="323" type="curve" smooth="yes"/>
      <point x="178" y="323"/>
      <point x="43" y="324"/>
      <point x="43" y="324" type="curve"/>
      <point x="9" y="189" type="line"/>
      <point x="16" y="176" type="line"/>
      <point x="16" y="176"/>
      <point x="148" y="177"/>
      <point x="235" y="177" type="curve" smooth="yes"/>
      <point x="455" y="178" type="line"/>
    </contour>
    <contour>
      <point x="207" y="-17" type="curve" smooth="yes"/>
      <point x="266" y="-17"/>
      <point x="304" y="23"/>
      <point x="304" y="85" type="curve" smooth="yes"/>
      <point x="304" y="128"/>
      <point x="280" y="154"/>
      <point x="235" y="154" type="curve" smooth="yes"/>
      <point x="175" y="154"/>
      <point x="137" y="114"/>
      <point x="137" y="52" type="curve" smooth="yes"/>
      <point x="137" y="9"/>
      <point x="161" y="-17"/>
    </contour>
    <contour>
      <point x="251" y="344" type="curve" smooth="yes"/>
      <point x="310" y="344"/>
      <point x="349" y="384"/>
      <point x="349" y="446" type="curve" smooth="yes"/>
      <point x="349" y="489"/>
      <point x="324" y="515"/>
      <point x="280" y="515" type="curve" smooth="yes"/>
      <point x="219" y="515"/>
      <point x="181" y="475"/>
      <point x="181" y="413" type="curve" smooth="yes"/>
      <point x="181" y="370"/>
      <point x="205" y="344"/>
    </contour>
  </outline>
</glyph>
<glyph name="iogonek" format="2">
  <advance width="304"/>
  <unicode hex="012F"/>
  <outline>
    <contour>
      <point x="254" y="473" type="line"/>
      <point x="254" y="473"/>
      <point x="120" y="461"/>
      <point x="31" y="461" type="curve"/>
      <point x="19" y="379" type="line"/>
      <point x="47" y="379" type="line" smooth="yes"/>
      <point x="70" y="379"/>
      <point x="80" y="369"/>
      <point x="80" y="346" type="curve" smooth="yes"/>
      <point x="80" y="317"/>
      <point x="35" y="55"/>
      <point x="35" y="55" type="curve"/>
      <point x="35" y="10"/>
      <point x="57" y="-12"/>
      <point x="101" y="-12" type="curve" smooth="yes"/>
      <point x="145" y="-12"/>
      <point x="178" y="17"/>
      <point x="311" y="143" type="curve"/>
      <point x="291" y="191" type="line"/>
      <point x="268" y="195" type="line"/>
      <point x="225" y="157"/>
      <point x="222" y="154"/>
      <point x="216" y="154" type="curve"/>
      <point x="212" y="157" type="line"/>
      <point x="233" y="308"/>
      <point x="270" y="453"/>
      <point x="270" y="453" type="curve"/>
    </contour>
    <contour>
      <point x="311" y="143" type="curve"/>
      <point x="259" y="136" type="line"/>
      <point x="66" y="-40"/>
      <point x="15" y="-95"/>
      <point x="15" y="-151" type="curve" smooth="yes"/>
      <point x="15" y="-208"/>
      <point x="62" y="-241"/>
      <point x="142" y="-241" type="curve"/>
      <point x="167" y="-232"/>
      <point x="211" y="-203"/>
      <point x="256" y="-167" type="curve"/>
      <point x="228" y="-120" type="line"/>
      <point x="205" y="-135"/>
      <point x="184" y="-143"/>
      <point x="169" y="-143" type="curve" smooth="yes"/>
      <point x="154" y="-143"/>
      <point x="144" y="-134"/>
      <point x="144" y="-117" type="curve" smooth="yes"/>
      <point x="144" y="-71"/>
      <point x="200" y="17"/>
    </contour>
    <contour>
      <point x="220" y="742" type="curve" smooth="yes"/>
      <point x="150" y="742"/>
      <point x="104" y="698"/>
      <point x="104" y="625" type="curve" smooth="yes"/>
      <point x="104" y="576"/>
      <point x="131" y="547"/>
      <point x="182" y="547" type="curve" smooth="yes"/>
      <point x="250" y="547"/>
      <point x="296" y="593"/>
      <point x="296" y="667" type="curve" smooth="yes"/>
      <point x="296" y="716"/>
      <point x="269" y="742"/>
    </contour>
  </outline>
</glyph>
<glyph name="lslash" format="2">
  <advance width="323"/>
  <unicode hex="0142"/>
  <outline>
    <contour>
      <point x="190" y="322" type="line"/>
      <point x="190" y="300" type="line"/>
      <point x="347" y="379" type="line"/>
      <point x="316" y="472" type="line"/>
      <point x="307" y="476" type="line"/>
      <point x="190" y="417" type="line"/>
      <point x="190" y="439" type="line"/>
      <point x="-12" y="338" type="line"/>
      <point x="19" y="244" type="line"/>
      <point x="29" y="242" type="line"/>
    </contour>
    <component base="l" xOffset="16"/>
  </outline>
</glyph>
<glyph name="Eng" format="2">
  <advance width="715"/>
  <unicode hex="014A"/>
  <outline>
    <contour>
      <point x="215" y="647" type="curve" smooth="yes"/>
      <point x="161" y="647"/>
      <point x="71" y="652"/>
      <point x="71" y="652" type="curve"/>
      <point x="56" y="575" type="line"/>
      <point x="66" y="561" type="line"/>
      <point x="125" y="554"/>
      <point x="136" y="543"/>
      <point x="131" y="499" type="curve" smooth="yes"/>
      <point x="76" y="143" type="line" smooth="yes"/>
      <point x="70" y="102"/>
      <point x="52" y="83"/>
      <point x="13" y="78" type="curve"/>
      <point x="-8" y="-8" type="line"/>
      <point x="-8" y="-8"/>
      <point x="73" y="0"/>
      <point x="111" y="0" type="curve" smooth="yes"/>
      <point x="190" y="0"/>
      <point x="289" y="-4"/>
      <point x="289" y="-4" type="curve"/>
      <point x="309" y="78" type="line"/>
      <point x="302" y="86" type="line"/>
      <point x="302" y="86"/>
      <point x="279" y="83"/>
      <point x="268" y="83" type="curve" smooth="yes"/>
      <point x="240" y="83"/>
      <point x="232" y="96"/>
      <point x="236" y="133" type="curve" smooth="yes"/>
      <point x="258" y="331" type="line"/>
      <point x="272" y="331" type="line"/>
      <point x="272" y="331"/>
      <point x="343" y="188"/>
      <point x="427" y="0" type="curve"/>
      <point x="407" y="-46"/>
      <point x="372" y="-82"/>
      <point x="321" y="-108" type="curve"/>
      <point x="317" y="-123" type="line"/>
      <point x="353" y="-172" type="line"/>
      <point x="522" y="-128"/>
      <point x="604" y="-51"/>
      <point x="626" y="85" type="curve" smooth="yes"/>
      <point x="687" y="501" type="line" smooth="yes"/>
      <point x="693" y="542"/>
      <point x="709" y="558"/>
      <point x="752" y="564" type="curve"/>
      <point x="767" y="651" type="line"/>
      <point x="767" y="651"/>
      <point x="681" y="648"/>
      <point x="636" y="647" type="curve" smooth="yes"/>
      <point x="607" y="647"/>
      <point x="474" y="651"/>
      <point x="474" y="651" type="curve"/>
      <point x="460" y="572" type="line"/>
      <point x="463" y="562" type="line"/>
      <point x="463" y="562"/>
      <point x="487" y="563"/>
      <point x="493" y="563" type="curve" smooth="yes"/>
      <point x="517" y="563"/>
      <point x="524" y="553"/>
      <point x="520" y="520" type="curve" smooth="yes"/>
      <point x="499" y="318" type="line"/>
      <point x="485" y="318" type="line" smooth="yes"/>
      <point x="485" y="318"/>
      <point x="403" y="484"/>
      <point x="335" y="651" type="curve"/>
      <point x="335" y="651"/>
      <point x="266" y="647"/>
    </contour>
  </outline>
</glyph>
<glyph name="florin" format="2">
  <advance width="433"/>
  <unicode hex="0192"/>
  <outline>
    <contour>
      <point x="139" y="251" type="curve" smooth="yes"/>
      <point x="140" y="46" type="line"/>
      <point x="140" y="-30"/>
      <point x="127" y="-58"/>
      <point x="92" y="-58" type="curve" smooth="yes"/>
      <point x="62" y="-58"/>
      <point x="39" y="-32"/>
      <point x="34" y="5" type="curve" smooth="yes"/>
      <point x="16" y="5" type="line" smooth="yes"/>
      <point x="-3" y="-18"/>
      <point x="-28" y="-87"/>
      <point x="-28" y="-114" type="curve" smooth="yes"/>
      <point x="-28" y="-137"/>
      <point x="25" y="-164"/>
      <point x="69" y="-164" type="curve" smooth="yes"/>
      <point x="204" y="-164"/>
      <point x="288" y="-29"/>
      <point x="295" y="99" type="curve" smooth="yes"/>
      <point x="304" y="292" type="line"/>
      <point x="418" y="292" type="line"/>
      <point x="428" y="361" type="line"/>
      <point x="423" y="369" type="line"/>
      <point x="309" y="369" type="line"/>
      <point x="313" y="412" type="line" smooth="yes"/>
      <point x="317" y="468"/>
      <point x="332" y="490"/>
      <point x="371" y="490" type="curve" smooth="yes"/>
      <point x="394" y="490"/>
      <point x="412" y="480"/>
      <point x="447" y="450" type="curve" smooth="yes"/>
      <point x="465" y="453" type="line" smooth="yes"/>
      <point x="479" y="475"/>
      <point x="505" y="555"/>
      <point x="505" y="575" type="curve" smooth="yes"/>
      <point x="505" y="587"/>
      <point x="461" y="598"/>
      <point x="411" y="598" type="curve" smooth="yes"/>
      <point x="279" y="598"/>
      <point x="142" y="483"/>
      <point x="142" y="384" type="curve" smooth="yes"/>
      <point x="142" y="370" type="line"/>
      <point x="59" y="357" type="line"/>
      <point x="51" y="298" type="line"/>
      <point x="54" y="292" type="line" smooth="yes"/>
      <point x="119" y="292"/>
      <point x="137" y="283"/>
    </contour>
  </outline>
</glyph>
<glyph name="Gstroke" format="2">
  <advance width="635"/>
  <unicode hex="01E4"/>
  <outline>
    <contour>
      <point x="279" y="-11" type="curve" smooth="yes"/>
      <point x="370" y="-11"/>
      <point x="471" y="3"/>
      <point x="519" y="22" type="curve"/>
      <point x="533" y="38" type="line"/>
      <point x="533" y="46"/>
      <point x="532" y="61"/>
      <point x="532" y="76" type="curve" smooth="yes"/>
      <point x="532" y="94"/>
      <point x="543" y="178"/>
      <point x="552" y="226" type="curve" smooth="yes"/>
      <point x="558" y="262"/>
      <point x="571" y="283"/>
      <point x="600" y="301" type="curve"/>
      <point x="597" y="359" type="line" smooth="yes"/>
      <point x="597" y="357"/>
      <point x="532" y="354"/>
      <point x="489" y="354" type="curve" smooth="yes"/>
      <point x="453" y="354"/>
      <point x="382" y="354"/>
      <point x="339" y="354" type="curve"/>
      <point x="316" y="259" type="line"/>
      <point x="323" y="245" type="line"/>
      <point x="329" y="245"/>
      <point x="342" y="246"/>
      <point x="354" y="246" type="curve" smooth="yes"/>
      <point x="377" y="246"/>
      <point x="381" y="237"/>
      <point x="378" y="205" type="curve" smooth="yes"/>
      <point x="371" y="131" type="line"/>
      <point x="359" y="124"/>
      <point x="335" y="119"/>
      <point x="316" y="119" type="curve" smooth="yes"/>
      <point x="267" y="119"/>
      <point x="248" y="158"/>
      <point x="248" y="261" type="curve" smooth="yes"/>
      <point x="248" y="448"/>
      <point x="276" y="521"/>
      <point x="349" y="521" type="curve" smooth="yes"/>
      <point x="392" y="521"/>
      <point x="415" y="503"/>
      <point x="415" y="468" type="curve" smooth="yes"/>
      <point x="415" y="457"/>
      <point x="410" y="428"/>
      <point x="404" y="404" type="curve"/>
      <point x="560" y="413" type="line"/>
      <point x="573" y="484"/>
      <point x="595" y="568"/>
      <point x="614" y="613" type="curve"/>
      <point x="608" y="633" type="line"/>
      <point x="524" y="648"/>
      <point x="433" y="659"/>
      <point x="386" y="659" type="curve" smooth="yes"/>
      <point x="146" y="659"/>
      <point x="18" y="520"/>
      <point x="18" y="259" type="curve" smooth="yes"/>
      <point x="18" y="86"/>
      <point x="112" y="-11"/>
    </contour>
    <contour>
      <point x="294" y="153" type="line"/>
      <point x="345" y="153"/>
      <point x="408" y="154"/>
      <point x="434" y="154" type="curve" smooth="yes"/>
      <point x="596" y="154" type="line"/>
      <point x="610" y="208" type="line"/>
      <point x="605" y="224" type="line"/>
      <point x="537" y="222"/>
      <point x="475" y="220"/>
      <point x="451" y="220" type="curve" smooth="yes"/>
      <point x="432" y="220"/>
      <point x="359" y="221"/>
      <point x="306" y="221" type="curve"/>
      <point x="291" y="164" type="line"/>
    </contour>
  </outline>
</glyph>
<glyph name="gstroke" format="2">
  <advance width="550"/>
  <unicode hex="01E5"/>
  <outline>
    <contour>
      <point x="-55" y="-40" type="line"/>
      <point x="45" y="-40"/>
      <point x="166" y="-39"/>
      <point x="217" y="-39" type="curve" smooth="yes"/>
      <point x="524" y="-39" type="line"/>
      <point x="529" y="5" type="line"/>
      <point x="515" y="21" type="line"/>
      <point x="414" y="19"/>
      <point x="284" y="17"/>
      <point x="232" y="17" type="curve" smooth="yes"/>
      <point x="195" y="17"/>
      <point x="47" y="18"/>
      <point x="-57" y="18" type="curve"/>
      <point x="-65" y="-29" type="line"/>
    </contour>
    <contour>
      <point x="140" y="-242" type="curve" smooth="yes"/>
      <point x="261" y="-241"/>
      <point x="456" y="-76"/>
      <point x="470" y="35" type="curve" smooth="yes"/>
      <point x="478" y="99"/>
      <point x="486" y="250"/>
      <point x="490" y="281" type="curve" smooth="yes"/>
      <point x="496" y="326"/>
      <point x="514" y="404"/>
      <point x="531" y="445" type="curve"/>
      <point x="516" y="473" type="line"/>
      <point x="383" y="484" type="line"/>
      <point x="363" y="473" type="line"/>
      <point x="358" y="452" type="line"/>
      <point x="286" y="473" type="line"/>
      <point x="164" y="473"/>
      <point x="32" y="302"/>
      <point x="32" y="144" type="curve" smooth="yes"/>
      <point x="32" y="74"/>
      <point x="59" y="23"/>
      <point x="107" y="2" type="curve"/>
      <point x="106" y="-5" type="line"/>
      <point x="55" y="-28"/>
      <point x="-19" y="-64"/>
      <point x="-51" y="-82" type="curve"/>
      <point x="-55" y="-95" type="line"/>
      <point x="-65" y="-181"/>
      <point x="17" y="-243"/>
    </contour>
    <contour>
      <point x="197" y="-117" type="curve" smooth="yes"/>
      <point x="146" y="-117"/>
      <point x="106" y="-97"/>
      <point x="106" y="-72" type="curve" smooth="yes"/>
      <point x="106" y="-66"/>
      <point x="152" y="-30"/>
      <point x="187" y="-8" type="curve" smooth="yes"/>
      <point x="219" y="12"/>
      <point x="244" y="46"/>
      <point x="329" y="177" type="curve"/>
      <point x="339" y="174" type="line"/>
      <point x="318" y="0" type="line" smooth="yes"/>
      <point x="309" y="-76"/>
      <point x="265" y="-117"/>
    </contour>
    <contour>
      <point x="230" y="143" type="curve" smooth="yes"/>
      <point x="220" y="143"/>
      <point x="214" y="169"/>
      <point x="214" y="209" type="curve" smooth="yes"/>
      <point x="214" y="284"/>
      <point x="237" y="367"/>
      <point x="257" y="367" type="curve" smooth="yes"/>
      <point x="292" y="367"/>
      <point x="330" y="342"/>
      <point x="330" y="342" type="curve"/>
      <point x="303" y="246"/>
      <point x="252" y="143"/>
    </contour>
  </outline>
</glyph>
<glyph name="ringhalfright" format="2">
  <advance width="292"/>
  <unicode hex="02BE"/>
  <outline>
    <contour>
      <point x="146" y="542" type="line"/>
      <point x="207" y="542"/>
      <point x="253" y="590"/>
      <point x="253" y="654" type="curve" smooth="yes"/>
      <point x="253" y="715"/>
      <point x="214" y="752"/>
      <point x="151" y="752" type="curve"/>
      <point x="146" y="680" type="line"/>
      <point x="170" y="680"/>
      <point x="184" y="667"/>
      <point x="184" y="645" type="curve" smooth="yes"/>
      <point x="184" y="625"/>
      <point x="170" y="612"/>
      <point x="146" y="612" type="curve"/>
    </contour>
  </outline>
</glyph>
<glyph name="tilde" format="2">
  <advance width="386"/>
  <unicode hex="02DC"/>
  <anchor x="200" y="472" name="_top"/>
  <outline>
    <contour>
      <point x="95" y="525" type="line"/>
      <point x="111" y="525" type="line"/>
      <point x="111" y="525"/>
      <point x="159" y="583"/>
      <point x="183" y="583" type="curve" smooth="yes"/>
      <point x="212" y="583"/>
      <point x="295" y="549"/>
      <point x="329" y="549" type="curve"/>
      <point x="346" y="553" type="line"/>
      <point x="439" y="668" type="line"/>
      <point x="441" y="684" type="line"/>
      <point x="388" y="738" type="line"/>
      <point x="372" y="738" type="line"/>
      <point x="372" y="738"/>
      <point x="323" y="680"/>
      <point x="300" y="680" type="curve" smooth="yes"/>
      <point x="271" y="680"/>
      <point x="188" y="714"/>
      <point x="154" y="714" type="curve"/>
      <point x="137" y="710" type="line"/>
      <point x="44" y="595" type="line"/>
      <point x="42" y="579" type="line"/>
    </contour>
  </outline>
</glyph>
<glyph name="acutecomb" format="2">
  <unicode hex="0301"/>
  <anchor x="196" y="472" name="_top"/>
  <anchor x="222" y="760" name="top"/>
  <outline>
    <contour>
      <point x="344" y="642" type="curve"/>
      <point x="346" y="659" type="line"/>
      <point x="274" y="760" type="line"/>
      <point x="257" y="760" type="line"/>
      <point x="257" y="760"/>
      <point x="164" y="674"/>
      <point x="70" y="593" type="curve"/>
      <point x="111" y="532" type="line"/>
      <point x="133" y="525" type="line"/>
      <point x="236" y="586"/>
      <point x="344" y="642"/>
    </contour>
  </outline>
</glyph>
<glyph name="brevecomb" format="2">
  <unicode hex="0306"/>
  <anchor x="229" y="472" name="_top"/>
  <anchor x="259" y="720" name="top"/>
  <outline>
    <contour>
      <point x="246" y="650" type="curve" smooth="yes"/>
      <point x="198" y="650"/>
      <point x="160" y="673"/>
      <point x="146" y="720" type="curve"/>
      <point x="118" y="713" type="line"/>
      <point x="71" y="651" type="line"/>
      <point x="83" y="583"/>
      <point x="129" y="515"/>
      <point x="230" y="515" type="curve" smooth="yes"/>
      <point x="330" y="515"/>
      <point x="393" y="583"/>
      <point x="422" y="651" type="curve"/>
      <point x="390" y="713" type="line"/>
      <point x="363" y="720" type="line"/>
      <point x="338" y="673"/>
      <point x="294" y="650"/>
    </contour>
  </outline>
</glyph>
<glyph name="dieresiscomb" format="2">
  <unicode hex="0308"/>
  <anchor x="223" y="472" name="_top"/>
  <anchor x="253" y="716" name="top"/>
  <outline>
    <contour>
      <point x="324" y="549" type="curve" smooth="yes"/>
      <point x="381" y="549"/>
      <point x="420" y="589"/>
      <point x="420" y="648" type="curve" smooth="yes"/>
      <point x="420" y="691"/>
      <point x="395" y="716"/>
      <point x="350" y="716" type="curve" smooth="yes"/>
      <point x="292" y="716"/>
      <point x="253" y="676"/>
      <point x="253" y="616" type="curve" smooth="yes"/>
      <point x="253" y="573"/>
      <point x="277" y="549"/>
    </contour>
    <contour>
      <point x="135" y="549" type="curve" smooth="yes"/>
      <point x="193" y="549"/>
      <point x="232" y="589"/>
      <point x="232" y="648" type="curve" smooth="yes"/>
      <point x="232" y="691"/>
      <point x="207" y="716"/>
      <point x="162" y="716" type="curve" smooth="yes"/>
      <point x="104" y="716"/>
      <point x="65" y="676"/>
      <point x="65" y="616" type="curve" smooth="yes"/>
      <point x="65" y="573"/>
      <point x="90" y="549"/>
    </contour>
  </outline>
</glyph>
<glyph name="ringcomb" format="2">
  <unicode hex="030A"/>
  <anchor x="193" y="472" name="_top"/>
  <anchor x="256" y="752" name="top"/>
  <outline>
    <contour>
      <point x="226" y="542" type="curve" smooth="yes"/>
      <point x="302" y="542"/>
      <point x="349" y="604"/>
      <point x="349" y="667" type="curve" smooth="yes"/>
      <point x="349" y="711"/>
      <point x="325" y="752"/>
      <point x="260" y="752" type="curve" smooth="yes"/>
      <point x="189" y="752"/>
      <point x="138" y="699"/>
      <point x="138" y="631" type="curve" smooth="yes"/>
      <point x="138" y="578"/>
      <point x="168" y="542"/>
    </contour>
    <contour>
      <point x="241" y="612" type="curve" smooth="yes"/>
      <point x="227" y="612"/>
      <point x="208" y="619"/>
      <point x="208" y="643" type="curve" smooth="yes"/>
      <point x="208" y="664"/>
      <point x="220" y="680"/>
      <point x="246" y="680" type="curve" smooth="yes"/>
      <point x="267" y="680"/>
      <point x="279" y="669"/>
      <point x="279" y="650" type="curve" smooth="yes"/>
      <point x="279" y="619"/>
      <point x="255" y="612"/>
    </contour>
  </outline>
</glyph>
<glyph name="caroncomb" format="2">
  <unicode hex="030C"/>
  <anchor x="226" y="472" name="_top"/>
  <anchor x="259" y="740" name="top"/>
  <outline>
    <contour>
      <point x="122" y="733" type="line"/>
      <point x="69" y="671" type="line"/>
      <point x="137" y="602"/>
      <point x="212" y="515"/>
      <point x="212" y="515" type="curve"/>
      <point x="239" y="515" type="line"/>
      <point x="239" y="515"/>
      <point x="336" y="602"/>
      <point x="421" y="671" type="curve"/>
      <point x="383" y="733" type="line"/>
      <point x="361" y="740" type="line"/>
      <point x="320" y="713"/>
      <point x="272" y="686"/>
      <point x="245" y="671" type="curve"/>
      <point x="222" y="686"/>
      <point x="180" y="713"/>
      <point x="146" y="740" type="curve"/>
    </contour>
  </outline>
</glyph>
<glyph name="cedillacomb" format="2">
  <unicode hex="0327"/>
  <anchor x="151" y="0" name="_bottom"/>
  <anchor x="127" y="-243" name="bottom"/>
  <outline>
    <contour>
      <point x="131" y="36" type="line"/>
      <point x="86" y="-87" type="line"/>
      <point x="121" y="-105"/>
      <point x="163" y="-130"/>
      <point x="163" y="-150" type="curve" smooth="yes"/>
      <point x="163" y="-165"/>
      <point x="151" y="-174"/>
      <point x="132" y="-174" type="curve" smooth="yes"/>
      <point x="105" y="-174"/>
      <point x="89" y="-155"/>
      <point x="92" y="-118" type="curve"/>
      <point x="84" y="-118" type="line"/>
      <point x="60" y="-139"/>
      <point x="23" y="-175"/>
      <point x="23" y="-192" type="curve" smooth="yes"/>
      <point x="23" y="-224"/>
      <point x="68" y="-243"/>
      <point x="105" y="-243" type="curve" smooth="yes"/>
      <point x="193" y="-243"/>
      <point x="266" y="-195"/>
      <point x="266" y="-138" type="curve" smooth="yes"/>
      <point x="266" y="-95"/>
      <point x="207" y="-56"/>
      <point x="170" y="-37" type="curve"/>
      <point x="193" y="36" type="line"/>
    </contour>
  </outline>
</glyph>
<glyph name="ypogegrammenicomb" format="2">
  <unicode hex="0345"/>
  <anchor x="142" y="0" name="_bottom"/>
  <anchor x="89" y="-240" name="bottom"/>
  <outline>
    <contour>
      <point x="26" y="-225" type="line"/>
      <point x="70" y="-236"/>
      <point x="116" y="-242"/>
      <point x="163" y="-240" type="curve"/>
      <point x="175" y="-229" type="line"/>
      <point x="177" y="-33" type="line"/>
      <point x="90" y="-29" type="line"/>
      <point x="76" y="-42" type="line"/>
    </contour>
  </outline>
</glyph>
<glyph name="lowernumeral-greek" format="2">
  <advance width="170"/>
  <unicode hex="0375"/>
  <outline>
    <contour>
      <point x="-38" y="-120" type="curve"/>
      <point x="-31" y="-132" type="line"/>
      <point x="104" y="-118" type="line"/>
      <point x="106" y="-67"/>
      <point x="113" y="32"/>
      <point x="125" y="120" type="curve"/>
      <point x="107" y="126" type="line"/>
      <point x="30" y="101" type="line"/>
      <point x="2" y="19"/>
      <point x="-26" y="-73"/>
    </contour>
  </outline>
</glyph>
<glyph name="Theta" format="2">
  <advance width="626"/>
  <unicode hex="0398"/>
  <anchor x="274" y="0" name="bottom"/>
  <anchor x="363" y="647" name="top"/>
  <outline>
    <contour>
      <point x="270" y="-12" type="curve" smooth="yes"/>
      <point x="490" y="-12"/>
      <point x="632" y="148"/>
      <point x="632" y="393" type="curve" smooth="yes"/>
      <point x="632" y="561"/>
      <point x="541" y="656"/>
      <point x="379" y="656" type="curve" smooth="yes"/>
      <point x="157" y="656"/>
      <point x="17" y="499"/>
      <point x="17" y="256" type="curve" smooth="yes"/>
      <point x="17" y="87"/>
      <point x="110" y="-12"/>
    </contour>
    <contour>
      <point x="302" y="102" type="curve" smooth="yes"/>
      <point x="231" y="102"/>
      <point x="194" y="160"/>
      <point x="194" y="280" type="curve" smooth="yes"/>
      <point x="194" y="452"/>
      <point x="248" y="532"/>
      <point x="342" y="532" type="curve" smooth="yes"/>
      <point x="415" y="532"/>
      <point x="452" y="475"/>
      <point x="452" y="355" type="curve" smooth="yes"/>
      <point x="452" y="183"/>
      <point x="397" y="102"/>
    </contour>
    <contour>
      <point x="223" y="247" type="line"/>
      <point x="244" y="250"/>
      <point x="288" y="254"/>
      <point x="309" y="254" type="curve" smooth="yes"/>
      <point x="336" y="254"/>
      <point x="380" y="252"/>
      <point x="405" y="251" type="curve"/>
      <point x="433" y="375" type="line"/>
      <point x="424" y="389" type="line"/>
      <point x="403" y="385"/>
      <point x="358" y="381"/>
      <point x="337" y="381" type="curve" smooth="yes"/>
      <point x="310" y="381"/>
      <point x="266" y="383"/>
      <point x="241" y="384" type="curve"/>
      <point x="213" y="261" type="line"/>
    </contour>
  </outline>
</glyph>
<glyph name="alpha" format="2">
  <advance width="539"/>
  <unicode hex="03B1"/>
  <anchor x="256" y="0" name="bottom"/>
  <anchor x="290" y="472" name="top"/>
  <outline>
    <contour>
      <point x="150" y="-2" type="curve" smooth="yes"/>
      <point x="227" y="-2"/>
      <point x="330" y="98"/>
      <point x="518" y="356" type="curve"/>
      <point x="496" y="413"/>
      <point x="470" y="452"/>
      <point x="435" y="481" type="curve"/>
      <point x="421" y="479" type="line"/>
      <point x="344" y="325"/>
      <point x="179" y="134"/>
      <point x="124" y="134" type="curve" smooth="yes"/>
      <point x="116" y="134"/>
      <point x="111" y="140"/>
      <point x="111" y="153" type="curve" smooth="yes"/>
      <point x="111" y="220"/>
      <point x="197" y="309"/>
      <point x="261" y="309" type="curve" smooth="yes"/>
      <point x="301" y="309"/>
      <point x="301" y="276"/>
      <point x="309" y="231" type="curve"/>
      <point x="439" y="358" type="line"/>
      <point x="339" y="357" type="line"/>
      <point x="322" y="417"/>
      <point x="287" y="457"/>
      <point x="234" y="475" type="curve"/>
      <point x="126" y="475"/>
      <point x="27" y="342"/>
      <point x="27" y="198" type="curve" smooth="yes"/>
      <point x="27" y="86"/>
      <point x="82" y="-2"/>
    </contour>
    <contour>
      <point x="398" y="-3" type="curve"/>
      <point x="450" y="32"/>
      <point x="488" y="88"/>
      <point x="508" y="159" type="curve"/>
      <point x="497" y="175" type="line"/>
      <point x="423" y="139"/>
      <point x="358" y="146"/>
      <point x="365" y="189" type="curve" smooth="yes"/>
      <point x="371" y="226" type="line"/>
      <point x="287" y="97" type="line"/>
      <point x="313" y="87" type="line"/>
      <point x="319" y="29"/>
      <point x="346" y="0"/>
    </contour>
  </outline>
</glyph>
<glyph name="beta" format="2">
  <advance width="506"/>
  <unicode hex="03B2"/>
  <outline>
    <contour>
      <point x="6" y="-239" type="line"/>
      <point x="65" y="-234"/>
      <point x="123" y="-219"/>
      <point x="180" y="-193" type="curve"/>
      <point x="157" y="86" type="line"/>
      <point x="197" y="371" type="line" smooth="yes"/>
      <point x="213" y="489"/>
      <point x="296" y="591"/>
      <point x="366" y="591" type="curve" smooth="yes"/>
      <point x="376" y="591"/>
      <point x="382" y="586"/>
      <point x="382" y="575" type="curve" smooth="yes"/>
      <point x="382" y="541"/>
      <point x="316" y="463"/>
      <point x="219" y="364" type="curve"/>
      <point x="270" y="251" type="line"/>
      <point x="438" y="389"/>
      <point x="479" y="454"/>
      <point x="479" y="545" type="curve" smooth="yes"/>
      <point x="479" y="654"/>
      <point x="401" y="741"/>
      <point x="288" y="741" type="curve" smooth="yes"/>
      <point x="192" y="741"/>
      <point x="143" y="674"/>
      <point x="113" y="502" type="curve" smooth="yes"/>
      <point x="-15" y="-222" type="line"/>
    </contour>
    <contour>
      <point x="255" y="-6" type="curve"/>
      <point x="394" y="-6"/>
      <point x="484" y="72"/>
      <point x="484" y="194" type="curve" smooth="yes"/>
      <point x="484" y="342"/>
      <point x="334" y="460"/>
      <point x="214" y="396" type="curve"/>
      <point x="206" y="382" type="line"/>
      <point x="222" y="333"/>
      <point x="235" y="302"/>
      <point x="257" y="251" type="curve"/>
      <point x="270" y="251" type="line"/>
      <point x="339" y="294"/>
      <point x="385" y="299"/>
      <point x="385" y="259" type="curve" smooth="yes"/>
      <point x="385" y="183"/>
      <point x="220" y="132"/>
      <point x="113" y="173" type="curve"/>
      <point x="93" y="20" type="line"/>
      <point x="167" y="69" type="line"/>
      <point x="192" y="41"/>
      <point x="221" y="17"/>
    </contour>
  </outline>
</glyph>
<glyph name="gamma" format="2">
  <advance width="467"/>
  <unicode hex="03B3"/>
  <outline>
    <contour>
      <point x="137" y="-239" type="line"/>
      <point x="210" y="-224" type="line"/>
      <point x="229" y="-103"/>
      <point x="237" y="87"/>
      <point x="228" y="222" type="curve" smooth="yes"/>
      <point x="217" y="386"/>
      <point x="171" y="477"/>
      <point x="100" y="477" type="curve"/>
      <point x="53" y="424"/>
      <point x="23" y="369"/>
      <point x="8" y="308" type="curve"/>
      <point x="24" y="288" type="line"/>
      <point x="107" y="318"/>
      <point x="132" y="301"/>
      <point x="147" y="204" type="curve" smooth="yes"/>
      <point x="153" y="161"/>
      <point x="155" y="89"/>
      <point x="149" y="28" type="curve"/>
      <point x="204" y="146" type="line"/>
      <point x="84" y="-52"/>
      <point x="64" y="-98"/>
      <point x="57" y="-196" type="curve"/>
      <point x="110" y="-235" type="line"/>
    </contour>
    <contour>
      <point x="214" y="-24" type="line"/>
      <point x="349" y="186"/>
      <point x="425" y="300"/>
      <point x="494" y="396" type="curve"/>
      <point x="451" y="438"/>
      <point x="416" y="462"/>
      <point x="373" y="480" type="curve"/>
      <point x="357" y="478" type="line"/>
      <point x="305" y="370"/>
      <point x="272" y="299"/>
      <point x="244" y="227" type="curve"/>
      <point x="206" y="231" type="line"/>
    </contour>
  </outline>
</glyph>
<glyph name="delta" format="2">
  <advance width="471"/>
  <unicode hex="03B4"/>
  <outline>
    <contour>
      <point x="215" y="-8" type="curve" smooth="yes"/>
      <point x="342" y="-8"/>
      <point x="454" y="114"/>
      <point x="454" y="255" type="curve" smooth="yes"/>
      <point x="454" y="429"/>
      <point x="279" y="570"/>
      <point x="279" y="592" type="curve" smooth="yes"/>
      <point x="279" y="593"/>
      <point x="280" y="596"/>
      <point x="283" y="596" type="curve" smooth="yes"/>
      <point x="312" y="596"/>
      <point x="426" y="543"/>
      <point x="504" y="496" type="curve"/>
      <point x="534" y="541" type="line"/>
      <point x="495" y="645"/>
      <point x="418" y="712"/>
      <point x="303" y="742" type="curve"/>
      <point x="241" y="727"/>
      <point x="184" y="670"/>
      <point x="184" y="614" type="curve" smooth="yes"/>
      <point x="184" y="506"/>
      <point x="331" y="374"/>
      <point x="331" y="293" type="curve" smooth="yes"/>
      <point x="331" y="233"/>
      <point x="231" y="147"/>
      <point x="166" y="147" type="curve" smooth="yes"/>
      <point x="148" y="147"/>
      <point x="139" y="158"/>
      <point x="139" y="178" type="curve" smooth="yes"/>
      <point x="139" y="243"/>
      <point x="231" y="308"/>
      <point x="324" y="308" type="curve" smooth="yes"/>
      <point x="344" y="308"/>
      <point x="351" y="308"/>
      <point x="359" y="305" type="curve"/>
      <point x="298" y="424" type="line"/>
      <point x="272" y="397" type="line"/>
      <point x="250" y="411"/>
      <point x="230" y="422"/>
      <point x="203" y="435" type="curve"/>
      <point x="99" y="435"/>
      <point x="19" y="342"/>
      <point x="19" y="218" type="curve" smooth="yes"/>
      <point x="19" y="95"/>
      <point x="104" y="-8"/>
    </contour>
  </outline>
</glyph>
<glyph name="epsilon" format="2">
  <advance width="440"/>
  <unicode hex="03B5"/>
  <anchor x="245" y="472" name="top"/>
  <outline>
    <contour>
      <point x="237" y="-7" type="curve"/>
      <point x="280" y="2"/>
      <point x="322" y="23"/>
      <point x="360" y="54" type="curve"/>
      <point x="380" y="94"/>
      <point x="394" y="134"/>
      <point x="403" y="172" type="curve"/>
      <point x="392" y="182" type="line"/>
      <point x="344" y="164"/>
      <point x="255" y="150"/>
      <point x="188" y="150" type="curve" smooth="yes"/>
      <point x="150" y="150"/>
      <point x="130" y="156"/>
      <point x="130" y="165" type="curve" smooth="yes"/>
      <point x="130" y="188"/>
      <point x="248" y="204"/>
      <point x="340" y="196" type="curve"/>
      <point x="350" y="230"/>
      <point x="356" y="261"/>
      <point x="357" y="291" type="curve"/>
      <point x="347" y="302" type="line"/>
      <point x="221" y="332"/>
      <point x="14" y="208"/>
      <point x="14" y="94" type="curve" smooth="yes"/>
      <point x="14" y="28"/>
      <point x="90" y="-7"/>
    </contour>
    <contour>
      <point x="277" y="185" type="curve" smooth="yes"/>
      <point x="301" y="185"/>
      <point x="321" y="188"/>
      <point x="340" y="196" type="curve"/>
      <point x="335" y="265" type="line"/>
      <point x="240" y="265"/>
      <point x="176" y="280"/>
      <point x="176" y="304" type="curve" smooth="yes"/>
      <point x="176" y="324"/>
      <point x="220" y="339"/>
      <point x="284" y="339" type="curve" smooth="yes"/>
      <point x="334" y="339"/>
      <point x="377" y="331"/>
      <point x="404" y="317" type="curve"/>
      <point x="415" y="324" type="line"/>
      <point x="414" y="366"/>
      <point x="408" y="405"/>
      <point x="398" y="447" type="curve"/>
      <point x="369" y="468"/>
      <point x="331" y="479"/>
      <point x="288" y="479" type="curve" smooth="yes"/>
      <point x="151" y="479"/>
      <point x="43" y="421"/>
      <point x="43" y="348" type="curve" smooth="yes"/>
      <point x="43" y="269"/>
      <point x="161" y="185"/>
    </contour>
  </outline>
</glyph>
<glyph name="nu" format="2">
  <advance width="418"/>
  <unicode hex="03BD"/>
  <outline>
    <contour>
      <point x="192" y="-9" type="curve"/>
      <point x="210" y="-6" type="line"/>
      <point x="321" y="105"/>
      <point x="388" y="232"/>
      <point x="415" y="383" type="curve"/>
      <point x="389" y="431"/>
      <point x="356" y="465"/>
      <point x="313" y="484" type="curve"/>
      <point x="287" y="474" type="line"/>
      <point x="293" y="428"/>
      <point x="292" y="380"/>
      <point x="291" y="331" type="curve"/>
      <point x="237" y="228"/>
      <point x="164" y="149"/>
      <point x="70" y="95" type="curve"/>
      <point x="70" y="73" type="line"/>
      <point x="107" y="44"/>
      <point x="143" y="20"/>
    </contour>
    <contour>
      <point x="70" y="95" type="curve"/>
      <point x="244" y="201" type="line"/>
      <point x="187" y="209" type="line"/>
      <point x="243" y="427"/>
      <point x="228" y="480"/>
      <point x="109" y="480" type="curve"/>
      <point x="65" y="434"/>
      <point x="28" y="373"/>
      <point x="7" y="309" type="curve"/>
      <point x="24" y="289" type="line"/>
      <point x="91" y="315"/>
      <point x="120" y="310"/>
      <point x="120" y="273" type="curve" smooth="yes"/>
      <point x="120" y="226"/>
      <point x="106" y="177"/>
    </contour>
  </outline>
</glyph>
<glyph name="xi" format="2">
  <advance width="375"/>
  <unicode hex="03BE"/>
  <outline>
    <contour>
      <point x="95" y="-181" type="line"/>
      <point x="279" y="-77"/>
      <point x="319" y="-28"/>
      <point x="319" y="72" type="curve" smooth="yes"/>
      <point x="319" y="143"/>
      <point x="281" y="183"/>
      <point x="211" y="194" type="curve" smooth="yes"/>
      <point x="112" y="209"/>
      <point x="103" y="211"/>
      <point x="103" y="218" type="curve" smooth="yes"/>
      <point x="103" y="232"/>
      <point x="147" y="241"/>
      <point x="349" y="286" type="curve"/>
      <point x="359" y="298" type="line"/>
      <point x="322" y="442" type="line"/>
      <point x="307" y="449" type="line"/>
      <point x="99" y="383"/>
      <point x="14" y="311"/>
      <point x="14" y="182" type="curve" smooth="yes"/>
      <point x="14" y="83"/>
      <point x="72" y="31"/>
      <point x="193" y="22" type="curve"/>
      <point x="194" y="22"/>
      <point x="195" y="21"/>
      <point x="195" y="19" type="curve" smooth="yes"/>
      <point x="195" y="12"/>
      <point x="132" y="-4"/>
      <point x="61" y="-16" type="curve"/>
      <point x="45" y="-40" type="line"/>
    </contour>
    <contour>
      <point x="150" y="323" type="curve"/>
      <point x="206" y="386" type="line"/>
      <point x="169" y="409"/>
      <point x="150" y="431"/>
      <point x="150" y="446" type="curve" smooth="yes"/>
      <point x="150" y="469"/>
      <point x="160" y="472"/>
      <point x="382" y="569" type="curve"/>
      <point x="388" y="581" type="line"/>
      <point x="328" y="707" type="line"/>
      <point x="308" y="710" type="line"/>
      <point x="155" y="636"/>
      <point x="62" y="544"/>
      <point x="62" y="456" type="curve" smooth="yes"/>
      <point x="62" y="403"/>
      <point x="93" y="357"/>
    </contour>
    <contour>
      <point x="122" y="593" type="curve"/>
      <point x="161" y="601"/>
      <point x="192" y="609"/>
      <point x="233" y="617" type="curve"/>
      <point x="236" y="657" type="line"/>
      <point x="158" y="653"/>
      <point x="135" y="687"/>
      <point x="166" y="766" type="curve"/>
      <point x="144" y="777" type="line"/>
      <point x="83" y="762"/>
      <point x="35" y="718"/>
      <point x="35" y="667" type="curve" smooth="yes"/>
      <point x="35" y="622"/>
      <point x="70" y="593"/>
    </contour>
  </outline>
</glyph>
<glyph name="pi" format="2">
  <advance width="559"/>
  <unicode hex="03C0"/>
  <outline>
    <contour>
      <point x="35" y="244" type="line"/>
      <point x="41" y="244" type="line"/>
      <point x="86" y="293"/>
      <point x="100" y="301"/>
      <point x="188" y="301" type="curve" smooth="yes"/>
      <point x="475" y="301" type="line"/>
      <point x="488" y="310" type="line"/>
      <point x="517" y="354"/>
      <point x="540" y="403"/>
      <point x="576" y="483" type="curve"/>
      <point x="564" y="497" type="line"/>
      <point x="524" y="479"/>
      <point x="481" y="471"/>
      <point x="415" y="471" type="curve" smooth="yes"/>
      <point x="215" y="471" type="line" smooth="yes"/>
      <point x="95" y="471"/>
      <point x="33" y="409"/>
      <point x="7" y="264" type="curve"/>
      <point x="9" y="257" type="line"/>
    </contour>
    <contour>
      <point x="176" y="-9" type="curve"/>
      <point x="288" y="430" type="line"/>
      <point x="196" y="430" type="line"/>
      <point x="163" y="302"/>
      <point x="109" y="175"/>
      <point x="35" y="42" type="curve"/>
      <point x="43" y="23" type="line"/>
      <point x="91" y="6"/>
      <point x="137" y="-5"/>
    </contour>
    <contour>
      <point x="356" y="-11" type="curve"/>
      <point x="422" y="22"/>
      <point x="468" y="79"/>
      <point x="499" y="156" type="curve"/>
      <point x="489" y="174" type="line"/>
      <point x="383" y="163"/>
      <point x="365" y="176"/>
      <point x="394" y="247" type="curve" smooth="yes"/>
      <point x="468" y="430" type="line"/>
      <point x="318" y="430" type="line"/>
      <point x="271" y="124" type="line" smooth="yes"/>
      <point x="259" y="45"/>
      <point x="282" y="4"/>
    </contour>
  </outline>
</glyph>
<glyph name="sigma" format="2">
  <advance width="503"/>
  <unicode hex="03C3"/>
  <outline>
    <contour>
      <point x="207" y="-11" type="curve" smooth="yes"/>
      <point x="311" y="-11"/>
      <point x="394" y="75"/>
      <point x="408" y="198" type="curve"/>
      <point x="401" y="234"/>
      <point x="394" y="259"/>
      <point x="386" y="282" type="curve"/>
      <point x="409" y="314" type="line"/>
      <point x="330" y="333" type="line"/>
      <point x="328" y="329"/>
      <point x="325" y="311"/>
      <point x="324" y="308" type="curve" smooth="yes"/>
      <point x="294" y="219"/>
      <point x="218" y="142"/>
      <point x="159" y="142" type="curve" smooth="yes"/>
      <point x="144" y="142"/>
      <point x="136" y="151"/>
      <point x="136" y="169" type="curve" smooth="yes"/>
      <point x="136" y="236"/>
      <point x="206" y="291"/>
      <point x="288" y="290" type="curve" smooth="yes"/>
      <point x="435" y="289" type="line"/>
      <point x="447" y="298" type="line"/>
      <point x="483" y="347"/>
      <point x="513" y="407"/>
      <point x="542" y="484" type="curve"/>
      <point x="531" y="497" type="line"/>
      <point x="493" y="479"/>
      <point x="453" y="472"/>
      <point x="387" y="472" type="curve" smooth="yes"/>
      <point x="296" y="472" type="line" smooth="yes"/>
      <point x="138" y="472"/>
      <point x="24" y="363"/>
      <point x="24" y="211" type="curve" smooth="yes"/>
      <point x="24" y="85"/>
      <point x="104" y="-11"/>
    </contour>
  </outline>
</glyph>
<glyph name="psi" format="2">
  <advance width="552"/>
  <unicode hex="03C8"/>
  <outline>
    <contour>
      <point x="221" y="-6" type="curve" smooth="yes"/>
      <point x="423" y="-6"/>
      <point x="520" y="122"/>
      <point x="548" y="414" type="curve"/>
      <point x="513" y="450"/>
      <point x="475" y="472"/>
      <point x="423" y="484" type="curve"/>
      <point x="402" y="459" type="line"/>
      <point x="409" y="425"/>
      <point x="413" y="384"/>
      <point x="422" y="332" type="curve"/>
      <point x="388" y="207"/>
      <point x="352" y="171"/>
      <point x="257" y="171" type="curve" smooth="yes"/>
      <point x="174" y="171"/>
      <point x="157" y="197"/>
      <point x="178" y="277" type="curve" smooth="yes"/>
      <point x="203" y="374" type="line" smooth="yes"/>
      <point x="218" y="435"/>
      <point x="194" y="470"/>
      <point x="124" y="481" type="curve"/>
      <point x="75" y="449"/>
      <point x="31" y="392"/>
      <point x="4" y="322" type="curve"/>
      <point x="15" y="299" type="line"/>
      <point x="80" y="322"/>
      <point x="92" y="310"/>
      <point x="81" y="239" type="curve" smooth="yes"/>
      <point x="65" y="142" type="line" smooth="yes"/>
      <point x="47" y="35"/>
      <point x="87" y="-6"/>
    </contour>
    <contour>
      <point x="251" y="-241" type="curve"/>
      <point x="262" y="-230" type="line"/>
      <point x="283" y="28"/>
      <point x="343" y="426"/>
      <point x="392" y="642" type="curve"/>
      <point x="355" y="653"/>
      <point x="338" y="657"/>
      <point x="316" y="660" type="curve"/>
      <point x="306" y="649" type="line"/>
      <point x="176" y="-223" type="line"/>
      <point x="194" y="-231"/>
      <point x="213" y="-236"/>
    </contour>
  </outline>
</glyph>
<glyph name="kaiSymbol" format="2">
  <advance width="515"/>
  <unicode hex="03D7"/>
  <outline>
    <contour>
      <point x="107" y="-8" type="line"/>
      <point x="271" y="183" type="line" smooth="yes"/>
      <point x="330" y="252"/>
      <point x="435" y="329"/>
      <point x="507" y="351" type="curve"/>
      <point x="511" y="367" type="line"/>
      <point x="496" y="410"/>
      <point x="474" y="447"/>
      <point x="440" y="482" type="curve"/>
      <point x="370" y="463"/>
      <point x="316" y="422"/>
      <point x="190" y="284" type="curve" smooth="yes"/>
      <point x="11" y="87" type="line"/>
      <point x="88" y="-3" type="line"/>
    </contour>
    <contour>
      <point x="106" y="-8" type="line"/>
      <point x="158" y="8" type="line"/>
      <point x="221" y="279" type="line"/>
      <point x="188" y="285" type="line"/>
      <point x="228" y="419"/>
      <point x="198" y="481"/>
      <point x="99" y="483" type="curve"/>
      <point x="57" y="436"/>
      <point x="23" y="380"/>
      <point x="2" y="324" type="curve"/>
      <point x="23" y="300" type="line"/>
      <point x="107" y="314"/>
      <point x="123" y="310"/>
      <point x="116" y="257" type="curve" smooth="yes"/>
      <point x="105" y="173"/>
      <point x="90" y="127"/>
      <point x="59" y="71" type="curve"/>
    </contour>
    <contour>
      <point x="393" y="-7" type="curve"/>
      <point x="490" y="129" type="line"/>
      <point x="473" y="146" type="line"/>
      <point x="347" y="135"/>
      <point x="335" y="146"/>
      <point x="339" y="287" type="curve"/>
      <point x="250" y="162" type="line" smooth="yes"/>
      <point x="256" y="171" type="line"/>
      <point x="271" y="32"/>
      <point x="298" y="-4"/>
    </contour>
    <contour>
      <point x="162" y="-231" type="curve"/>
      <point x="283" y="-262"/>
      <point x="365" y="-176"/>
      <point x="491" y="125" type="curve"/>
      <point x="373" y="124" type="line"/>
      <point x="316" y="-59"/>
      <point x="256" y="-106"/>
      <point x="122" y="-61" type="curve"/>
      <point x="107" y="-71" type="line"/>
      <point x="101" y="-135"/>
      <point x="120" y="-190"/>
    </contour>
  </outline>
</glyph>
<glyph name="kappaSymbol" format="2">
  <advance width="539"/>
  <unicode hex="03F0"/>
  <outline>
    <contour>
      <point x="130" y="-8" type="line"/>
      <point x="290" y="187" type="line" smooth="yes"/>
      <point x="347" y="256"/>
      <point x="448" y="331"/>
      <point x="521" y="353" type="curve"/>
      <point x="529" y="372" type="line"/>
      <point x="514" y="415"/>
      <point x="492" y="450"/>
      <point x="461" y="483" type="curve"/>
      <point x="388" y="461"/>
      <point x="334" y="416"/>
      <point x="211" y="281" type="curve" smooth="yes"/>
      <point x="34" y="85" type="line"/>
      <point x="113" y="-3" type="line"/>
    </contour>
    <contour>
      <point x="131" y="-8" type="line"/>
      <point x="181" y="8" type="line"/>
      <point x="240" y="277" type="line"/>
      <point x="208" y="287" type="line"/>
      <point x="243" y="422"/>
      <point x="218" y="480"/>
      <point x="121" y="479" type="curve"/>
      <point x="77" y="433"/>
      <point x="43" y="377"/>
      <point x="23" y="321" type="curve"/>
      <point x="40" y="303" type="line"/>
      <point x="117" y="316"/>
      <point x="136" y="307"/>
      <point x="136" y="264" type="curve" smooth="yes"/>
      <point x="136" y="200"/>
      <point x="127" y="165"/>
      <point x="84" y="66" type="curve"/>
    </contour>
    <contour>
      <point x="414" y="-7" type="curve"/>
      <point x="465" y="41"/>
      <point x="482" y="66"/>
      <point x="518" y="145" type="curve"/>
      <point x="503" y="162" type="line"/>
      <point x="370" y="134"/>
      <point x="356" y="146"/>
      <point x="359" y="291" type="curve"/>
      <point x="268" y="167" type="line" smooth="yes"/>
      <point x="272" y="172" type="line"/>
      <point x="292" y="29"/>
      <point x="313" y="2"/>
    </contour>
  </outline>
</glyph>
<glyph name="Nje-cy" format="2">
  <advance width="977"/>
  <unicode hex="040A"/>
  <outline>
    <contour>
      <point x="686" y="-11" type="curve" smooth="yes"/>
      <point x="841" y="-11"/>
      <point x="948" y="69"/>
      <point x="964" y="196" type="curve" smooth="yes"/>
      <point x="980" y="327"/>
      <point x="905" y="396"/>
      <point x="748" y="396" type="curve" smooth="yes"/>
      <point x="652" y="396" type="line"/>
      <point x="670" y="495" type="line" smooth="yes"/>
      <point x="679" y="542"/>
      <point x="694" y="555"/>
      <point x="753" y="562" type="curve"/>
      <point x="765" y="652" type="line"/>
      <point x="609" y="648"/>
      <point x="510" y="646"/>
      <point x="425" y="647" type="curve"/>
      <point x="413" y="572" type="line"/>
      <point x="423" y="558" type="line"/>
      <point x="428" y="558"/>
      <point x="439" y="559"/>
      <point x="450" y="559" type="curve" smooth="yes"/>
      <point x="474" y="559"/>
      <point x="477" y="553"/>
      <point x="472" y="512" type="curve" smooth="yes"/>
      <point x="428" y="160" type="line" smooth="yes"/>
      <point x="422" y="112"/>
      <point x="402" y="93"/>
      <point x="352" y="84" type="curve"/>
      <point x="339" y="-7" type="line"/>
      <point x="402" y="-3"/>
      <point x="474" y="0"/>
      <point x="508" y="0" type="curve" smooth="yes"/>
      <point x="559" y="0"/>
      <point x="625" y="-11"/>
    </contour>
    <contour>
      <point x="663" y="114" type="curve" smooth="yes"/>
      <point x="629" y="114"/>
      <point x="614" y="126"/>
      <point x="618" y="156" type="curve" smooth="yes"/>
      <point x="633" y="271" type="line"/>
      <point x="694" y="276" type="line"/>
      <point x="745" y="271"/>
      <point x="762" y="249"/>
      <point x="756" y="198" type="curve" smooth="yes"/>
      <point x="749" y="145"/>
      <point x="715" y="114"/>
    </contour>
    <contour>
      <point x="-17" y="-5" type="line"/>
      <point x="63" y="-2"/>
      <point x="118" y="0"/>
      <point x="148" y="0" type="curve" smooth="yes"/>
      <point x="172" y="0"/>
      <point x="245" y="-2"/>
      <point x="301" y="-4" type="curve"/>
      <point x="316" y="80" type="line"/>
      <point x="307" y="92" type="line"/>
      <point x="303" y="90"/>
      <point x="292" y="87"/>
      <point x="278" y="87" type="curve" smooth="yes"/>
      <point x="256" y="87"/>
      <point x="254" y="96"/>
      <point x="261" y="152" type="curve" smooth="yes"/>
      <point x="277" y="256" type="line"/>
      <point x="342" y="263"/>
      <point x="370" y="265"/>
      <point x="391" y="265" type="curve" smooth="yes"/>
      <point x="419" y="265"/>
      <point x="476" y="264"/>
      <point x="542" y="264" type="curve"/>
      <point x="551" y="389" type="line"/>
      <point x="447" y="387"/>
      <point x="413" y="386"/>
      <point x="372" y="386" type="curve"/>
      <point x="293" y="389" type="line"/>
      <point x="314" y="506" type="line" smooth="yes"/>
      <point x="320" y="542"/>
      <point x="332" y="553"/>
      <point x="375" y="561" type="curve"/>
      <point x="386" y="652" type="line"/>
      <point x="277" y="649"/>
      <point x="219" y="647"/>
      <point x="190" y="647" type="curve" smooth="yes"/>
      <point x="163" y="647"/>
      <point x="103" y="647"/>
      <point x="68" y="647" type="curve"/>
      <point x="55" y="572" type="line"/>
      <point x="65" y="558" type="line"/>
      <point x="70" y="558"/>
      <point x="81" y="559"/>
      <point x="92" y="559" type="curve" smooth="yes"/>
      <point x="116" y="559"/>
      <point x="119" y="553"/>
      <point x="114" y="512" type="curve" smooth="yes"/>
      <point x="72" y="166" type="line" smooth="yes"/>
      <point x="65" y="110"/>
      <point x="48" y="92"/>
      <point x="-5" y="81" type="curve"/>
    </contour>
  </outline>
</glyph>
<glyph name="Dzhe-cy" format="2">
  <advance width="754"/>
  <unicode hex="040F"/>
  <outline>
    <contour>
      <point x="5" y="-5" type="line"/>
      <point x="100" y="-2"/>
      <point x="151" y="0"/>
      <point x="171" y="0" type="curve" smooth="yes"/>
      <point x="534" y="0" type="line" smooth="yes"/>
      <point x="659" y="0"/>
      <point x="663" y="0"/>
      <point x="688" y="-1" type="curve"/>
      <point x="701" y="75" type="line"/>
      <point x="691" y="89" type="line"/>
      <point x="686" y="89"/>
      <point x="675" y="88"/>
      <point x="665" y="88" type="curve" smooth="yes"/>
      <point x="633" y="88"/>
      <point x="630" y="99"/>
      <point x="638" y="164" type="curve" smooth="yes"/>
      <point x="649" y="255"/>
      <point x="669" y="389"/>
      <point x="689" y="502" type="curve" smooth="yes"/>
      <point x="696" y="543"/>
      <point x="710" y="555"/>
      <point x="757" y="563" type="curve"/>
      <point x="768" y="652" type="line"/>
      <point x="677" y="646"/>
      <point x="572" y="645"/>
      <point x="449" y="647" type="curve"/>
      <point x="436" y="572" type="line"/>
      <point x="447" y="558" type="line"/>
      <point x="492" y="561"/>
      <point x="496" y="559"/>
      <point x="491" y="518" type="curve" smooth="yes"/>
      <point x="448" y="167" type="line" smooth="yes"/>
      <point x="443" y="130"/>
      <point x="424" y="114"/>
      <point x="379" y="114" type="curve"/>
      <point x="330" y="114" type="line"/>
      <point x="285" y="114"/>
      <point x="279" y="119"/>
      <point x="284" y="157" type="curve" smooth="yes"/>
      <point x="294" y="244"/>
      <point x="317" y="396"/>
      <point x="336" y="502" type="curve" smooth="yes"/>
      <point x="343" y="543"/>
      <point x="354" y="553"/>
      <point x="391" y="561" type="curve"/>
      <point x="402" y="652" type="line"/>
      <point x="312" y="646"/>
      <point x="212" y="645"/>
      <point x="89" y="647" type="curve"/>
      <point x="77" y="572" type="line"/>
      <point x="87" y="558" type="line"/>
      <point x="92" y="558"/>
      <point x="102" y="559"/>
      <point x="113" y="559" type="curve" smooth="yes"/>
      <point x="137" y="559"/>
      <point x="141" y="552"/>
      <point x="136" y="512" type="curve" smooth="yes"/>
      <point x="94" y="166" type="line" smooth="yes"/>
      <point x="87" y="113"/>
      <point x="70" y="96"/>
      <point x="17" y="86" type="curve"/>
    </contour>
    <contour>
      <point x="260" y="-192" type="line"/>
      <point x="390" y="-182" type="line"/>
      <point x="410" y="-59" type="line" smooth="yes"/>
      <point x="416" y="-19"/>
      <point x="433" y="0"/>
      <point x="467" y="0" type="curve"/>
      <point x="205" y="0" type="line"/>
      <point x="250" y="0"/>
      <point x="263" y="-11"/>
      <point x="262" y="-56" type="curve" smooth="yes"/>
    </contour>
  </outline>
</glyph>
<glyph name="Hardsign-cy" format="2">
  <advance width="740"/>
  <unicode hex="042A"/>
  <outline>
    <contour>
      <point x="439" y="-11" type="curve" smooth="yes"/>
      <point x="612" y="-11"/>
      <point x="729" y="84"/>
      <point x="729" y="230" type="curve" smooth="yes"/>
      <point x="729" y="339"/>
      <point x="656" y="396"/>
      <point x="511" y="396" type="curve" smooth="yes"/>
      <point x="411" y="396" type="line"/>
      <point x="429" y="499" type="line" smooth="yes"/>
      <point x="437" y="545"/>
      <point x="448" y="555"/>
      <point x="509" y="562" type="curve"/>
      <point x="527" y="652" type="line"/>
      <point x="332" y="647" type="line"/>
      <point x="188" y="647" type="line"/>
      <point x="71" y="658" type="line"/>
      <point x="57" y="644" type="line"/>
      <point x="48" y="574"/>
      <point x="31" y="461"/>
      <point x="17" y="382" type="curve"/>
      <point x="142" y="390" type="line"/>
      <point x="164" y="498"/>
      <point x="180" y="526"/>
      <point x="215" y="526" type="curve" smooth="yes"/>
      <point x="224" y="526"/>
      <point x="225" y="523"/>
      <point x="224" y="510" type="curve" smooth="yes"/>
      <point x="180" y="163" type="line" smooth="yes"/>
      <point x="173" y="106"/>
      <point x="152" y="90"/>
      <point x="75" y="83" type="curve"/>
      <point x="56" y="-9" type="line"/>
      <point x="142" y="-4"/>
      <point x="223" y="0"/>
      <point x="257" y="0" type="curve" smooth="yes"/>
      <point x="312" y="0"/>
      <point x="381" y="-11"/>
    </contour>
    <contour>
      <point x="427" y="114" type="curve" smooth="yes"/>
      <point x="390" y="114"/>
      <point x="373" y="130"/>
      <point x="377" y="160" type="curve" smooth="yes"/>
      <point x="391" y="271" type="line"/>
      <point x="448" y="276" type="line"/>
      <point x="491" y="273"/>
      <point x="512" y="250"/>
      <point x="512" y="206" type="curve" smooth="yes"/>
      <point x="512" y="146"/>
      <point x="480" y="114"/>
    </contour>
  </outline>
</glyph>
<glyph name="de-cy" format="2">
  <advance width="454"/>
  <unicode hex="0434"/>
  <outline>
    <contour>
      <point x="156" y="-12" type="curve" smooth="yes"/>
      <point x="326" y="-12"/>
      <point x="452" y="178"/>
      <point x="452" y="432" type="curve" smooth="yes"/>
      <point x="452" y="715"/>
      <point x="296" y="819"/>
      <point x="84" y="678" type="curve"/>
      <point x="81" y="670" type="line"/>
      <point x="83" y="640" type="line"/>
      <point x="236" y="670"/>
      <point x="272" y="617"/>
      <point x="272" y="360" type="curve" smooth="yes"/>
      <point x="272" y="174"/>
      <point x="254" y="91"/>
      <point x="213" y="91" type="curve" smooth="yes"/>
      <point x="188" y="91"/>
      <point x="176" y="121"/>
      <point x="176" y="188" type="curve" smooth="yes"/>
      <point x="176" y="286"/>
      <point x="201" y="368"/>
      <point x="231" y="368" type="curve" smooth="yes"/>
      <point x="244" y="368"/>
      <point x="281" y="353"/>
      <point x="297" y="342" type="curve"/>
      <point x="342" y="447" type="line"/>
      <point x="228" y="477" type="line"/>
      <point x="94" y="437"/>
      <point x="-2" y="307"/>
      <point x="-2" y="163" type="curve" smooth="yes"/>
      <point x="-2" y="52"/>
      <point x="56" y="-12"/>
    </contour>
  </outline>
</glyph>
<glyph name="ze-cy" format="2">
  <advance width="404"/>
  <unicode hex="0437"/>
  <anchor x="178" y="0" name="bottom"/>
  <anchor x="227" y="472" name="top"/>
  <outline>
    <contour>
      <point x="137" y="-10" type="curve" smooth="yes"/>
      <point x="277" y="-10"/>
      <point x="381" y="58"/>
      <point x="381" y="152" type="curve" smooth="yes"/>
      <point x="381" y="200"/>
      <point x="354" y="230"/>
      <point x="285" y="250" type="curve"/>
      <point x="286" y="259" type="line"/>
      <point x="357" y="296"/>
      <point x="397" y="338"/>
      <point x="397" y="383" type="curve" smooth="yes"/>
      <point x="397" y="441"/>
      <point x="336" y="482"/>
      <point x="246" y="482" type="curve" smooth="yes"/>
      <point x="171" y="482"/>
      <point x="100" y="455"/>
      <point x="39" y="402" type="curve"/>
      <point x="77" y="315" type="line"/>
      <point x="92" y="312" type="line"/>
      <point x="127" y="341"/>
      <point x="162" y="358"/>
      <point x="188" y="358" type="curve" smooth="yes"/>
      <point x="206" y="358"/>
      <point x="217" y="351"/>
      <point x="217" y="338" type="curve" smooth="yes"/>
      <point x="217" y="319"/>
      <point x="201" y="297"/>
      <point x="180" y="285" type="curve"/>
      <point x="113" y="282" type="line"/>
      <point x="91" y="196" type="line"/>
      <point x="102" y="181" type="line"/>
      <point x="145" y="181" type="line" smooth="yes"/>
      <point x="190" y="181"/>
      <point x="203" y="176"/>
      <point x="203" y="155" type="curve" smooth="yes"/>
      <point x="203" y="131"/>
      <point x="181" y="114"/>
      <point x="147" y="114" type="curve" smooth="yes"/>
      <point x="117" y="114"/>
      <point x="93" y="127"/>
      <point x="74" y="156" type="curve"/>
      <point x="31" y="155" type="line"/>
      <point x="-15" y="36" type="line"/>
      <point x="-11" y="18" type="line"/>
      <point x="34" y="-1"/>
      <point x="83" y="-10"/>
    </contour>
  </outline>
</glyph>
<glyph name="en-cy" format="2">
  <advance width="563"/>
  <unicode hex="043D"/>
  <anchor x="245" y="0" name="bottom"/>
  <anchor x="506" y="10" name="ogonek"/>
  <anchor x="569" y="143" name="serif"/>
  <anchor x="303" y="472" name="top"/>
  <outline>
    <contour>
      <point x="57" y="-7" type="line"/>
      <point x="133" y="-7"/>
      <point x="200" y="17"/>
      <point x="204" y="45" type="curve" smooth="yes"/>
      <point x="234" y="256" type="line" smooth="yes"/>
      <point x="242" y="311"/>
      <point x="261" y="401"/>
      <point x="276" y="452" type="curve"/>
      <point x="263" y="473" type="line"/>
      <point x="182" y="466"/>
      <point x="92" y="461"/>
      <point x="43" y="461" type="curve"/>
      <point x="31" y="379" type="line"/>
      <point x="58" y="379" type="line" smooth="yes"/>
      <point x="85" y="379"/>
      <point x="93" y="367"/>
      <point x="88" y="336" type="curve" smooth="yes"/>
      <point x="81" y="294"/>
      <point x="55" y="129"/>
      <point x="37" y="16" type="curve"/>
    </contour>
    <contour>
      <point x="171" y="170" type="line"/>
      <point x="219" y="176"/>
      <point x="275" y="180"/>
      <point x="288" y="180" type="curve"/>
      <point x="342" y="179" type="line"/>
      <point x="361" y="296" type="line"/>
      <point x="338" y="293"/>
      <point x="318" y="292"/>
      <point x="278" y="292" type="curve" smooth="yes"/>
      <point x="250" y="292"/>
      <point x="222" y="294"/>
      <point x="193" y="296" type="curve"/>
    </contour>
    <contour>
      <point x="549" y="191" type="line"/>
      <point x="526" y="195" type="line"/>
      <point x="483" y="157"/>
      <point x="480" y="154"/>
      <point x="474" y="154" type="curve"/>
      <point x="470" y="157" type="line"/>
      <point x="486" y="259"/>
      <point x="508" y="360"/>
      <point x="535" y="458" type="curve"/>
      <point x="520" y="476" type="line"/>
      <point x="369" y="472" type="line"/>
      <point x="356" y="457" type="line"/>
      <point x="293" y="55" type="line"/>
      <point x="288" y="17"/>
      <point x="316" y="-12"/>
      <point x="359" y="-12" type="curve" smooth="yes"/>
      <point x="415" y="-12"/>
      <point x="466" y="26"/>
      <point x="569" y="143" type="curve"/>
    </contour>
  </outline>
</glyph>
<glyph name="ef-cy" format="2">
  <advance width="664"/>
  <unicode hex="0444"/>
  <outline>
    <contour>
      <point x="123" y="-242" type="curve" smooth="yes"/>
      <point x="234" y="-242"/>
      <point x="353" y="-131"/>
      <point x="370" y="-9" type="curve" smooth="yes"/>
      <point x="442" y="525" type="line" smooth="yes"/>
      <point x="449" y="573"/>
      <point x="466" y="592"/>
      <point x="498" y="592" type="curve" smooth="yes"/>
      <point x="524" y="592"/>
      <point x="550" y="578"/>
      <point x="577" y="552" type="curve"/>
      <point x="598" y="554" type="line"/>
      <point x="612" y="560"/>
      <point x="647" y="634"/>
      <point x="647" y="658" type="curve" smooth="yes"/>
      <point x="647" y="685"/>
      <point x="608" y="706"/>
      <point x="556" y="706" type="curve" smooth="yes"/>
      <point x="433" y="706"/>
      <point x="306" y="595"/>
      <point x="291" y="476" type="curve" smooth="yes"/>
      <point x="222" y="-61" type="line" smooth="yes"/>
      <point x="216" y="-107"/>
      <point x="198" y="-127"/>
      <point x="166" y="-127" type="curve" smooth="yes"/>
      <point x="139" y="-127"/>
      <point x="110" y="-112"/>
      <point x="89" y="-87" type="curve"/>
      <point x="67" y="-87" type="line"/>
      <point x="42" y="-116"/>
      <point x="20" y="-169"/>
      <point x="20" y="-189" type="curve" smooth="yes"/>
      <point x="20" y="-225"/>
      <point x="80" y="-242"/>
    </contour>
    <contour>
      <point x="149" y="-17" type="curve"/>
      <point x="176" y="3"/>
      <point x="205" y="36"/>
      <point x="233" y="80" type="curve"/>
      <point x="276" y="80" type="line"/>
      <point x="291" y="257" type="line"/>
      <point x="259" y="195"/>
      <point x="207" y="119"/>
      <point x="185" y="119" type="curve" smooth="yes"/>
      <point x="174" y="119"/>
      <point x="167" y="134"/>
      <point x="167" y="175" type="curve" smooth="yes"/>
      <point x="167" y="260"/>
      <point x="186" y="362"/>
      <point x="227" y="362" type="curve" smooth="yes"/>
      <point x="240" y="362"/>
      <point x="272" y="350"/>
      <point x="312" y="307" type="curve"/>
      <point x="363" y="412" type="line"/>
      <point x="255" y="472" type="line"/>
      <point x="120" y="461"/>
      <point x="-4" y="313"/>
      <point x="-4" y="155" type="curve" smooth="yes"/>
      <point x="-4" y="46"/>
      <point x="55" y="-17"/>
    </contour>
    <contour>
      <point x="406" y="-8" type="line"/>
      <point x="543" y="3"/>
      <point x="667" y="151"/>
      <point x="667" y="309" type="curve" smooth="yes"/>
      <point x="667" y="418"/>
      <point x="607" y="481"/>
      <point x="514" y="481" type="curve"/>
      <point x="486" y="461"/>
      <point x="458" y="428"/>
      <point x="430" y="384" type="curve"/>
      <point x="387" y="384" type="line"/>
      <point x="372" y="215" type="line"/>
      <point x="404" y="277"/>
      <point x="455" y="353"/>
      <point x="477" y="353" type="curve" smooth="yes"/>
      <point x="489" y="353"/>
      <point x="495" y="338"/>
      <point x="495" y="297" type="curve" smooth="yes"/>
      <point x="495" y="212"/>
      <point x="477" y="110"/>
      <point x="436" y="110" type="curve" smooth="yes"/>
      <point x="422" y="110"/>
      <point x="390" y="122"/>
      <point x="351" y="165" type="curve"/>
      <point x="299" y="52" type="line"/>
    </contour>
  </outline>
</glyph>
<glyph name="yat-cy" format="2">
  <advance width="740"/>
  <unicode hex="0463"/>
  <outline>
    <contour>
      <point x="604" y="361" type="curve"/>
      <point x="570" y="343"/>
      <point x="541" y="313"/>
      <point x="495" y="245" type="curve"/>
      <point x="485" y="248" type="line"/>
      <point x="505" y="333" type="line" smooth="yes"/>
      <point x="528" y="432"/>
      <point x="485" y="479"/>
      <point x="365" y="485" type="curve"/>
      <point x="331" y="461"/>
      <point x="293" y="399"/>
      <point x="253" y="303" type="curve"/>
      <point x="230" y="300" type="line"/>
      <point x="204" y="79" type="line"/>
      <point x="248" y="217"/>
      <point x="299" y="319"/>
      <point x="321" y="319" type="curve" smooth="yes"/>
      <point x="336" y="319"/>
      <point x="341" y="300"/>
      <point x="333" y="271" type="curve" smooth="yes"/>
      <point x="281" y="77" type="line"/>
      <point x="293" y="54" type="line"/>
      <point x="335" y="16"/>
      <point x="417" y="-11"/>
      <point x="497" y="-11" type="curve" smooth="yes"/>
      <point x="624" y="-11"/>
      <point x="740" y="99"/>
      <point x="747" y="226" type="curve" smooth="yes"/>
      <point x="752" y="311"/>
      <point x="701" y="361"/>
    </contour>
    <contour>
      <point x="580" y="195" type="curve" smooth="yes"/>
      <point x="576" y="140"/>
      <point x="557" y="100"/>
      <point x="532" y="100" type="curve" smooth="yes"/>
      <point x="518" y="100"/>
      <point x="500" y="108"/>
      <point x="481" y="120" type="curve"/>
      <point x="509" y="179"/>
      <point x="554" y="241"/>
      <point x="571" y="241" type="curve" smooth="yes"/>
      <point x="578" y="241"/>
      <point x="582" y="224"/>
    </contour>
    <contour>
      <point x="58" y="-7" type="line"/>
      <point x="134" y="-7"/>
      <point x="201" y="17"/>
      <point x="205" y="45" type="curve" smooth="yes"/>
      <point x="214" y="120" type="line"/>
      <point x="244" y="288" type="line"/>
      <point x="250" y="334"/>
      <point x="265" y="409"/>
      <point x="277" y="452" type="curve"/>
      <point x="264" y="473" type="line"/>
      <point x="183" y="466"/>
      <point x="93" y="461"/>
      <point x="44" y="461" type="curve"/>
      <point x="32" y="379" type="line"/>
      <point x="59" y="379" type="line" smooth="yes"/>
      <point x="86" y="379"/>
      <point x="94" y="367"/>
      <point x="89" y="336" type="curve" smooth="yes"/>
      <point x="82" y="294"/>
      <point x="56" y="129"/>
      <point x="38" y="16" type="curve"/>
    </contour>
  </outline>
</glyph>
<glyph name="Gheupturn-cy" format="2">
  <advance width="527"/>
  <unicode hex="0490"/>
  <outline>
    <contour>
      <point x="473" y="809" type="line"/>
      <point x="440" y="713" type="line" smooth="yes"/>
      <point x="423" y="659"/>
      <point x="403" y="647"/>
      <point x="301" y="647" type="curve" smooth="yes"/>
      <point x="237" y="647"/>
      <point x="136" y="649"/>
      <point x="77" y="650" type="curve"/>
      <point x="62" y="571" type="line"/>
      <point x="76" y="556" type="line"/>
      <point x="80" y="557"/>
      <point x="93" y="559"/>
      <point x="103" y="559" type="curve" smooth="yes"/>
      <point x="121" y="559"/>
      <point x="122" y="553"/>
      <point x="117" y="509" type="curve" smooth="yes"/>
      <point x="75" y="174" type="line" smooth="yes"/>
      <point x="67" y="114"/>
      <point x="47" y="91"/>
      <point x="-3" y="83" type="curve"/>
      <point x="-17" y="-10" type="line"/>
      <point x="34" y="-4"/>
      <point x="118" y="0"/>
      <point x="190" y="0" type="curve" smooth="yes"/>
      <point x="223" y="0"/>
      <point x="299" y="-2"/>
      <point x="347" y="-3" type="curve"/>
      <point x="369" y="105" type="line"/>
      <point x="352" y="124" type="line"/>
      <point x="334" y="119"/>
      <point x="312" y="115"/>
      <point x="293" y="115" type="curve" smooth="yes"/>
      <point x="263" y="115"/>
      <point x="260" y="123"/>
      <point x="266" y="171" type="curve"/>
      <point x="317" y="496" type="line"/>
      <point x="320" y="519"/>
      <point x="330" y="527"/>
      <point x="364" y="527" type="curve" smooth="yes"/>
      <point x="407" y="527"/>
      <point x="464" y="523"/>
      <point x="537" y="516" type="curve"/>
      <point x="551" y="528" type="line"/>
      <point x="567" y="630"/>
      <point x="586" y="733"/>
      <point x="599" y="797" type="curve"/>
    </contour>
  </outline>
</glyph>
<glyph name="Zedescender-cy" format="2">
  <advance width="576"/>
  <unicode hex="0498"/>
  <anchor x="245" y="0" name="bottom"/>
  <anchor x="344" y="647" name="top"/>
  <outline>
    <contour>
      <point x="179" y="-192" type="line"/>
      <point x="293" y="-182" type="line"/>
      <point x="316" y="-74" type="line" smooth="yes"/>
      <point x="327" y="-23"/>
      <point x="349" y="6"/>
      <point x="396" y="31" type="curve"/>
      <point x="134" y="35" type="line"/>
      <point x="176" y="8"/>
      <point x="187" y="-16"/>
      <point x="185" y="-66" type="curve" smooth="yes"/>
    </contour>
    <contour>
      <point x="204" y="-12" type="curve" smooth="yes"/>
      <point x="418" y="-12"/>
      <point x="533" y="54"/>
      <point x="550" y="190" type="curve" smooth="yes"/>
      <point x="559" y="268"/>
      <point x="523" y="321"/>
      <point x="448" y="350" type="curve"/>
      <point x="521" y="393"/>
      <point x="553" y="435"/>
      <point x="559" y="488" type="curve" smooth="yes"/>
      <point x="572" y="596"/>
      <point x="487" y="656"/>
      <point x="317" y="656" type="curve" smooth="yes"/>
      <point x="264" y="656"/>
      <point x="204" y="649"/>
      <point x="118" y="631" type="curve"/>
      <point x="102" y="618" type="line"/>
      <point x="95" y="550"/>
      <point x="83" y="479"/>
      <point x="73" y="439" type="curve"/>
      <point x="206" y="439" type="line"/>
      <point x="220" y="507"/>
      <point x="234" y="522"/>
      <point x="285" y="522" type="curve" smooth="yes"/>
      <point x="341" y="522"/>
      <point x="362" y="507"/>
      <point x="357" y="468" type="curve" smooth="yes"/>
      <point x="353" y="440"/>
      <point x="334" y="410"/>
      <point x="310" y="394" type="curve"/>
      <point x="187" y="391" type="line"/>
      <point x="163" y="280" type="line"/>
      <point x="173" y="266" type="line"/>
      <point x="294" y="269" type="line"/>
      <point x="331" y="254"/>
      <point x="346" y="229"/>
      <point x="342" y="195" type="curve" smooth="yes"/>
      <point x="335" y="143"/>
      <point x="298" y="113"/>
      <point x="241" y="113" type="curve" smooth="yes"/>
      <point x="179" y="113"/>
      <point x="169" y="130"/>
      <point x="181" y="216" type="curve"/>
      <point x="57" y="212" type="line"/>
      <point x="42" y="201" type="line"/>
      <point x="40" y="163"/>
      <point x="32" y="107"/>
      <point x="17" y="25" type="curve"/>
      <point x="31" y="6" type="line"/>
      <point x="89" y="-5"/>
      <point x="152" y="-12"/>
    </contour>
  </outline>
</glyph>
<glyph name="kadescender-cy" format="2">
  <advance width="525"/>
  <unicode hex="049B"/>
  <outline>
    <contour>
      <point x="377" y="-208" type="line"/>
      <point x="409" y="-172"/>
      <point x="425" y="-142"/>
      <point x="449" y="-64" type="curve" smooth="yes"/>
      <point x="491" y="73" type="line"/>
      <point x="391" y="17" type="line"/>
      <point x="345" y="-33"/>
      <point x="300" y="-74"/>
      <point x="247" y="-111" type="curve"/>
      <point x="247" y="-137" type="line"/>
    </contour>
    <contour>
      <point x="194" y="42" type="line"/>
      <point x="306" y="280"/>
      <point x="353" y="324"/>
      <point x="477" y="306" type="curve"/>
      <point x="494" y="323" type="line"/>
      <point x="504" y="367"/>
      <point x="499" y="432"/>
      <point x="483" y="469" type="curve"/>
      <point x="369" y="492"/>
      <point x="283" y="383"/>
      <point x="158" y="59" type="curve"/>
    </contour>
    <contour>
      <point x="57" y="-7" type="line"/>
      <point x="133" y="-7"/>
      <point x="201" y="17"/>
      <point x="204" y="45" type="curve" smooth="yes"/>
      <point x="213" y="120" type="line"/>
      <point x="253" y="249" type="line"/>
      <point x="233" y="254" type="line"/>
      <point x="243" y="322"/>
      <point x="262" y="410"/>
      <point x="276" y="452" type="curve"/>
      <point x="263" y="473" type="line"/>
      <point x="177" y="466"/>
      <point x="91" y="461"/>
      <point x="43" y="461" type="curve"/>
      <point x="31" y="379" type="line"/>
      <point x="58" y="379" type="line" smooth="yes"/>
      <point x="85" y="379"/>
      <point x="93" y="367"/>
      <point x="88" y="336" type="curve" smooth="yes"/>
      <point x="81" y="294"/>
      <point x="55" y="129"/>
      <point x="37" y="16" type="curve"/>
    </contour>
    <contour>
      <point x="381" y="-10" type="curve"/>
      <point x="419" y="10"/>
      <point x="455" y="37"/>
      <point x="491" y="73" type="curve"/>
      <point x="490" y="98" type="line"/>
      <point x="459" y="110"/>
      <point x="441" y="125"/>
      <point x="426" y="152" type="curve" smooth="yes"/>
      <point x="348" y="292" type="line"/>
      <point x="241" y="194" type="line"/>
      <point x="277" y="85" type="line" smooth="yes"/>
      <point x="298" y="20"/>
      <point x="317" y="3"/>
    </contour>
  </outline>
</glyph>
<glyph name="Kabashkir-cy" format="2">
  <advance width="785"/>
  <unicode hex="04A0"/>
  <outline>
    <contour>
      <point x="94" y="-5" type="line"/>
      <point x="169" y="-2"/>
      <point x="226" y="0"/>
      <point x="258" y="0" type="curve" smooth="yes"/>
      <point x="279" y="0"/>
      <point x="351" y="-2"/>
      <point x="415" y="-4" type="curve"/>
      <point x="430" y="79" type="line"/>
      <point x="419" y="91" type="line"/>
      <point x="416" y="89"/>
      <point x="403" y="86"/>
      <point x="387" y="86" type="curve" smooth="yes"/>
      <point x="364" y="86"/>
      <point x="362" y="97"/>
      <point x="370" y="151" type="curve"/>
      <point x="421" y="495" type="line" smooth="yes"/>
      <point x="427" y="541"/>
      <point x="445" y="555"/>
      <point x="505" y="562" type="curve"/>
      <point x="520" y="652" type="line"/>
      <point x="328" y="647" type="line"/>
      <point x="185" y="647" type="line"/>
      <point x="70" y="658" type="line"/>
      <point x="56" y="648" type="line"/>
      <point x="48" y="578"/>
      <point x="31" y="465"/>
      <point x="17" y="386" type="curve"/>
      <point x="138" y="386" type="line"/>
      <point x="160" y="494"/>
      <point x="178" y="526"/>
      <point x="219" y="526" type="curve" smooth="yes"/>
      <point x="226" y="526"/>
      <point x="226" y="527"/>
      <point x="224" y="514" type="curve"/>
      <point x="182" y="166" type="line"/>
      <point x="175" y="109"/>
      <point x="159" y="91"/>
      <point x="106" y="80" type="curve"/>
    </contour>
    <contour>
      <point x="596" y="-16" type="curve"/>
      <point x="744" y="-5" type="line"/>
      <point x="760" y="67" type="line"/>
      <point x="748" y="83" type="line"/>
      <point x="717" y="83"/>
      <point x="686" y="110"/>
      <point x="667" y="166" type="curve" smooth="yes"/>
      <point x="580" y="426" type="line"/>
      <point x="558" y="388" type="line"/>
      <point x="316" y="401" type="line"/>
      <point x="300" y="269" type="line"/>
      <point x="436" y="269" type="line"/>
      <point x="497" y="79" type="line" smooth="yes"/>
      <point x="518" y="10"/>
      <point x="545" y="-16"/>
    </contour>
    <contour>
      <point x="531" y="241" type="line"/>
      <point x="645" y="401" type="line" smooth="yes"/>
      <point x="692" y="470"/>
      <point x="716" y="483"/>
      <point x="801" y="476" type="curve"/>
      <point x="819" y="493" type="line"/>
      <point x="819" y="553"/>
      <point x="808" y="602"/>
      <point x="781" y="655" type="curve"/>
      <point x="672" y="654"/>
      <point x="628" y="631"/>
      <point x="560" y="526" type="curve" smooth="yes"/>
      <point x="427" y="317" type="line"/>
    </contour>
  </outline>
</glyph>
<glyph name="Cheverticalstroke-cy" format="2">
  <advance width="702"/>
  <unicode hex="04B8"/>
  <anchor x="355" y="306" name="_center"/>
  <outline>
    <contour>
      <point x="660" y="-2" type="curve"/>
      <point x="675" y="81" type="line"/>
      <point x="665" y="93" type="line"/>
      <point x="660" y="92"/>
      <point x="649" y="89"/>
      <point x="635" y="89" type="curve" smooth="yes"/>
      <point x="610" y="89"/>
      <point x="605" y="102"/>
      <point x="613" y="164" type="curve" smooth="yes"/>
      <point x="628" y="283"/>
      <point x="649" y="427"/>
      <point x="665" y="502" type="curve" smooth="yes"/>
      <point x="672" y="544"/>
      <point x="685" y="555"/>
      <point x="733" y="563" type="curve"/>
      <point x="745" y="652" type="line"/>
      <point x="653" y="649"/>
      <point x="594" y="647"/>
      <point x="570" y="647" type="curve" smooth="yes"/>
      <point x="535" y="647"/>
      <point x="467" y="647"/>
      <point x="423" y="647" type="curve"/>
      <point x="410" y="572" type="line"/>
      <point x="420" y="558" type="line"/>
      <point x="426" y="558"/>
      <point x="438" y="559"/>
      <point x="448" y="559" type="curve" smooth="yes"/>
      <point x="469" y="559"/>
      <point x="470" y="553"/>
      <point x="465" y="512" type="curve" smooth="yes"/>
      <point x="422" y="166" type="line" smooth="yes"/>
      <point x="415" y="112"/>
      <point x="392" y="87"/>
      <point x="345" y="86" type="curve"/>
      <point x="333" y="-1" type="line"/>
      <point x="383" y="-1"/>
      <point x="461" y="0"/>
      <point x="497" y="0" type="curve" smooth="yes"/>
      <point x="546" y="0"/>
      <point x="618" y="-1"/>
    </contour>
    <contour>
      <point x="531" y="263" type="curve"/>
      <point x="541" y="368" type="line"/>
      <point x="366" y="336" type="line"/>
      <point x="296" y="346"/>
      <point x="269" y="374"/>
      <point x="279" y="437" type="curve" smooth="yes"/>
      <point x="289" y="506" type="line" smooth="yes"/>
      <point x="295" y="542"/>
      <point x="307" y="553"/>
      <point x="352" y="561" type="curve"/>
      <point x="364" y="652" type="line"/>
      <point x="275" y="649"/>
      <point x="203" y="647"/>
      <point x="173" y="647" type="curve" smooth="yes"/>
      <point x="62" y="647" type="line"/>
      <point x="46" y="572" type="line"/>
      <point x="56" y="557" type="line"/>
      <point x="63" y="558"/>
      <point x="68" y="559"/>
      <point x="79" y="559" type="curve" smooth="yes"/>
      <point x="94" y="559"/>
      <point x="95" y="553"/>
      <point x="92" y="527" type="curve" smooth="yes"/>
      <point x="80" y="427" type="line" smooth="yes"/>
      <point x="56" y="235"/>
      <point x="251" y="161"/>
    </contour>
    <contour>
      <point x="300" y="139" type="line"/>
      <point x="369" y="145" type="line"/>
      <point x="391" y="319" type="line"/>
      <point x="410" y="457" type="line"/>
      <point x="393" y="470" type="line"/>
      <point x="327" y="464" type="line"/>
      <point x="310" y="310" type="line"/>
      <point x="289" y="152" type="line"/>
    </contour>
  </outline>
</glyph>
<glyph name="Entail-cy" format="2">
  <advance width="765"/>
  <unicode hex="04C9"/>
  <outline>
    <contour>
      <point x="607" y="-176" type="line"/>
      <point x="725" y="72" type="line"/>
      <point x="719" y="100" type="line"/>
      <point x="681" y="102" type="line" smooth="yes"/>
      <point x="652" y="104"/>
      <point x="642" y="116"/>
      <point x="642" y="150" type="curve" smooth="yes"/>
      <point x="642" y="153"/>
      <point x="670" y="380"/>
      <point x="695" y="511" type="curve" smooth="yes"/>
      <point x="702" y="548"/>
      <point x="712" y="557"/>
      <point x="760" y="565" type="curve"/>
      <point x="777" y="652" type="line"/>
      <point x="685" y="649"/>
      <point x="627" y="647"/>
      <point x="606" y="647" type="curve" smooth="yes"/>
      <point x="448" y="647" type="line"/>
      <point x="431" y="573" type="line"/>
      <point x="438" y="559" type="line"/>
      <point x="464" y="560" type="line"/>
      <point x="491" y="560"/>
      <point x="498" y="549"/>
      <point x="493" y="509" type="curve" smooth="yes"/>
      <point x="478" y="388" type="line"/>
      <point x="456" y="386"/>
      <point x="433" y="385"/>
      <point x="397" y="385" type="curve"/>
      <point x="317" y="388" type="line"/>
      <point x="337" y="510" type="line" smooth="yes"/>
      <point x="343" y="547"/>
      <point x="353" y="555"/>
      <point x="395" y="563" type="curve"/>
      <point x="413" y="652" type="line"/>
      <point x="318" y="649"/>
      <point x="247" y="647"/>
      <point x="218" y="647" type="curve" smooth="yes"/>
      <point x="92" y="647" type="line"/>
      <point x="75" y="573" type="line"/>
      <point x="82" y="559" type="line"/>
      <point x="88" y="559"/>
      <point x="100" y="560"/>
      <point x="107" y="560" type="curve" smooth="yes"/>
      <point x="134" y="560"/>
      <point x="141" y="550"/>
      <point x="136" y="509" type="curve" smooth="yes"/>
      <point x="93" y="160" type="line" smooth="yes"/>
      <point x="86" y="105"/>
      <point x="73" y="90"/>
      <point x="20" y="79" type="curve"/>
      <point x="2" y="-5" type="line"/>
      <point x="71" y="-2"/>
      <point x="132" y="0"/>
      <point x="164" y="0" type="curve" smooth="yes"/>
      <point x="193" y="0"/>
      <point x="269" y="-2"/>
      <point x="321" y="-4" type="curve"/>
      <point x="340" y="79" type="line"/>
      <point x="334" y="89" type="line"/>
      <point x="326" y="87"/>
      <point x="316" y="86"/>
      <point x="307" y="86" type="curve" smooth="yes"/>
      <point x="283" y="86"/>
      <point x="279" y="99"/>
      <point x="286" y="155" type="curve" smooth="yes"/>
      <point x="298" y="257" type="line"/>
      <point x="343" y="262"/>
      <point x="393" y="266"/>
      <point x="407" y="266" type="curve" smooth="yes"/>
      <point x="424" y="266"/>
      <point x="448" y="265"/>
      <point x="464" y="265" type="curve"/>
      <point x="451" y="162" type="line" smooth="yes"/>
      <point x="444" y="107"/>
      <point x="423" y="86"/>
      <point x="377" y="85" type="curve"/>
      <point x="358" y="-1" type="line"/>
      <point x="392" y="-1"/>
      <point x="440" y="0"/>
      <point x="477" y="0" type="curve" smooth="yes"/>
      <point x="525" y="0"/>
      <point x="533" y="-12"/>
      <point x="517" y="-58" type="curve" smooth="yes"/>
      <point x="485" y="-149" type="line"/>
    </contour>
  </outline>
</glyph>
<glyph name="entail-cy" format="2">
  <advance width="567"/>
  <unicode hex="04CA"/>
  <outline>
    <contour>
      <point x="57" y="-7" type="line"/>
      <point x="133" y="-7"/>
      <point x="200" y="17"/>
      <point x="204" y="45" type="curve" smooth="yes"/>
      <point x="234" y="256" type="line" smooth="yes"/>
      <point x="242" y="311"/>
      <point x="261" y="401"/>
      <point x="276" y="452" type="curve"/>
      <point x="263" y="473" type="line"/>
      <point x="182" y="466"/>
      <point x="92" y="461"/>
      <point x="43" y="461" type="curve"/>
      <point x="31" y="379" type="line"/>
      <point x="58" y="379" type="line" smooth="yes"/>
      <point x="85" y="379"/>
      <point x="93" y="367"/>
      <point x="88" y="336" type="curve" smooth="yes"/>
      <point x="78" y="275"/>
      <point x="60" y="160"/>
      <point x="37" y="16" type="curve"/>
    </contour>
    <contour>
      <point x="171" y="170" type="line"/>
      <point x="219" y="176"/>
      <point x="275" y="180"/>
      <point x="288" y="180" type="curve"/>
      <point x="342" y="179" type="line"/>
      <point x="361" y="296" type="line"/>
      <point x="338" y="293"/>
      <point x="316" y="292"/>
      <point x="288" y="292" type="curve" smooth="yes"/>
      <point x="248" y="292"/>
      <point x="222" y="294"/>
      <point x="193" y="296" type="curve"/>
    </contour>
    <contour>
      <point x="550" y="191" type="line"/>
      <point x="527" y="195" type="line"/>
      <point x="484" y="157"/>
      <point x="481" y="154"/>
      <point x="475" y="154" type="curve"/>
      <point x="471" y="157" type="line"/>
      <point x="475" y="185"/>
      <point x="479" y="213"/>
      <point x="484" y="239" type="curve" smooth="yes"/>
      <point x="497" y="307"/>
      <point x="513" y="379"/>
      <point x="535" y="458" type="curve"/>
      <point x="520" y="476" type="line"/>
      <point x="369" y="472" type="line"/>
      <point x="356" y="457" type="line"/>
      <point x="294" y="55" type="line"/>
      <point x="294" y="10"/>
      <point x="317" y="-12"/>
      <point x="360" y="-12" type="curve" smooth="yes"/>
      <point x="402" y="-12"/>
      <point x="430" y="10"/>
      <point x="570" y="143" type="curve"/>
    </contour>
    <contour>
      <point x="274" y="-186" type="curve"/>
      <point x="274" y="-199" type="line"/>
      <point x="290" y="-235" type="line"/>
      <point x="386" y="-244"/>
      <point x="461" y="-200"/>
      <point x="461" y="-134" type="curve" smooth="yes"/>
      <point x="461" y="-96"/>
      <point x="432" y="-72"/>
      <point x="432" y="-42" type="curve" smooth="yes"/>
      <point x="432" y="-13"/>
      <point x="460" y="29"/>
      <point x="570" y="143" type="curve"/>
      <point x="510" y="136" type="line"/>
      <point x="355" y="3"/>
      <point x="324" y="-32"/>
      <point x="321" y="-72" type="curve" smooth="yes"/>
      <point x="321" y="-99"/>
      <point x="327" y="-121"/>
      <point x="327" y="-145" type="curve" smooth="yes"/>
      <point x="327" y="-168"/>
      <point x="308" y="-183"/>
    </contour>
  </outline>
</glyph>
<glyph name="obarred-cy" format="2">
  <advance width="463"/>
  <unicode hex="04E9"/>
  <anchor x="202" y="0" name="bottom"/>
  <anchor x="231" y="236" name="center"/>
  <anchor x="307" y="41" name="ogonek"/>
  <anchor x="260" y="472" name="top"/>
  <anchor x="485" y="472" name="topright"/>
  <outline>
    <contour>
      <point x="403" y="178" type="line"/>
      <point x="418" y="281" type="line"/>
      <point x="249" y="279" type="line"/>
      <point x="52" y="279" type="line"/>
      <point x="40" y="177" type="line"/>
    </contour>
    <contour>
      <point x="185" y="-12" type="curve" smooth="yes"/>
      <point x="350" y="-12"/>
      <point x="458" y="110"/>
      <point x="458" y="294" type="curve" smooth="yes"/>
      <point x="458" y="417"/>
      <point x="394" y="484"/>
      <point x="277" y="484" type="curve" smooth="yes"/>
      <point x="113" y="484"/>
      <point x="5" y="365"/>
      <point x="5" y="185" type="curve" smooth="yes"/>
      <point x="5" y="59"/>
      <point x="71" y="-12"/>
    </contour>
    <contour>
      <point x="225" y="95" type="curve" smooth="yes"/>
      <point x="195" y="95"/>
      <point x="184" y="125"/>
      <point x="184" y="217" type="curve" smooth="yes"/>
      <point x="184" y="327"/>
      <point x="198" y="364"/>
      <point x="238" y="364" type="curve" smooth="yes"/>
      <point x="268" y="364"/>
      <point x="278" y="333"/>
      <point x="278" y="257" type="curve" smooth="yes"/>
      <point x="278" y="130"/>
      <point x="264" y="95"/>
    </contour>
  </outline>
</glyph>
<glyph name="prosgegrammeni" format="2">
  <advance width="269"/>
  <unicode hex="1FBE"/>
  <anchor x="132" y="409" name="top"/>
  <outline>
    <contour>
      <point x="135" y="-6" type="curve"/>
      <point x="185" y="33"/>
      <point x="228" y="96"/>
      <point x="247" y="157" type="curve"/>
      <point x="234" y="175" type="line"/>
      <point x="181" y="151"/>
      <point x="156" y="148"/>
      <point x="164" y="172" type="curve" smooth="yes"/>
      <point x="236" y="373" type="line"/>
      <point x="192" y="390"/>
      <point x="140" y="406"/>
      <point x="82" y="420" type="curve"/>
      <point x="64" y="408" type="line"/>
      <point x="40" y="113" type="line" smooth="yes"/>
      <point x="34" y="34"/>
      <point x="65" y="-6"/>
    </contour>
  </outline>
</glyph>
<glyph name="perispomeni" format="2">
  <advance width="347"/>
  <unicode hex="1FC0"/>
  <anchor x="218" y="472" name="_top"/>
  <outline>
    <contour>
      <point x="103" y="525" type="line"/>
      <point x="119" y="525" type="line"/>
      <point x="119" y="525"/>
      <point x="157" y="583"/>
      <point x="181" y="583" type="curve" smooth="yes"/>
      <point x="204" y="583"/>
      <point x="280" y="549"/>
      <point x="308" y="549" type="curve"/>
      <point x="325" y="553" type="line"/>
      <point x="400" y="668" type="line"/>
      <point x="400" y="684" type="line"/>
      <point x="341" y="738" type="line"/>
      <point x="325" y="738" type="line"/>
      <point x="325" y="738"/>
      <point x="286" y="680"/>
      <point x="263" y="680" type="curve" smooth="yes"/>
      <point x="240" y="680"/>
      <point x="163" y="714"/>
      <point x="136" y="714" type="curve"/>
      <point x="119" y="710" type="line"/>
      <point x="44" y="595" type="line"/>
      <point x="44" y="579" type="line"/>
    </contour>
  </outline>
</glyph>
<glyph name="dialytikaperispomeni" format="2">
  <advance width="448"/>
  <unicode hex="1FC1"/>
  <anchor x="285" y="472" name="_top"/>
  <outline>
    <contour>
      <point x="364" y="518" type="curve" smooth="yes"/>
      <point x="404" y="518"/>
      <point x="429" y="543"/>
      <point x="429" y="583" type="curve" smooth="yes"/>
      <point x="429" y="622"/>
      <point x="407" y="643"/>
      <point x="369" y="643" type="curve" smooth="yes"/>
      <point x="329" y="643"/>
      <point x="304" y="618"/>
      <point x="304" y="578" type="curve" smooth="yes"/>
      <point x="304" y="538"/>
      <point x="325" y="518"/>
    </contour>
    <contour>
      <point x="204" y="518" type="curve" smooth="yes"/>
      <point x="244" y="518"/>
      <point x="269" y="543"/>
      <point x="269" y="583" type="curve" smooth="yes"/>
      <point x="269" y="622"/>
      <point x="247" y="643"/>
      <point x="210" y="643" type="curve" smooth="yes"/>
      <point x="170" y="643"/>
      <point x="145" y="618"/>
      <point x="145" y="578" type="curve" smooth="yes"/>
      <point x="145" y="538"/>
      <point x="165" y="518"/>
    </contour>
    <component base="perispomeni" xyScale="0.036" yxScale="-0.032" yScale="0.899" xOffset="104" yOffset="178"/>
  </outline>
</glyph>
<glyph name="psilioxia" format="2">
  <advance width="411"/>
  <unicode hex="1FCE"/>
  <guideline x="276" y="508" angle="0"/>
  <anchor x="233" y="472" name="_top"/>
  <anchor x="324" y="767" name="top"/>
  <outline>
    <contour>
      <point x="482" y="705" type="line"/>
      <point x="475" y="720" type="line"/>
      <point x="365" y="767" type="line"/>
      <point x="351" y="759" type="line"/>
      <point x="336" y="686"/>
      <point x="319" y="609"/>
      <point x="300" y="540" type="curve"/>
      <point x="360" y="510" type="line"/>
      <point x="382" y="515" type="line"/>
    </contour>
    <component base="psili" xScale="0.948" xyScale="0.083" yxScale="-0.083" yScale="0.948" xOffset="43" yOffset="12"/>
  </outline>
</glyph>
<glyph name="psiliperispomeni" format="2">
  <advance width="448"/>
  <unicode hex="1FCF"/>
  <anchor x="288" y="472" name="_top"/>
  <anchor x="328" y="884" name="top"/>
  <outline>
    <contour>
      <point x="259" y="496" type="line"/>
      <point x="324" y="531"/>
      <point x="367" y="582"/>
      <point x="367" y="629" type="curve" smooth="yes"/>
      <point x="367" y="665"/>
      <point x="341" y="690"/>
      <point x="305" y="690" type="curve" smooth="yes"/>
      <point x="285" y="690"/>
      <point x="248" y="675"/>
      <point x="230" y="658" type="curve"/>
      <point x="228" y="651" type="line"/>
      <point x="247" y="634"/>
      <point x="256" y="617"/>
      <point x="256" y="600" type="curve" smooth="yes"/>
      <point x="256" y="579"/>
      <point x="243" y="558"/>
      <point x="219" y="537" type="curve"/>
      <point x="219" y="521" type="line"/>
    </contour>
    <component base="perispomeni" xScale="0.899" xyScale="0.032" yxScale="-0.032" yScale="0.899" xOffset="125" yOffset="210"/>
  </outline>
</glyph>
<glyph name="dialytikavaria" format="2">
  <advance width="399"/>
  <unicode hex="1FED"/>
  <anchor x="230" y="472" name="_top"/>
  <outline>
    <contour>
      <point x="223" y="521" type="line"/>
      <point x="288" y="543" type="line"/>
      <point x="274" y="612"/>
      <point x="266" y="684"/>
      <point x="258" y="757" type="curve"/>
      <point x="245" y="765" type="line"/>
      <point x="135" y="733" type="line"/>
      <point x="126" y="719" type="line"/>
      <point x="154" y="656"/>
      <point x="176" y="592"/>
      <point x="204" y="528" type="curve"/>
    </contour>
    <contour>
      <point x="50" y="561" type="curve" smooth="yes"/>
      <point x="98" y="561"/>
      <point x="128" y="592"/>
      <point x="128" y="640" type="curve" smooth="yes"/>
      <point x="128" y="686"/>
      <point x="102" y="712"/>
      <point x="57" y="712" type="curve" smooth="yes"/>
      <point x="9" y="712"/>
      <point x="-21" y="681"/>
      <point x="-21" y="633" type="curve" smooth="yes"/>
      <point x="-21" y="586"/>
      <point x="4" y="561"/>
    </contour>
    <contour>
      <point x="373" y="562" type="curve" smooth="yes"/>
      <point x="421" y="562"/>
      <point x="450" y="593"/>
      <point x="450" y="641" type="curve" smooth="yes"/>
      <point x="450" y="687"/>
      <point x="424" y="713"/>
      <point x="379" y="713" type="curve" smooth="yes"/>
      <point x="331" y="713"/>
      <point x="301" y="682"/>
      <point x="301" y="634" type="curve" smooth="yes"/>
      <point x="301" y="587"/>
      <point x="326" y="562"/>
    </contour>
  </outline>
</glyph>
<glyph name="quoteright" format="2">
  <advance width="260"/>
  <unicode hex="2019"/>
  <outline>
    <contour>
      <point x="77" y="610" type="curve"/>
      <point x="75" y="595" type="line"/>
      <point x="96" y="576"/>
      <point x="110" y="544"/>
      <point x="110" y="516" type="curve" smooth="yes"/>
      <point x="110" y="481"/>
      <point x="88" y="440"/>
      <point x="53" y="411" type="curve"/>
      <point x="55" y="386" type="line"/>
      <point x="116" y="345" type="line"/>
      <point x="212" y="409"/>
      <point x="268" y="488"/>
      <point x="268" y="561" type="curve" smooth="yes"/>
      <point x="268" y="619"/>
      <point x="232" y="661"/>
      <point x="184" y="661" type="curve" smooth="yes"/>
      <point x="152" y="661"/>
      <point x="114" y="643"/>
    </contour>
  </outline>
</glyph>
<glyph name="dagger" format="2">
  <advance width="508"/>
  <unicode hex="2020"/>
  <outline>
    <contour>
      <point x="293" y="311" type="line"/>
      <point x="242" y="308" type="line"/>
      <point x="179" y="-85" type="line"/>
      <point x="189" y="-93" type="line"/>
      <point x="250" y="-84" type="line"/>
    </contour>
    <contour>
      <point x="254" y="401" type="line"/>
      <point x="305" y="404" type="line"/>
      <point x="342" y="590" type="line"/>
      <point x="332" y="598" type="line"/>
      <point x="272" y="589" type="line"/>
    </contour>
    <contour>
      <point x="322" y="386" type="line"/>
      <point x="313" y="333" type="line"/>
      <point x="471" y="328" type="line"/>
      <point x="487" y="390" type="line"/>
      <point x="481" y="399" type="line"/>
    </contour>
    <contour>
      <point x="229" y="333" type="line"/>
      <point x="238" y="386" type="line"/>
      <point x="82" y="391" type="line"/>
      <point x="66" y="329" type="line"/>
      <point x="72" y="318" type="line"/>
    </contour>
  </outline>
</glyph>
<glyph name="minute" format="2">
  <advance width="191"/>
  <unicode hex="2032"/>
  <outline>
    <contour>
      <point x="256" y="630" type="curve"/>
      <point x="252" y="643" type="line"/>
      <point x="136" y="679" type="line"/>
      <point x="116" y="622"/>
      <point x="71" y="512"/>
      <point x="25" y="416" type="curve"/>
      <point x="41" y="406" type="line"/>
      <point x="119" y="406" type="line"/>
      <point x="173" y="488"/>
      <point x="229" y="582"/>
    </contour>
  </outline>
</glyph>
<glyph name="second" format="2">
  <advance width="362"/>
  <unicode hex="2033"/>
  <outline>
    <contour>
      <point x="256" y="630" type="curve"/>
      <point x="252" y="643" type="line"/>
      <point x="136" y="679" type="line"/>
      <point x="116" y="622"/>
      <point x="71" y="512"/>
      <point x="25" y="416" type="curve"/>
      <point x="41" y="406" type="line"/>
      <point x="119" y="406" type="line"/>
      <point x="173" y="488"/>
      <point x="229" y="582"/>
    </contour>
    <contour>
      <point x="256" y="630" type="curve"/>
      <point x="252" y="643" type="line"/>
      <point x="136" y="679" type="line"/>
      <point x="116" y="622"/>
      <point x="71" y="512"/>
      <point x="25" y="416" type="curve"/>
      <point x="41" y="406" type="line"/>
      <point x="119" y="406" type="line"/>
      <point x="173" y="488"/>
      <point x="229" y="582"/>
    </contour>
    <contour>
      <point x="427" y="630" type="curve"/>
      <point x="423" y="643" type="line"/>
      <point x="307" y="679" type="line"/>
      <point x="287" y="622"/>
      <point x="242" y="512"/>
      <point x="196" y="416" type="curve"/>
      <point x="212" y="406" type="line"/>
      <point x="290" y="406" type="line"/>
      <point x="344" y="488"/>
      <point x="400" y="582"/>
    </contour>
  </outline>
</glyph>
<glyph name="zerosuperior" format="2">
  <advance width="344"/>
  <unicode hex="2070"/>
  <outline>
    <contour>
      <point x="138" y="319" type="curve" smooth="yes"/>
      <point x="253" y="319"/>
      <point x="321" y="415"/>
      <point x="321" y="574" type="curve" smooth="yes"/>
      <point x="321" y="676"/>
      <point x="280" y="728"/>
      <point x="203" y="728" type="curve" smooth="yes"/>
      <point x="88" y="728"/>
      <point x="18" y="631"/>
      <point x="18" y="472" type="curve" smooth="yes"/>
      <point x="18" y="371"/>
      <point x="59" y="319"/>
    </contour>
    <contour>
      <point x="164" y="454" type="curve" smooth="yes"/>
      <point x="126" y="454"/>
      <point x="108" y="470"/>
      <point x="108" y="509" type="curve" smooth="yes"/>
      <point x="108" y="568"/>
      <point x="126" y="589"/>
      <point x="173" y="589" type="curve" smooth="yes"/>
      <point x="213" y="589"/>
      <point x="230" y="572"/>
      <point x="230" y="533" type="curve" smooth="yes"/>
      <point x="230" y="474"/>
      <point x="213" y="454"/>
    </contour>
  </outline>
</glyph>
<glyph name="eightsuperior" format="2">
  <advance width="335"/>
  <unicode hex="2078"/>
  <outline>
    <contour>
      <point x="2" y="412" type="curve" smooth="yes"/>
      <point x="2" y="359"/>
      <point x="53" y="319"/>
      <point x="130" y="319" type="curve" smooth="yes"/>
      <point x="225" y="319"/>
      <point x="302" y="381"/>
      <point x="302" y="464" type="curve" smooth="yes"/>
      <point x="302" y="504"/>
      <point x="282" y="530"/>
      <point x="258" y="547" type="curve"/>
      <point x="289" y="562"/>
      <point x="320" y="589"/>
      <point x="320" y="636" type="curve" smooth="yes"/>
      <point x="320" y="687"/>
      <point x="268" y="728"/>
      <point x="198" y="728" type="curve" smooth="yes"/>
      <point x="106" y="728"/>
      <point x="29" y="672"/>
      <point x="29" y="594" type="curve" smooth="yes"/>
      <point x="29" y="554"/>
      <point x="48" y="524"/>
      <point x="72" y="503" type="curve"/>
      <point x="37" y="489"/>
      <point x="2" y="462"/>
    </contour>
    <contour>
      <point x="144" y="397" type="curve" smooth="yes"/>
      <point x="125" y="397"/>
      <point x="113" y="411"/>
      <point x="113" y="434" type="curve" smooth="yes"/>
      <point x="113" y="445"/>
      <point x="113" y="458"/>
      <point x="122" y="471" type="curve"/>
      <point x="151" y="454"/>
      <point x="175" y="442"/>
      <point x="175" y="425" type="curve" smooth="yes"/>
      <point x="175" y="408"/>
      <point x="166" y="397"/>
    </contour>
    <contour>
      <point x="155" y="617" type="curve" smooth="yes"/>
      <point x="155" y="633"/>
      <point x="166" y="644"/>
      <point x="183" y="644" type="curve" smooth="yes"/>
      <point x="200" y="644"/>
      <point x="209" y="633"/>
      <point x="209" y="617" type="curve" smooth="yes"/>
      <point x="209" y="603"/>
      <point x="205" y="591"/>
      <point x="198" y="578" type="curve"/>
      <point x="173" y="589"/>
      <point x="155" y="600"/>
    </contour>
  </outline>
</glyph>
<glyph name="threeinferior" format="2">
  <advance width="322"/>
  <unicode hex="2083"/>
  <outline>
    <contour>
      <point x="15" y="-16" type="curve"/>
      <point x="-4" y="-33" type="line"/>
      <point x="-7" y="-103"/>
      <point x="6" y="-128"/>
      <point x="55" y="-128" type="curve" smooth="yes"/>
      <point x="173" y="-128"/>
      <point x="290" y="-62"/>
      <point x="290" y="13" type="curve" smooth="yes"/>
      <point x="290" y="53"/>
      <point x="264" y="81"/>
      <point x="205" y="103" type="curve"/>
      <point x="205" y="111" type="line"/>
      <point x="257" y="125"/>
      <point x="291" y="163"/>
      <point x="291" y="207" type="curve" smooth="yes"/>
      <point x="291" y="252"/>
      <point x="251" y="281"/>
      <point x="184" y="281" type="curve" smooth="yes"/>
      <point x="145" y="281"/>
      <point x="82" y="264"/>
      <point x="34" y="234" type="curve"/>
      <point x="48" y="160" type="line"/>
      <point x="59" y="160" type="line"/>
      <point x="89" y="178"/>
      <point x="113" y="187"/>
      <point x="130" y="187" type="curve" smooth="yes"/>
      <point x="145" y="187"/>
      <point x="154" y="179"/>
      <point x="154" y="167" type="curve" smooth="yes"/>
      <point x="154" y="147"/>
      <point x="140" y="129"/>
      <point x="113" y="119" type="curve"/>
      <point x="68" y="111" type="line"/>
      <point x="68" y="45" type="line"/>
      <point x="77" y="34" type="line"/>
      <point x="121" y="34"/>
      <point x="141" y="26"/>
      <point x="141" y="8" type="curve" smooth="yes"/>
      <point x="141" y="-15"/>
      <point x="116" y="-29"/>
      <point x="77" y="-29" type="curve" smooth="yes"/>
      <point x="51" y="-29"/>
      <point x="31" y="-24"/>
    </contour>
  </outline>
</glyph>
<glyph name="fiveinferior" format="2">
  <advance width="314"/>
  <unicode hex="2085"/>
  <outline>
    <contour>
      <point x="282" y="26" type="curve" smooth="yes"/>
      <point x="282" y="84"/>
      <point x="243" y="116"/>
      <point x="143" y="135" type="curve"/>
      <point x="148" y="161" type="line"/>
      <point x="214" y="161"/>
      <point x="270" y="156"/>
      <point x="270" y="156" type="curve"/>
      <point x="287" y="170" type="line"/>
      <point x="322" y="295" type="line"/>
      <point x="263" y="292" type="line"/>
      <point x="254" y="272"/>
      <point x="243" y="265"/>
      <point x="217" y="265" type="curve" smooth="yes"/>
      <point x="76" y="261" type="line"/>
      <point x="69" y="256" type="line"/>
      <point x="69" y="256"/>
      <point x="52" y="150"/>
      <point x="31" y="50" type="curve"/>
      <point x="36" y="42" type="line"/>
      <point x="108" y="33"/>
      <point x="136" y="24"/>
      <point x="136" y="5" type="curve" smooth="yes"/>
      <point x="136" y="-15"/>
      <point x="112" y="-29"/>
      <point x="74" y="-29" type="curve" smooth="yes"/>
      <point x="48" y="-29"/>
      <point x="27" y="-24"/>
      <point x="13" y="-16" type="curve"/>
      <point x="-7" y="-33" type="line"/>
      <point x="-10" y="-103"/>
      <point x="4" y="-128"/>
      <point x="52" y="-128" type="curve" smooth="yes"/>
      <point x="167" y="-128"/>
      <point x="282" y="-56"/>
    </contour>
  </outline>
</glyph>
<glyph name="seveninferior" format="2">
  <advance width="312"/>
  <unicode hex="2087"/>
  <outline>
    <contour>
      <point x="128" y="-127" type="line"/>
      <point x="148" y="-127" type="line"/>
      <point x="187" y="-26" type="line"/>
      <point x="243" y="81"/>
      <point x="260" y="114"/>
      <point x="321" y="223" type="curve"/>
      <point x="285" y="273" type="line"/>
      <point x="134" y="273" type="line" smooth="yes"/>
      <point x="93" y="273"/>
      <point x="53" y="276"/>
      <point x="53" y="276" type="curve"/>
      <point x="49" y="273" type="line"/>
      <point x="36" y="199"/>
      <point x="15" y="107"/>
      <point x="15" y="107" type="curve"/>
      <point x="76" y="111" type="line"/>
      <point x="88" y="154"/>
      <point x="97" y="160"/>
      <point x="136" y="165" type="curve" smooth="yes"/>
      <point x="189" y="171" type="line"/>
      <point x="34" y="-81" type="line"/>
      <point x="40" y="-100" type="line"/>
    </contour>
  </outline>
</glyph>
<glyph name="franc" format="2">
  <advance width="488"/>
  <unicode hex="20A3"/>
  <outline>
    <contour>
      <point x="252" y="125" type="curve"/>
      <point x="274" y="125" type="line"/>
      <point x="359" y="125" type="line"/>
      <point x="370" y="185" type="line"/>
      <point x="365" y="191" type="line"/>
      <point x="367" y="191"/>
      <point x="314" y="189"/>
      <point x="262" y="189" type="curve"/>
      <point x="266" y="214" type="line"/>
      <point x="325" y="218" type="line"/>
      <point x="360" y="218"/>
      <point x="420" y="216"/>
      <point x="420" y="216" type="curve"/>
      <point x="439" y="306" type="line"/>
      <point x="430" y="318" type="line"/>
      <point x="430" y="318"/>
      <point x="369" y="314"/>
      <point x="345" y="314" type="curve" smooth="yes"/>
      <point x="324" y="314"/>
      <point x="303" y="315"/>
      <point x="282" y="315" type="curve"/>
      <point x="293" y="382" type="line" smooth="yes"/>
      <point x="296" y="397"/>
      <point x="302" y="401"/>
      <point x="320" y="401" type="curve" smooth="yes"/>
      <point x="320" y="401"/>
      <point x="319" y="401"/>
      <point x="318" y="401" type="curve" smooth="yes"/>
      <point x="355" y="401"/>
      <point x="369" y="394"/>
      <point x="369" y="375" type="curve" smooth="yes"/>
      <point x="369" y="366"/>
      <point x="363" y="344"/>
      <point x="363" y="344" type="curve"/>
      <point x="489" y="351" type="line"/>
      <point x="500" y="418"/>
      <point x="521" y="500"/>
      <point x="521" y="500" type="curve"/>
      <point x="510" y="513" type="line"/>
      <point x="462" y="508"/>
      <point x="358" y="504"/>
      <point x="278" y="504" type="curve" smooth="yes"/>
      <point x="222" y="504" type="line" smooth="yes"/>
      <point x="152" y="505"/>
      <point x="79" y="506"/>
      <point x="79" y="506" type="curve"/>
      <point x="63" y="440" type="line"/>
      <point x="73" y="428" type="line"/>
      <point x="73" y="428"/>
      <point x="84" y="429"/>
      <point x="93" y="429" type="curve" smooth="yes"/>
      <point x="109" y="429"/>
      <point x="112" y="421"/>
      <point x="108" y="387" type="curve"/>
      <point x="83" y="189" type="line"/>
      <point x="27" y="189" type="line"/>
      <point x="12" y="130" type="line"/>
      <point x="17" y="125" type="line"/>
      <point x="74" y="125" type="line"/>
      <point x="65" y="87"/>
      <point x="53" y="74"/>
      <point x="18" y="70" type="curve"/>
      <point x="1" y="-7" type="line"/>
      <point x="1" y="-7"/>
      <point x="44" y="-3"/>
      <point x="105" y="-1" type="curve" smooth="yes"/>
      <point x="125" y="0"/>
      <point x="147" y="0"/>
      <point x="170" y="0" type="curve" smooth="yes"/>
      <point x="207" y="0"/>
      <point x="316" y="-2"/>
      <point x="316" y="-2" type="curve"/>
      <point x="337" y="80" type="line"/>
      <point x="324" y="96" type="line"/>
      <point x="324" y="96"/>
      <point x="307" y="89"/>
      <point x="282" y="89" type="curve" smooth="yes"/>
      <point x="256" y="89"/>
      <point x="249" y="96"/>
    </contour>
  </outline>
</glyph>
<glyph name="lira" format="2">
  <advance width="514"/>
  <unicode hex="20A4"/>
  <outline>
    <contour>
      <point x="368" y="-12" type="curve" smooth="yes"/>
      <point x="435" y="-12"/>
      <point x="487" y="33"/>
      <point x="495" y="97" type="curve" smooth="yes"/>
      <point x="500" y="140"/>
      <point x="491" y="192"/>
      <point x="476" y="213" type="curve"/>
      <point x="448" y="220" type="line"/>
      <point x="442" y="175"/>
      <point x="413" y="141"/>
      <point x="378" y="141" type="curve" smooth="yes"/>
      <point x="352" y="141"/>
      <point x="300" y="158"/>
      <point x="277" y="158" type="curve"/>
      <point x="221" y="141" type="line"/>
      <point x="240" y="157"/>
      <point x="254" y="197"/>
      <point x="260" y="232" type="curve" smooth="yes"/>
      <point x="288" y="413" type="line" smooth="yes"/>
      <point x="296" y="461"/>
      <point x="311" y="481"/>
      <point x="351" y="481" type="curve" smooth="yes"/>
      <point x="376" y="481"/>
      <point x="405" y="472"/>
      <point x="456" y="440" type="curve"/>
      <point x="473" y="441" type="line"/>
      <point x="531" y="572" type="line"/>
      <point x="523" y="582" type="line"/>
      <point x="499" y="591"/>
      <point x="449" y="598"/>
      <point x="400" y="598" type="curve" smooth="yes"/>
      <point x="274" y="598"/>
      <point x="130" y="494"/>
      <point x="117" y="391" type="curve" smooth="yes"/>
      <point x="94" y="205" type="line" smooth="yes"/>
      <point x="89" y="162"/>
      <point x="56" y="126"/>
      <point x="-2" y="98" type="curve"/>
      <point x="16" y="5" type="line"/>
      <point x="32" y="-3" type="line"/>
      <point x="86" y="27"/>
      <point x="130" y="42"/>
      <point x="178" y="42" type="curve" smooth="yes"/>
      <point x="237" y="42"/>
      <point x="302" y="-12"/>
    </contour>
    <contour>
      <point x="29" y="207" type="line"/>
      <point x="373" y="208" type="line"/>
      <point x="395" y="276" type="line"/>
      <point x="389" y="284" type="line"/>
      <point x="193" y="280" type="line"/>
      <point x="38" y="280" type="line"/>
      <point x="22" y="213" type="line"/>
    </contour>
    <contour>
      <point x="43" y="320" type="line"/>
      <point x="405" y="321" type="line"/>
      <point x="427" y="389" type="line"/>
      <point x="421" y="397" type="line"/>
      <point x="207" y="393" type="line"/>
      <point x="52" y="393" type="line"/>
      <point x="36" y="326" type="line"/>
    </contour>
  </outline>
</glyph>
<glyph name="peseta" format="2">
  <advance width="1324"/>
  <unicode hex="20A7"/>
  <anchor x="1094" y="0" name="bottom"/>
  <anchor x="757" y="236" name="center"/>
  <anchor x="1152" y="472" name="top"/>
  <anchor x="911" y="472" name="topright"/>
  <outline>
    <contour>
      <point x="74" y="647" type="curve"/>
      <point x="55" y="569" type="line"/>
      <point x="63" y="557" type="line"/>
      <point x="63" y="557"/>
      <point x="83" y="559"/>
      <point x="98" y="559" type="curve" smooth="yes"/>
      <point x="116" y="559"/>
      <point x="121" y="546"/>
      <point x="116" y="505" type="curve" smooth="yes"/>
      <point x="74" y="168" type="line" smooth="yes"/>
      <point x="67" y="112"/>
      <point x="49" y="91"/>
      <point x="1" y="83" type="curve"/>
      <point x="-19" y="-9" type="line"/>
      <point x="-19" y="-9"/>
      <point x="120" y="0"/>
      <point x="164" y="0" type="curve" smooth="yes"/>
      <point x="206" y="0"/>
      <point x="326" y="-4"/>
      <point x="326" y="-4" type="curve"/>
      <point x="346" y="82" type="line"/>
      <point x="345" y="85"/>
      <point x="343" y="87"/>
      <point x="342" y="90" type="curve" smooth="yes"/>
      <point x="342" y="90"/>
      <point x="324" y="88"/>
      <point x="311" y="88" type="curve" smooth="yes"/>
      <point x="271" y="88"/>
      <point x="264" y="106"/>
      <point x="271" y="160" type="curve" smooth="yes"/>
      <point x="277" y="208" type="line"/>
      <point x="360" y="208" type="line" smooth="yes"/>
      <point x="500" y="208"/>
      <point x="635" y="330"/>
      <point x="635" y="473" type="curve" smooth="yes"/>
      <point x="635" y="548"/>
      <point x="588" y="653"/>
      <point x="383" y="653" type="curve" smooth="yes"/>
      <point x="383" y="653"/>
      <point x="259" y="647"/>
      <point x="214" y="647" type="curve" smooth="yes"/>
      <point x="166" y="647"/>
      <point x="123" y="647"/>
    </contour>
    <contour>
      <point x="357" y="321" type="curve"/>
      <point x="294" y="331" type="line"/>
      <point x="303" y="394"/>
      <point x="314" y="455"/>
      <point x="323" y="506" type="curve" smooth="yes"/>
      <point x="326" y="525"/>
      <point x="328" y="528"/>
      <point x="341" y="528" type="curve" smooth="yes"/>
      <point x="400" y="528"/>
      <point x="427" y="505"/>
      <point x="427" y="452" type="curve" smooth="yes"/>
      <point x="427" y="388"/>
      <point x="407" y="339"/>
    </contour>
    <contour>
      <point x="904" y="191" type="line"/>
      <point x="882" y="195" type="line"/>
      <point x="852" y="161"/>
      <point x="837" y="150"/>
      <point x="824" y="150" type="curve" smooth="yes"/>
      <point x="809" y="150"/>
      <point x="804" y="159"/>
      <point x="806" y="180" type="curve"/>
      <point x="841" y="372" type="line"/>
      <point x="854" y="380" type="line"/>
      <point x="948" y="379" type="line"/>
      <point x="960" y="454" type="line"/>
      <point x="953" y="461" type="line"/>
      <point x="858" y="461" type="line"/>
      <point x="872" y="529"/>
      <point x="889" y="595"/>
      <point x="889" y="595" type="curve"/>
      <point x="875" y="607" type="line"/>
      <point x="707" y="572" type="line"/>
      <point x="707" y="572"/>
      <point x="700" y="512"/>
      <point x="693" y="461" type="curve"/>
      <point x="621" y="450" type="line"/>
      <point x="613" y="384" type="line"/>
      <point x="616" y="379" type="line"/>
      <point x="670" y="379" type="line"/>
      <point x="679" y="371" type="line"/>
      <point x="635" y="123" type="line"/>
      <point x="625" y="38"/>
      <point x="674" y="-12"/>
      <point x="767" y="-12" type="curve" smooth="yes"/>
      <point x="797" y="-12"/>
      <point x="860" y="49"/>
      <point x="925" y="141" type="curve"/>
    </contour>
    <contour>
      <point x="1002" y="178" type="curve"/>
      <point x="975" y="180" type="line"/>
      <point x="949" y="150"/>
      <point x="921" y="90"/>
      <point x="915" y="53" type="curve"/>
      <point x="928" y="15"/>
      <point x="995" y="-12"/>
      <point x="1075" y="-12" type="curve" smooth="yes"/>
      <point x="1212" y="-12"/>
      <point x="1313" y="64"/>
      <point x="1313" y="168" type="curve" smooth="yes"/>
      <point x="1313" y="254"/>
      <point x="1232" y="277"/>
      <point x="1186" y="301" type="curve" smooth="yes"/>
      <point x="1168" y="310"/>
      <point x="1156" y="319"/>
      <point x="1156" y="333" type="curve" smooth="yes"/>
      <point x="1156" y="349"/>
      <point x="1171" y="361"/>
      <point x="1190" y="361" type="curve" smooth="yes"/>
      <point x="1213" y="361"/>
      <point x="1236" y="343"/>
      <point x="1250" y="314" type="curve"/>
      <point x="1275" y="314" type="line"/>
      <point x="1295" y="346"/>
      <point x="1316" y="388"/>
      <point x="1338" y="442" type="curve"/>
      <point x="1304" y="468"/>
      <point x="1246" y="484"/>
      <point x="1188" y="484" type="curve" smooth="yes"/>
      <point x="1059" y="484"/>
      <point x="964" y="407"/>
      <point x="964" y="301" type="curve" smooth="yes"/>
      <point x="964" y="230"/>
      <point x="1015" y="202"/>
      <point x="1059" y="181" type="curve" smooth="yes"/>
      <point x="1093" y="165"/>
      <point x="1124" y="153"/>
      <point x="1124" y="131" type="curve" smooth="yes"/>
      <point x="1124" y="115"/>
      <point x="1110" y="106"/>
      <point x="1084" y="106" type="curve" smooth="yes"/>
      <point x="1042" y="106"/>
      <point x="1006" y="138"/>
    </contour>
  </outline>
</glyph>
<glyph name="dong" format="2">
  <advance width="500"/>
  <unicode hex="20AB"/>
  <outline>
    <contour>
      <point x="146" y="60" type="curve"/>
      <point x="184" y="87"/>
      <point x="217" y="129"/>
      <point x="263" y="209" type="curve"/>
      <point x="272" y="209" type="line"/>
      <point x="253" y="129"/>
      <point x="250" y="116"/>
      <point x="250" y="103" type="curve" smooth="yes"/>
      <point x="250" y="75"/>
      <point x="264" y="60"/>
      <point x="296" y="60" type="curve" smooth="yes"/>
      <point x="349" y="60"/>
      <point x="388" y="90"/>
      <point x="486" y="199" type="curve"/>
      <point x="469" y="243" type="line"/>
      <point x="449" y="246" type="line"/>
      <point x="403" y="208"/>
      <point x="408" y="211"/>
      <point x="403" y="211" type="curve"/>
      <point x="399" y="213" type="line"/>
      <point x="429" y="374"/>
      <point x="492" y="715"/>
      <point x="492" y="715" type="curve"/>
      <point x="478" y="732" type="line"/>
      <point x="478" y="732"/>
      <point x="355" y="722"/>
      <point x="273" y="722" type="curve"/>
      <point x="262" y="648" type="line"/>
      <point x="287" y="648" type="line" smooth="yes"/>
      <point x="312" y="648"/>
      <point x="321" y="638"/>
      <point x="316" y="609" type="curve" smooth="yes"/>
      <point x="296" y="475" type="line"/>
      <point x="237" y="492" type="line"/>
      <point x="127" y="492"/>
      <point x="9" y="342"/>
      <point x="9" y="200" type="curve" smooth="yes"/>
      <point x="9" y="112"/>
      <point x="60" y="60"/>
    </contour>
    <contour>
      <point x="18" y="-78" type="line"/>
      <point x="17" y="-78"/>
      <point x="132" y="-77"/>
      <point x="188" y="-77" type="curve" smooth="yes"/>
      <point x="373" y="-76" type="line"/>
      <point x="392" y="-13" type="line"/>
      <point x="386" y="3" type="line"/>
      <point x="388" y="3"/>
      <point x="254" y="-2"/>
      <point x="203" y="-2" type="curve" smooth="yes"/>
      <point x="153" y="-2"/>
      <point x="29" y="-5"/>
      <point x="29" y="-5" type="curve"/>
      <point x="9" y="-64" type="line"/>
    </contour>
    <contour>
      <point x="188" y="199" type="curve" smooth="yes"/>
      <point x="181" y="199"/>
      <point x="175" y="223"/>
      <point x="175" y="257" type="curve" smooth="yes"/>
      <point x="175" y="322"/>
      <point x="194" y="396"/>
      <point x="210" y="396" type="curve" smooth="yes"/>
      <point x="242" y="396"/>
      <point x="276" y="374"/>
      <point x="275" y="374" type="curve"/>
      <point x="252" y="289"/>
      <point x="207" y="199"/>
    </contour>
    <contour>
      <point x="213" y="532" type="line"/>
      <point x="364" y="533" type="line"/>
      <point x="523" y="534" type="line"/>
      <point x="528" y="585" type="line"/>
      <point x="515" y="598" type="line"/>
      <point x="387" y="593" type="line"/>
      <point x="387" y="593" type="line"/>
      <point x="210" y="594" type="line"/>
      <point x="203" y="542" type="line"/>
    </contour>
  </outline>
</glyph>
<glyph name="tugrik" format="2">
  <advance width="601"/>
  <unicode hex="20AE"/>
  <outline>
    <contour>
      <point x="102" y="-8" type="line"/>
      <point x="152" y="-5"/>
      <point x="234" y="0"/>
      <point x="276" y="0" type="curve" smooth="yes"/>
      <point x="297" y="0"/>
      <point x="356" y="-2"/>
      <point x="441" y="-5" type="curve"/>
      <point x="454" y="75" type="line"/>
      <point x="447" y="80" type="line"/>
      <point x="430" y="78"/>
      <point x="416" y="77"/>
      <point x="404" y="77" type="curve" smooth="yes"/>
      <point x="376" y="77"/>
      <point x="370" y="87"/>
      <point x="375" y="123" type="curve" smooth="yes"/>
      <point x="387" y="225"/>
      <point x="399" y="315"/>
      <point x="414" y="395" type="curve"/>
      <point x="446" y="399"/>
      <point x="449" y="393"/>
      <point x="447" y="326" type="curve"/>
      <point x="555" y="324" type="line"/>
      <point x="562" y="390"/>
      <point x="568" y="451"/>
      <point x="574" y="497" type="curve"/>
      <point x="563" y="513" type="line"/>
      <point x="462" y="504" type="line"/>
      <point x="209" y="504" type="line"/>
      <point x="109" y="513" type="line"/>
      <point x="97" y="505" type="line"/>
      <point x="88" y="427"/>
      <point x="76" y="352"/>
      <point x="68" y="306" type="curve"/>
      <point x="176" y="304" type="line"/>
      <point x="192" y="377"/>
      <point x="207" y="399"/>
      <point x="239" y="399" type="curve"/>
      <point x="203" y="135" type="line" smooth="yes"/>
      <point x="198" y="92"/>
      <point x="177" y="76"/>
      <point x="112" y="71" type="curve"/>
    </contour>
    <contour>
      <point x="98" y="95" type="line"/>
      <point x="481" y="132" type="line"/>
      <point x="495" y="201" type="line"/>
      <point x="489" y="208" type="line"/>
      <point x="269" y="184" type="line"/>
      <point x="101" y="167" type="line"/>
      <point x="91" y="100" type="line"/>
    </contour>
    <contour>
      <point x="110" y="198" type="line"/>
      <point x="493" y="235" type="line"/>
      <point x="507" y="304" type="line"/>
      <point x="502" y="311" type="line"/>
      <point x="282" y="287" type="line"/>
      <point x="114" y="270" type="line"/>
      <point x="104" y="203" type="line"/>
    </contour>
  </outline>
</glyph>
<glyph name="hryvnia" format="2">
  <advance width="592"/>
  <unicode hex="20B4"/>
  <outline>
    <contour>
      <point x="263" y="-9" type="curve" smooth="yes"/>
      <point x="334" y="-9"/>
      <point x="406" y="3"/>
      <point x="452" y="23" type="curve"/>
      <point x="463" y="36" type="line"/>
      <point x="477" y="147" type="line"/>
      <point x="387" y="143" type="line"/>
      <point x="374" y="104"/>
      <point x="348" y="91"/>
      <point x="300" y="91" type="curve" smooth="yes"/>
      <point x="253" y="91"/>
      <point x="234" y="104"/>
      <point x="237" y="128" type="curve" smooth="yes"/>
      <point x="249" y="224"/>
      <point x="497" y="226"/>
      <point x="516" y="380" type="curve" smooth="yes"/>
      <point x="527" y="467"/>
      <point x="462" y="511"/>
      <point x="324" y="511" type="curve" smooth="yes"/>
      <point x="267" y="511"/>
      <point x="200" y="503"/>
      <point x="155" y="491" type="curve"/>
      <point x="146" y="476" type="line"/>
      <point x="136" y="355" type="line"/>
      <point x="216" y="357" type="line"/>
      <point x="226" y="363" type="line"/>
      <point x="232" y="398"/>
      <point x="244" y="407"/>
      <point x="286" y="407" type="curve" smooth="yes"/>
      <point x="340" y="407"/>
      <point x="364" y="396"/>
      <point x="361" y="373" type="curve" smooth="yes"/>
      <point x="348" y="269"/>
      <point x="100" y="285"/>
      <point x="80" y="122" type="curve" smooth="yes"/>
      <point x="70" y="36"/>
      <point x="133" y="-9"/>
    </contour>
    <contour>
      <point x="35" y="161" type="line"/>
      <point x="531" y="162" type="line"/>
      <point x="552" y="228" type="line"/>
      <point x="546" y="237" type="line"/>
      <point x="311" y="233" type="line"/>
      <point x="45" y="233" type="line"/>
      <point x="29" y="168" type="line"/>
    </contour>
    <contour>
      <point x="48" y="268" type="line"/>
      <point x="544" y="269" type="line"/>
      <point x="565" y="335" type="line"/>
      <point x="559" y="344" type="line"/>
      <point x="324" y="339" type="line"/>
      <point x="58" y="339" type="line"/>
      <point x="42" y="275" type="line"/>
    </contour>
  </outline>
</glyph>
<glyph name="tenge" format="2">
  <advance width="496"/>
  <unicode hex="20B8"/>
  <outline>
    <contour>
      <point x="51" y="-8" type="line"/>
      <point x="101" y="-5"/>
      <point x="183" y="0"/>
      <point x="225" y="0" type="curve" smooth="yes"/>
      <point x="246" y="0"/>
      <point x="305" y="-2"/>
      <point x="390" y="-5" type="curve"/>
      <point x="403" y="75" type="line"/>
      <point x="395" y="80" type="line"/>
      <point x="379" y="78"/>
      <point x="365" y="77"/>
      <point x="353" y="77" type="curve" smooth="yes"/>
      <point x="325" y="77"/>
      <point x="319" y="87"/>
      <point x="324" y="123" type="curve" smooth="yes"/>
      <point x="337" y="229"/>
      <point x="340" y="254"/>
      <point x="345" y="287" type="curve"/>
      <point x="172" y="291" type="line"/>
      <point x="152" y="135" type="line" smooth="yes"/>
      <point x="147" y="92"/>
      <point x="126" y="76"/>
      <point x="61" y="71" type="curve"/>
    </contour>
    <contour>
      <point x="1" y="180" type="curve"/>
      <point x="112" y="178" type="line"/>
      <point x="125" y="246"/>
      <point x="135" y="257"/>
      <point x="175" y="257" type="curve"/>
      <point x="342" y="257" type="line"/>
      <point x="378" y="257"/>
      <point x="379" y="252"/>
      <point x="376" y="180" type="curve"/>
      <point x="486" y="178" type="line"/>
      <point x="492" y="237"/>
      <point x="498" y="299"/>
      <point x="504" y="345" type="curve"/>
      <point x="493" y="361" type="line"/>
      <point x="39" y="361" type="line"/>
      <point x="27" y="351" type="line"/>
      <point x="21" y="298"/>
      <point x="10" y="225"/>
    </contour>
    <contour>
      <point x="40" y="399" type="line"/>
      <point x="506" y="399" type="line"/>
      <point x="525" y="490" type="line"/>
      <point x="517" y="506" type="line"/>
      <point x="333" y="503" type="line"/>
      <point x="48" y="504" type="line"/>
      <point x="33" y="415" type="line"/>
    </contour>
  </outline>
</glyph>
<glyph name="liraTurkish" format="2">
  <advance width="543"/>
  <unicode hex="20BA"/>
  <outline>
    <contour>
      <point x="80" y="0" type="line"/>
      <point x="262" y="69" type="line"/>
      <point x="281" y="203"/>
      <point x="298" y="307"/>
      <point x="312" y="383" type="curve" smooth="yes"/>
      <point x="318" y="416"/>
      <point x="329" y="425"/>
      <point x="367" y="430" type="curve"/>
      <point x="376" y="507" type="line"/>
      <point x="327" y="506"/>
      <point x="253" y="504"/>
      <point x="223" y="504" type="curve" smooth="yes"/>
      <point x="181" y="504"/>
      <point x="140" y="504"/>
      <point x="89" y="504" type="curve"/>
      <point x="78" y="441" type="line"/>
      <point x="88" y="429" type="line"/>
      <point x="92" y="429"/>
      <point x="100" y="429"/>
      <point x="110" y="429" type="curve" smooth="yes"/>
      <point x="130" y="429"/>
      <point x="132" y="425"/>
      <point x="128" y="394" type="curve" smooth="yes"/>
    </contour>
    <contour>
      <point x="540" y="188" type="curve"/>
      <point x="528" y="209" type="line"/>
      <point x="378" y="213" type="line"/>
      <point x="357" y="149"/>
      <point x="316" y="119"/>
      <point x="245" y="119" type="curve"/>
      <point x="82" y="0" type="line"/>
      <point x="380" y="0"/>
      <point x="455" y="28"/>
    </contour>
    <contour>
      <point x="37" y="94" type="line"/>
      <point x="391" y="227" type="line"/>
      <point x="386" y="295" type="line"/>
      <point x="379" y="300" type="line"/>
      <point x="170" y="219" type="line"/>
      <point x="20" y="162" type="line"/>
      <point x="29" y="97" type="line"/>
    </contour>
    <contour>
      <point x="52" y="217" type="line"/>
      <point x="406" y="350" type="line"/>
      <point x="401" y="418" type="line"/>
      <point x="394" y="423" type="line"/>
      <point x="185" y="342" type="line"/>
      <point x="35" y="285" type="line"/>
      <point x="44" y="220" type="line"/>
    </contour>
  </outline>
</glyph>
<glyph name="ruble" format="2">
  <advance width="569"/>
  <unicode hex="20BD"/>
  <anchor x="258" y="0" name="bottom"/>
  <anchor x="320" y="503" name="top"/>
  <outline>
    <contour>
      <point x="8" y="-7" type="line"/>
      <point x="8" y="-8"/>
      <point x="130" y="0"/>
      <point x="168" y="0" type="curve" smooth="yes"/>
      <point x="203" y="0"/>
      <point x="310" y="-3"/>
      <point x="310" y="-3" type="curve"/>
      <point x="327" y="66" type="line"/>
      <point x="324" y="73" type="line"/>
      <point x="324" y="73"/>
      <point x="310" y="72"/>
      <point x="299" y="72" type="curve" smooth="yes"/>
      <point x="264" y="72"/>
      <point x="258" y="87"/>
      <point x="262" y="123" type="curve"/>
      <point x="270" y="187" type="line"/>
      <point x="342" y="187" type="line" smooth="yes"/>
      <point x="461" y="187"/>
      <point x="574" y="271"/>
      <point x="574" y="370" type="curve" smooth="yes"/>
      <point x="574" y="424"/>
      <point x="544" y="509"/>
      <point x="359" y="509" type="curve" smooth="yes"/>
      <point x="359" y="509"/>
      <point x="243" y="504"/>
      <point x="204" y="504" type="curve" smooth="yes"/>
      <point x="162" y="504"/>
      <point x="127" y="504"/>
      <point x="82" y="504" type="curve"/>
      <point x="65" y="438" type="line"/>
      <point x="72" y="428" type="line"/>
      <point x="72" y="428"/>
      <point x="90" y="429"/>
      <point x="103" y="429" type="curve" smooth="yes"/>
      <point x="118" y="429"/>
      <point x="121" y="419"/>
      <point x="117" y="387" type="curve" smooth="yes"/>
      <point x="86" y="134" type="line" smooth="yes"/>
      <point x="81" y="91"/>
      <point x="66" y="74"/>
      <point x="25" y="68" type="curve"/>
    </contour>
    <contour>
      <point x="21" y="101" type="line"/>
      <point x="356" y="101" type="line"/>
      <point x="367" y="161" type="line"/>
      <point x="362" y="167" type="line"/>
      <point x="176" y="165" type="line"/>
      <point x="31" y="165" type="line"/>
      <point x="16" y="106" type="line"/>
    </contour>
    <contour>
      <point x="337" y="284" type="curve"/>
      <point x="285" y="291" type="line"/>
      <point x="291" y="326"/>
      <point x="297" y="357"/>
      <point x="302" y="383" type="curve" smooth="yes"/>
      <point x="305" y="398"/>
      <point x="307" y="401"/>
      <point x="317" y="401" type="curve" smooth="yes"/>
      <point x="365" y="401"/>
      <point x="387" y="387"/>
      <point x="387" y="355" type="curve" smooth="yes"/>
      <point x="387" y="324"/>
      <point x="371" y="293"/>
    </contour>
  </outline>
</glyph>
<glyph name="upArrow" format="2">
  <advance width="555"/>
  <unicode hex="2191"/>
  <outline>
    <contour>
      <point x="69" y="184" type="line"/>
      <point x="93" y="184" type="line"/>
      <point x="277" y="342" type="line"/>
      <point x="461" y="184" type="line"/>
      <point x="485" y="184" type="line"/>
      <point x="507" y="290" type="line"/>
      <point x="407" y="373"/>
      <point x="293" y="482"/>
      <point x="293" y="482" type="curve"/>
      <point x="262" y="482" type="line"/>
      <point x="262" y="482"/>
      <point x="148" y="373"/>
      <point x="47" y="290" type="curve"/>
    </contour>
    <contour>
      <point x="322" y="-13" type="line"/>
      <point x="344" y="3" type="line"/>
      <point x="332" y="375" type="line"/>
      <point x="223" y="375" type="line"/>
      <point x="209" y="-5" type="line"/>
    </contour>
  </outline>
</glyph>
<glyph name="rightArrow" format="2">
  <advance width="555"/>
  <unicode hex="2192"/>
  <outline>
    <contour>
      <point x="332" y="4" type="line"/>
      <point x="415" y="104"/>
      <point x="524" y="219"/>
      <point x="524" y="219" type="curve"/>
      <point x="524" y="250" type="line"/>
      <point x="524" y="250"/>
      <point x="415" y="363"/>
      <point x="332" y="464" type="curve"/>
      <point x="226" y="442" type="line"/>
      <point x="226" y="418" type="line"/>
      <point x="384" y="234" type="line"/>
      <point x="226" y="50" type="line"/>
      <point x="226" y="26" type="line"/>
    </contour>
    <contour>
      <point x="45" y="167" type="line"/>
      <point x="417" y="179" type="line"/>
      <point x="417" y="288" type="line"/>
      <point x="37" y="302" type="line"/>
      <point x="29" y="189" type="line"/>
    </contour>
  </outline>
</glyph>
<glyph name="upDownArrow" format="2">
  <advance width="567"/>
  <unicode hex="2195"/>
  <outline>
    <contour>
      <point x="268" y="-133" type="curve"/>
      <point x="299" y="-133" type="line"/>
      <point x="299" y="-133"/>
      <point x="412" y="-24"/>
      <point x="513" y="60" type="curve"/>
      <point x="491" y="166" type="line"/>
      <point x="467" y="166" type="line"/>
      <point x="283" y="8" type="line"/>
      <point x="99" y="166" type="line"/>
      <point x="75" y="166" type="line"/>
      <point x="53" y="60" type="line"/>
      <point x="153" y="-24"/>
      <point x="268" y="-133"/>
    </contour>
    <contour>
      <point x="224" y="-20" type="line"/>
      <point x="340" y="-20" type="line"/>
      <point x="340" y="487" type="line"/>
      <point x="224" y="487" type="line"/>
    </contour>
    <contour>
      <point x="76" y="304" type="line"/>
      <point x="100" y="304" type="line"/>
      <point x="284" y="462" type="line"/>
      <point x="468" y="304" type="line"/>
      <point x="492" y="304" type="line"/>
      <point x="514" y="410" type="line"/>
      <point x="414" y="493"/>
      <point x="300" y="602"/>
      <point x="300" y="602" type="curve"/>
      <point x="269" y="602" type="line"/>
      <point x="269" y="602"/>
      <point x="155" y="493"/>
      <point x="53" y="410" type="curve"/>
    </contour>
  </outline>
</glyph>
<glyph name="product" format="2">
  <advance width="697"/>
  <unicode hex="220F"/>
  <outline>
    <contour>
      <point x="661" y="510" type="curve" smooth="yes"/>
      <point x="668" y="547"/>
      <point x="677" y="554"/>
      <point x="722" y="562" type="curve"/>
      <point x="740" y="652" type="line"/>
      <point x="740" y="652"/>
      <point x="613" y="647"/>
      <point x="571" y="647" type="curve" smooth="yes"/>
      <point x="232" y="647" type="line" smooth="yes"/>
      <point x="194" y="647"/>
      <point x="76" y="652"/>
      <point x="76" y="652" type="curve"/>
      <point x="56" y="572" type="line"/>
      <point x="64" y="558" type="line"/>
      <point x="64" y="558"/>
      <point x="78" y="559"/>
      <point x="88" y="559" type="curve" smooth="yes"/>
      <point x="110" y="559"/>
      <point x="118" y="552"/>
      <point x="118" y="526" type="curve" smooth="yes"/>
      <point x="118" y="494"/>
      <point x="88" y="277"/>
      <point x="73" y="162" type="curve" smooth="yes"/>
      <point x="67" y="106"/>
      <point x="53" y="91"/>
      <point x="1" y="80" type="curve"/>
      <point x="-17" y="-5" type="line"/>
      <point x="-18" y="-5"/>
      <point x="84" y="0"/>
      <point x="145" y="0" type="curve" smooth="yes"/>
      <point x="184" y="0"/>
      <point x="301" y="-4"/>
      <point x="301" y="-4" type="curve"/>
      <point x="320" y="80" type="line"/>
      <point x="313" y="90" type="line"/>
      <point x="313" y="90"/>
      <point x="312" y="89"/>
      <point x="309" y="88" type="curve" smooth="yes"/>
      <point x="304" y="87"/>
      <point x="298" y="87"/>
      <point x="290" y="87" type="curve" smooth="yes"/>
      <point x="274" y="87"/>
      <point x="267" y="95"/>
      <point x="267" y="124" type="curve" smooth="yes"/>
      <point x="267" y="157"/>
      <point x="301" y="375"/>
      <point x="322" y="497" type="curve" smooth="yes"/>
      <point x="329" y="537"/>
      <point x="340" y="549"/>
      <point x="372" y="549" type="curve" smooth="yes"/>
      <point x="429" y="549"/>
      <point x="453" y="554"/>
      <point x="453" y="511" type="curve" smooth="yes"/>
      <point x="453" y="400"/>
      <point x="425" y="273"/>
      <point x="411" y="162" type="curve" smooth="yes"/>
      <point x="404" y="106"/>
      <point x="393" y="91"/>
      <point x="348" y="80" type="curve"/>
      <point x="330" y="-5" type="line"/>
      <point x="330" y="-5"/>
      <point x="427" y="0"/>
      <point x="485" y="0" type="curve" smooth="yes"/>
      <point x="525" y="0"/>
      <point x="648" y="-4"/>
      <point x="648" y="-4" type="curve"/>
      <point x="667" y="80" type="line"/>
      <point x="660" y="90" type="line"/>
      <point x="660" y="90"/>
      <point x="650" y="87"/>
      <point x="630" y="87" type="curve" smooth="yes"/>
      <point x="612" y="87"/>
      <point x="605" y="95"/>
      <point x="605" y="125" type="curve" smooth="yes"/>
      <point x="605" y="162"/>
      <point x="643" y="411"/>
    </contour>
  </outline>
</glyph>
<glyph name="integral" format="2">
  <advance width="442"/>
  <unicode hex="222B"/>
  <outline>
    <contour>
      <point x="116" y="384" type="curve" smooth="yes"/>
      <point x="115" y="46" type="line" smooth="yes"/>
      <point x="115" y="-30"/>
      <point x="102" y="-58"/>
      <point x="67" y="-58" type="curve" smooth="yes"/>
      <point x="37" y="-58"/>
      <point x="14" y="-32"/>
      <point x="9" y="5" type="curve"/>
      <point x="-9" y="5" type="line"/>
      <point x="-28" y="-18"/>
      <point x="-53" y="-87"/>
      <point x="-53" y="-114" type="curve" smooth="yes"/>
      <point x="-53" y="-137"/>
      <point x="0" y="-164"/>
      <point x="44" y="-164" type="curve" smooth="yes"/>
      <point x="162" y="-164"/>
      <point x="263" y="-47"/>
      <point x="270" y="99" type="curve" smooth="yes"/>
      <point x="287" y="412" type="line" smooth="yes"/>
      <point x="291" y="468"/>
      <point x="307" y="490"/>
      <point x="345" y="490" type="curve" smooth="yes"/>
      <point x="368" y="490"/>
      <point x="386" y="480"/>
      <point x="421" y="450" type="curve"/>
      <point x="439" y="453" type="line"/>
      <point x="453" y="475"/>
      <point x="479" y="555"/>
      <point x="479" y="575" type="curve" smooth="yes"/>
      <point x="479" y="587"/>
      <point x="435" y="598"/>
      <point x="385" y="598" type="curve" smooth="yes"/>
      <point x="257" y="598"/>
      <point x="116" y="486"/>
    </contour>
  </outline>
</glyph>
<glyph name="approxequal" format="2">
  <advance width="491"/>
  <unicode hex="2248"/>
  <outline>
    <contour>
      <point x="56" y="231" type="line"/>
      <point x="72" y="231" type="line"/>
      <point x="72" y="231"/>
      <point x="136" y="289"/>
      <point x="166" y="289" type="curve" smooth="yes"/>
      <point x="205" y="289"/>
      <point x="313" y="255"/>
      <point x="357" y="255" type="curve"/>
      <point x="379" y="259" type="line"/>
      <point x="499" y="374" type="line"/>
      <point x="501" y="390" type="line"/>
      <point x="459" y="446" type="line"/>
      <point x="443" y="446" type="line"/>
      <point x="443" y="446"/>
      <point x="379" y="388"/>
      <point x="349" y="388" type="curve" smooth="yes"/>
      <point x="310" y="388"/>
      <point x="202" y="422"/>
      <point x="158" y="422" type="curve"/>
      <point x="136" y="418" type="line"/>
      <point x="16" y="303" type="line"/>
      <point x="14" y="287" type="line"/>
    </contour>
    <contour>
      <point x="32" y="31" type="line"/>
      <point x="48" y="31" type="line"/>
      <point x="48" y="31"/>
      <point x="111" y="89"/>
      <point x="141" y="89" type="curve" smooth="yes"/>
      <point x="180" y="89"/>
      <point x="288" y="55"/>
      <point x="332" y="55" type="curve"/>
      <point x="355" y="59" type="line"/>
      <point x="474" y="174" type="line"/>
      <point x="476" y="190" type="line"/>
      <point x="434" y="246" type="line"/>
      <point x="418" y="246" type="line"/>
      <point x="418" y="246"/>
      <point x="355" y="188"/>
      <point x="324" y="188" type="curve" smooth="yes"/>
      <point x="286" y="188"/>
      <point x="177" y="222"/>
      <point x="133" y="222" type="curve"/>
      <point x="111" y="218" type="line"/>
      <point x="-8" y="103" type="line"/>
      <point x="-10" y="87" type="line"/>
    </contour>
  </outline>
</glyph>
